<svg width="33" height="33" viewBox="0 0 33 33" fill="none" xmlns="http://www.w3.org/2000/svg">
<path d="M8.21991 6.32055H7.16992V8.41055H8.21991C8.79991 8.41055 9.2699 7.94055 9.2699 7.36055C9.2699 6.78055 8.79991 6.31055 8.21991 6.31055V6.32055Z" fill="#009257"/>
<path d="M30.8799 27.7398C32.0899 27.3098 32.9699 26.1598 32.9699 24.7998V22.7098C32.9699 21.2598 31.9699 20.0398 30.6199 19.6898L29.2099 15.4498C28.7799 14.1698 27.5899 13.3098 26.2299 13.3098H18.0899C16.7399 13.3098 15.5399 14.1698 15.1099 15.4498L13.6999 19.6898C12.3499 20.0398 11.3499 21.2598 11.3499 22.7098V24.7998C11.3499 26.1598 12.2299 27.3098 13.4399 27.7398V28.9798C13.4399 29.3498 13.5199 29.6998 13.6299 30.0298H9.25989V16.6998C12.7999 16.1898 15.5299 13.1398 15.5299 9.45981V7.36981C15.5299 3.32981 12.2499 0.0498047 8.2099 0.0498047C4.1699 0.0498047 0.889893 3.32981 0.889893 7.36981V9.45981C0.889893 13.1398 3.61991 16.1898 7.15991 16.6998V30.0298H1.92987C1.34987 30.0298 0.879883 30.4998 0.879883 31.0798C0.879883 31.6598 1.34987 32.1298 1.92987 32.1298H31.8999C32.4799 32.1298 32.9499 31.6598 32.9499 31.0798C32.9499 30.4998 32.4799 30.0298 31.8999 30.0298H30.6599C30.7799 29.6998 30.8499 29.3498 30.8499 28.9798V27.7398H30.8799ZM7.17987 10.4998V11.5498C7.17987 12.1298 6.70988 12.5998 6.12988 12.5998C5.54988 12.5998 5.0799 12.1298 5.0799 11.5498V5.27981C5.0799 4.69981 5.54988 4.2298 6.12988 4.2298H8.21991C9.94991 4.2298 11.3599 5.63981 11.3599 7.36981C11.3599 9.09981 9.94991 10.5098 8.21991 10.5098H7.16992L7.17987 10.4998ZM17.0999 16.0998C17.2399 15.6698 17.6399 15.3898 18.0899 15.3898H26.2299C26.6799 15.3898 27.0799 15.6798 27.2199 16.1098L28.3799 19.5798H15.9499L17.1099 16.1098L17.0999 16.0998ZM14.4999 25.8398C13.9199 25.8398 13.4499 25.3698 13.4499 24.7898V22.6998C13.4499 22.1198 13.9199 21.6498 14.4999 21.6498H15.8399L17.2299 25.8298H14.4999V25.8398ZM19.5299 30.0198C19.6499 29.6898 19.7199 29.3398 19.7199 28.9698V27.9198H24.5999V28.9698C24.5999 29.3398 24.6799 29.6898 24.7899 30.0198H19.5299ZM29.8299 25.8398H27.0999L28.4899 21.6598H29.8299C30.4099 21.6598 30.8799 22.1298 30.8799 22.7098V24.7998C30.8799 25.3798 30.4099 25.8498 29.8299 25.8498V25.8398Z" fill="#783FAA"/>
<path d="M13.64 30.0201H9.27005V16.6901C12.81 16.1801 15.5401 13.1301 15.5401 9.45013V7.44013C15.5401 3.40013 12.3 0.0601298 8.26004 0.0401298C4.22004 0.0201298 0.900053 3.31013 0.900053 7.36013V9.45013C0.900053 13.1301 3.63007 16.1801 7.17007 16.6901V30.0201H1.97006C1.38006 30.0201 0.890053 30.5001 0.900053 31.0901C0.910053 31.6801 1.37004 32.1201 1.95004 32.1201H31.9001C32.4901 32.1201 32.9801 31.6401 32.9701 31.0501C32.9601 30.4601 32.5001 30.0201 31.9201 30.0201C31.9201 30.0201 15.07 30.0101 13.64 30.0201ZM7.18002 10.5001V11.5501C7.18002 12.1301 6.71003 12.6001 6.13003 12.6001C5.55003 12.6001 5.08005 12.1301 5.08005 11.5501V5.28013C5.08005 4.70013 5.55003 4.23013 6.13003 4.23013H8.22006C9.95006 4.23013 11.36 5.64013 11.36 7.37013C11.36 9.10013 9.95006 10.5101 8.22006 10.5101H7.17007L7.18002 10.5001Z" fill="#009257"/>
</svg>
