<svg width="29" height="36" viewBox="0 0 29 36" fill="none" xmlns="http://www.w3.org/2000/svg">
<path d="M10.38 8.40109C10.2 7.90109 9.7 7.62109 9.19 7.62109C8.94 7.62109 8.91 7.62109 8.76 7.62109H4.23C3.65 7.62109 3.22 7.89109 3.04 8.39109L0.849997 15.0611C0.639997 15.6211 0.919996 16.2511 1.48 16.4611C2.04 16.6711 2.66 16.3911 2.87 15.8211L3.45 14.2511C3.45 14.2511 3.49 14.0911 3.49 14.7811V24.0411C3.49 24.8511 4.14 25.5111 4.94 25.5111C5.74 25.5111 6.39 24.8511 6.39 24.0411V17.9911C6.39 17.9911 6.39 17.9411 6.44 17.9411H6.98C7.03 17.9411 7.03 17.9911 7.03 17.9911V24.0411C7.03 24.8511 7.68 25.5111 8.48 25.5111C9.28 25.5111 9.93 24.8511 9.93 24.0411V14.7811C9.93 14.0811 9.99 14.3011 9.99 14.3011L10.55 15.8211C10.76 16.3811 11.38 16.6711 11.94 16.4611C12.5 16.2511 12.78 15.6211 12.57 15.0611L10.38 8.39109V8.40109Z" fill="#009257"/>
<path d="M6.73012 6.8807C8.44772 6.8807 9.84012 5.50174 9.84012 3.8007C9.84012 2.09967 8.44772 0.720703 6.73012 0.720703C5.01251 0.720703 3.62012 2.09967 3.62012 3.8007C3.62012 5.50174 5.01251 6.8807 6.73012 6.8807Z" fill="#009257"/>
<path d="M22.6203 6.90066C24.3379 6.90066 25.7303 5.50827 25.7303 3.79066C25.7303 2.07306 24.3379 0.680664 22.6203 0.680664C20.9026 0.680664 19.5103 2.07306 19.5103 3.79066C19.5103 5.50827 20.9026 6.90066 22.6203 6.90066Z" fill="#783FAA"/>
<path d="M28.7502 14.9204L26.0902 8.45043C25.9402 8.12043 25.8002 7.69043 25.1802 7.69043H20.4602C19.8402 7.69043 19.5102 8.10043 19.3302 8.46043L16.5702 14.8904C16.3102 15.4304 16.5302 16.0804 17.0602 16.3504C17.5902 16.6104 18.2402 16.3904 18.5002 15.8504L18.7102 15.4204C18.7102 15.4204 18.7702 15.3104 18.7502 15.4304C18.6002 16.2204 18.1802 18.6004 18.1802 18.6004C18.0802 19.1004 18.4102 19.5004 18.9202 19.5004H20.1202C20.2102 19.5004 20.1902 19.5604 20.1902 19.5604V24.3404C20.1902 25.1404 20.6902 25.5604 21.3002 25.5604C21.9102 25.5604 22.4102 25.1404 22.4102 24.3404V19.5404C22.4102 19.5404 22.4102 19.4904 22.4602 19.4904C22.5202 19.4904 22.6902 19.4904 22.7602 19.4904C22.8002 19.4904 22.8002 19.5404 22.8002 19.5404V24.3404C22.8002 25.1404 23.3002 25.5604 23.9202 25.5604C24.5402 25.5604 25.0302 25.1404 25.0302 24.3404V19.5704C25.0302 19.5704 25.0302 19.4904 25.1202 19.4904H26.4102C26.9202 19.4904 27.2502 19.0804 27.1602 18.5904C27.1602 18.5904 26.7402 16.0404 26.6302 15.3404C26.6002 15.1404 26.9302 15.8504 26.9302 15.8504C27.1802 16.3904 27.6702 16.6204 28.2102 16.3704C28.7502 16.1204 28.9802 15.4704 28.7302 14.9204H28.7502Z" fill="#783FAA"/>
<path d="M15.33 24.9802C15.33 25.2702 15.09 25.5202 14.79 25.5202H14.56C14.27 25.5202 14.02 25.2802 14.02 24.9802V1.53023C14.02 1.24023 14.26 0.990234 14.56 0.990234H14.79C15.08 0.990234 15.33 1.23023 15.33 1.53023V24.9802Z" fill="#006A4E"/>
<path d="M8.01989 35.1403L5.78989 29.0803C5.78989 29.0803 5.78989 29.0803 5.78989 29.0703C5.72989 28.8903 5.88989 28.5403 6.35989 28.4703C7.15989 28.3403 7.42989 29.0703 7.42989 29.0703L9.36989 34.4503H8.54989L10.5799 29.0703C10.5799 29.0703 10.7099 28.4503 11.2799 28.4503C11.9199 28.4503 12.0499 29.0703 12.0499 29.0703L14.0099 34.4503H13.2199L15.2099 29.0703C15.2099 29.0703 15.4299 28.3803 16.1199 28.4503C16.6899 28.5003 16.7899 28.8803 16.7299 29.0703L16.7199 29.1003L14.4899 35.1503C14.4899 35.1503 14.3099 35.6103 13.5799 35.5903C12.9799 35.5803 12.7899 35.1503 12.7899 35.1503L11.0599 30.4303H11.5099L9.72988 35.1503C9.72988 35.1503 9.54988 35.5903 8.83988 35.5903C8.15988 35.5903 8.02989 35.1503 8.02989 35.1503L8.01989 35.1403Z" fill="#006A4E"/>
<path d="M20.7998 35.5605C20.2698 35.5605 19.7798 35.4705 19.3298 35.3005C18.8798 35.1305 18.4798 34.8805 18.1498 34.5605C17.8198 34.2405 17.5598 33.8705 17.3698 33.4405C17.1798 33.0105 17.0898 32.5405 17.0898 32.0205C17.0898 31.5005 17.1798 31.0305 17.3698 30.6005C17.5598 30.1705 17.8198 29.8005 18.1498 29.4805C18.4798 29.1605 18.8798 28.9105 19.3298 28.7405C19.7798 28.5705 20.2698 28.4805 20.8098 28.4805C21.3998 28.4805 21.9398 28.5805 22.4198 28.7905C22.8998 29.0005 23.2698 29.2705 23.5898 29.6505C23.5998 29.6705 23.6198 29.6805 23.6298 29.7005C23.7598 29.9005 23.8798 30.3205 23.5398 30.6505C23.1998 30.9805 22.7998 30.7905 22.6198 30.6505C22.6098 30.6405 22.5998 30.6205 22.5898 30.6105C22.3598 30.3605 22.1198 30.1705 21.8398 30.0505C21.5498 29.9205 21.2398 29.8505 20.8998 29.8505C20.5798 29.8505 20.2898 29.9005 20.0198 30.0105C19.7498 30.1205 19.5198 30.2605 19.3298 30.4605C19.1298 30.6605 18.9798 30.8905 18.8798 31.1505C18.7798 31.4105 18.7198 31.7105 18.7198 32.0405C18.7198 32.3705 18.7698 32.6605 18.8798 32.9305C18.9898 33.2005 19.1398 33.4305 19.3298 33.6205C19.5198 33.8205 19.7598 33.9705 20.0198 34.0705C20.2798 34.1705 20.5798 34.2305 20.8998 34.2305C21.2398 34.2305 21.5498 34.1605 21.8398 34.0305C22.1098 33.9005 22.3698 33.7105 22.5898 33.4505C22.5998 33.4405 22.6098 33.4305 22.6198 33.4205C22.7998 33.2705 23.1798 33.1005 23.5398 33.3905C23.8998 33.6805 23.7598 34.1505 23.6398 34.3605C23.6398 34.3705 23.6198 34.3805 23.6098 34.4005C23.2898 34.7805 22.8998 35.0705 22.4298 35.2705C21.9498 35.4805 21.4098 35.5805 20.8098 35.5805L20.7998 35.5605Z" fill="#006A4E"/>
</svg>
