<svg width="38" height="35" viewBox="0 0 38 35" fill="none" xmlns="http://www.w3.org/2000/svg">
<path d="M31.7202 32.3802C31.7202 32.3802 31.7102 32.3802 31.7002 32.3802C31.1202 32.1502 30.4902 31.9102 29.8102 31.6902C29.7802 31.6902 29.7602 31.6802 29.7402 31.6602C28.9302 31.3902 28.0402 31.1502 27.0902 30.9102C27.0502 30.9102 27.0102 30.9002 26.9802 30.8802C25.0702 30.4402 23.0902 30.1602 21.1002 30.0502C21.0702 30.0502 21.0402 30.0502 21.0102 30.0502C20.3402 30.0102 19.6402 29.9902 18.8602 29.9902H18.8102C17.9202 29.9902 17.0602 30.0202 16.2202 30.0802H16.1702C14.1102 30.2302 12.1302 30.5402 10.2702 30.9902C10.2402 31.0002 10.2002 31.0102 10.1702 31.0202C9.31023 31.2302 8.54023 31.4602 7.85023 31.7002C7.84023 31.7002 7.82023 31.7002 7.80023 31.7102C7.04023 31.9602 6.32023 32.2202 5.67023 32.5102C4.08023 33.1702 2.86023 33.8702 1.99023 34.4302H35.6902C34.7902 33.8502 33.4902 33.1202 31.8202 32.4302C31.7702 32.4202 31.7402 32.4002 31.7002 32.3802H31.7202Z" fill="#006A4E"/>
<path d="M19.19 22.5002C19.19 22.5002 19.17 22.5602 19.19 22.5802C19.21 22.6002 19.23 22.6002 19.25 22.6002C23.49 21.5002 24.69 18.7302 25.01 17.5602C25.01 17.5302 25 17.5002 24.97 17.4902C24.94 17.4902 24.91 17.4902 24.9 17.5202C24.32 18.6602 23.3 19.7402 22.08 20.3702C20.81 21.0202 19.61 22.1102 19.19 22.5102V22.5002Z" fill="#009257"/>
<path d="M21.0702 25.3401C18.8302 26.1401 18.7102 28.2901 18.7502 29.1101C18.7502 29.1501 18.7902 29.1801 18.8302 29.1801C18.8602 29.1801 18.8802 29.1601 18.8902 29.1301C19.1502 28.4301 19.9002 26.7001 21.1402 25.4501C21.1702 25.4201 21.1702 25.3801 21.1402 25.3501C21.1202 25.3301 21.0902 25.3301 21.0702 25.3301V25.3401Z" fill="#009257"/>
<path d="M19.1703 20.8002C18.3503 18.5702 16.2003 18.4702 15.3703 18.5202C15.3303 18.5202 15.3003 18.5602 15.3003 18.6002C15.3003 18.6302 15.3203 18.6502 15.3503 18.6602C16.0503 18.9202 17.7903 19.6402 19.0503 20.8802C19.0803 20.9102 19.1203 20.9102 19.1503 20.8802C19.1703 20.8602 19.1703 20.8302 19.1603 20.8102L19.1703 20.8002Z" fill="#009257"/>
<path d="M26.3001 22.5901C26.5501 20.8901 25.2101 20.0702 24.6701 19.8202C24.6401 19.8102 24.6101 19.8202 24.6001 19.8502C24.6001 19.8702 24.6001 19.8902 24.6001 19.9102C24.9601 20.3202 25.8101 21.3801 26.1901 22.6101C26.1901 22.6401 26.2301 22.6501 26.2601 22.6401C26.2801 22.6401 26.2901 22.6202 26.2901 22.6002L26.3001 22.5901Z" fill="#009257"/>
<path d="M11.6 24.8705C10.77 23.3605 9.22 23.5205 8.63 23.6505C8.6 23.6505 8.58 23.6805 8.59 23.7105C8.59 23.7305 8.61 23.7505 8.63 23.7505C9.16 23.8605 10.49 24.1905 11.53 24.9405C11.55 24.9605 11.59 24.9505 11.6 24.9305C11.61 24.9105 11.61 24.8905 11.6 24.8805V24.8705Z" fill="#009257"/>
<path d="M10.8701 22.5406C10.8701 22.5406 10.8701 22.5806 10.8901 22.5906C10.9101 22.5906 10.9301 22.5906 10.9401 22.5906C14.0701 21.2306 14.3701 19.2406 14.3501 18.4306C14.3501 18.4106 14.3301 18.3906 14.3001 18.3906C14.2801 18.3906 14.2601 18.4006 14.2501 18.4206C14.0601 19.2506 13.5001 20.1106 12.6701 20.7106C11.8101 21.3306 11.1101 22.2206 10.8701 22.5406Z" fill="#009257"/>
<path d="M18.7803 16.3209C18.7803 16.3209 18.7803 16.3609 18.8003 16.3709C18.8203 16.3709 18.8403 16.3709 18.8503 16.3709C21.9803 15.0109 22.2803 13.0209 22.2603 12.2109C22.2603 12.1909 22.2403 12.1709 22.2103 12.1709C22.1903 12.1709 22.1703 12.1809 22.1603 12.2009C21.9703 13.0309 21.4103 13.8909 20.5803 14.4909C19.7203 15.1109 19.0203 16.0009 18.7803 16.3209Z" fill="#009257"/>
<path d="M26.1901 23.7607C26.1901 23.7607 26.1501 23.8307 26.1801 23.8607C26.2001 23.8807 26.2201 23.8907 26.2501 23.8907C31.6301 22.9907 33.4901 19.6807 34.0401 18.2607C34.0501 18.2207 34.0401 18.1807 34.0001 18.1707C33.9701 18.1607 33.9301 18.1707 33.9101 18.2007C33.0401 19.5507 31.6401 20.7807 30.0401 21.4307C28.3901 22.1007 26.7601 23.3207 26.1901 23.7607Z" fill="#009257"/>
<path d="M14.5302 25.0208C14.5302 25.0208 14.5402 24.9507 14.5102 24.9307C14.4902 24.9107 14.4602 24.9207 14.4302 24.9307C13.8802 25.3307 12.7302 26.3507 12.4402 27.8907C12.4002 27.6707 12.3602 27.4407 12.3202 27.2207L12.1402 26.3607C11.5902 23.8007 10.9202 21.7107 10.2302 19.7607L9.93021 19.8907C10.7702 22.2407 11.5702 24.8207 12.1602 28.1707C11.1402 26.4707 8.53021 25.3608 6.79021 25.3508C6.75021 25.3508 6.72021 25.3807 6.72021 25.4207C6.72021 25.4507 6.74021 25.4707 6.76021 25.4807C7.70021 25.8907 10.8202 27.3607 12.2302 29.2207C12.3102 29.3307 12.3602 29.4507 12.3802 29.5907C12.3902 29.6807 12.4102 29.7707 12.4202 29.8607C12.4202 29.9507 12.5102 30.0107 12.6002 30.0107C12.6102 30.0107 12.6202 30.0107 12.6302 30.0107C12.6402 30.0107 12.6502 29.9908 12.6602 29.9908C12.7102 29.9608 12.7502 29.9007 12.7402 29.8407C12.7402 29.8107 12.7302 29.7808 12.7202 29.7408C12.9002 27.7408 14.0402 25.7507 14.5102 25.0307L14.5302 25.0208Z" fill="#009257"/>
<path d="M18.8001 13.5605H18.4401C18.4401 13.5605 18.4401 13.5906 18.4501 13.6006C18.6001 16.2806 19.2101 23.7205 18.7901 27.3705C18.2701 25.3505 15.9501 23.4806 14.1901 22.9706C14.1501 22.9606 14.1101 22.9806 14.1001 23.0206C14.1001 23.0506 14.1001 23.0705 14.1201 23.0905C14.9501 23.7805 17.6701 26.1606 18.5501 28.4606C18.6001 28.5906 18.6201 28.7406 18.6001 28.8806C18.5901 28.9806 18.5701 29.0705 18.5601 29.1705C18.5401 29.2605 18.6001 29.3505 18.7001 29.3705C18.7101 29.3705 18.7201 29.3705 18.7401 29.3705C18.8301 29.3705 18.9001 29.3105 18.9101 29.2305C19.0501 28.2605 19.1701 27.3406 19.2501 26.4606L19.3301 25.5305C19.5501 22.7005 18.9301 15.7906 18.8101 13.5706L18.8001 13.5605Z" fill="#009257"/>
<path d="M25.62 26.5504C26.37 23.9604 26.9201 20.8804 27.2401 18.7904C27.2401 18.7604 27.27 18.7304 27.28 18.7004L26.9001 18.6504C26.9001 18.6504 26.9201 18.7204 26.91 18.7604C26.53 21.2804 25.8701 24.8504 24.7701 28.1704C24.6801 26.2004 22.8901 24.0204 21.3401 23.2304C21.3101 23.2104 21.26 23.2304 21.25 23.2604C21.24 23.2804 21.25 23.3104 21.25 23.3304C21.89 24.1204 23.9601 26.8404 24.3301 29.1404C24.3501 29.2704 24.3301 29.4104 24.2901 29.5404C24.2601 29.6304 24.23 29.7104 24.19 29.8004C24.15 29.8804 24.19 29.9804 24.28 30.0104C24.29 30.0104 24.3001 30.0104 24.3101 30.0104C24.3901 30.0304 24.47 29.9804 24.5 29.9104C24.82 29.0304 25.1101 28.2004 25.3601 27.3904C26.7701 26.0404 27.6801 25.7604 29.4901 24.9704C29.5301 24.9604 29.54 24.9204 29.53 24.8804C29.52 24.8504 29.49 24.8304 29.46 24.8404C28.77 24.7904 26.8201 24.8304 25.6101 26.5404L25.62 26.5504Z" fill="#009257"/>
<path d="M8.12014 17.6307C7.61014 18.3707 6.94014 19.3607 7.27014 20.8007C7.27014 20.8407 7.25014 20.8807 7.20014 20.8807C7.17014 20.8807 7.14014 20.8607 7.13014 20.8307C6.79014 19.3507 7.26014 18.0807 7.70014 17.2807C8.05014 16.6607 8.23014 16.2707 8.43014 16.0607C7.86014 16.1307 7.48014 16.2307 6.98014 16.5107C5.86014 17.1307 5.37014 18.1807 5.33014 19.4607C5.29014 20.7807 5.73014 21.7707 6.64014 22.4107C7.78014 23.2107 9.28014 23.1707 9.66014 23.0207C9.89014 22.9307 9.86014 22.7507 9.75014 22.3507C9.63014 21.8807 9.45014 21.1907 9.92014 20.3507C10.0801 20.0307 11.3501 18.9607 10.0101 16.7607C9.86014 16.5207 9.75014 16.3707 9.74014 16.3707C9.72014 16.3407 9.72014 16.3007 9.74014 16.2707C9.77014 16.2507 9.81014 16.2507 9.84014 16.2707C9.84014 16.2707 12.9401 15.3507 14.8101 16.7707C14.8401 16.7907 14.8501 16.8407 14.8201 16.8607C14.8001 16.8907 14.7501 16.9007 14.7301 16.8707C12.9301 15.5107 10.8501 16.3707 10.1601 16.7307C10.3101 16.9807 10.4901 17.3407 10.6101 17.7507C11.4901 17.9207 12.8901 18.1207 14.6101 18.0807C15.4301 18.0607 15.9001 17.9007 16.0201 17.5807C16.2901 16.8707 14.7901 15.5207 14.3101 15.0707C12.9801 13.8607 11.1801 14.0207 10.3501 15.6107C10.3301 15.6407 10.2901 15.6607 10.2601 15.6407C10.2301 15.6207 10.2101 15.5807 10.2301 15.5507C10.6901 14.6807 11.4601 14.1707 12.3601 14.1407C12.7301 13.5507 13.4101 12.6907 14.5601 11.8707C14.8601 11.6607 15.0001 11.4407 14.9601 11.2407C14.9101 10.9907 14.5801 10.7807 14.1101 10.6707C12.9201 10.4207 11.1201 10.8707 9.96014 12.4807C9.96014 12.4807 9.58014 12.9707 9.28014 13.7607C9.27014 13.8007 9.23014 13.8107 9.19014 13.8007C9.16014 13.7907 9.14014 13.7507 9.15014 13.7107C9.33014 13.2407 9.56014 12.8107 9.83014 12.4307C9.63014 11.5907 9.06014 10.4207 7.51014 9.56067C6.94014 9.24067 6.48014 9.18067 6.14014 9.39067C5.68014 9.67067 5.44014 10.4507 5.48014 11.5807C5.89014 12.0907 6.15014 12.6907 6.16014 12.7307C6.22014 12.8907 6.23014 13.0307 6.21014 13.1307C6.96014 14.2707 7.40014 15.5307 7.57014 16.0807C7.74014 16.0207 7.91014 15.9707 8.09014 15.9407C8.06014 14.6307 7.92014 13.4207 7.81014 12.6307C7.70014 12.5607 7.60014 12.4407 7.54014 12.2707C6.81014 10.1107 7.04014 9.94068 7.12014 9.88068C7.24014 9.79068 7.40014 9.92068 7.45014 9.96068C8.21014 10.5407 8.41014 12.0407 8.41014 12.1007C8.42014 12.2707 8.40014 12.4107 8.35014 12.5007C8.72014 13.9207 8.83014 15.1707 8.86014 15.8307C9.10014 15.8107 9.25014 15.8307 9.25014 15.8307C9.29014 15.8307 9.32014 15.8607 9.31014 15.9007C9.30014 15.9407 9.28014 15.9707 9.24014 15.9607M10.0601 14.9607C10.0601 14.9607 10.0201 15.0107 10.0001 15.0107C9.95014 15.0107 9.55014 14.5507 9.57014 14.5107C9.57014 14.4907 9.91014 14.1007 10.4001 13.4107C10.8501 12.7707 11.8901 12.1307 13.1501 11.6207C13.1801 11.6107 13.2201 11.6207 13.2401 11.6607C13.2501 11.6907 13.2401 11.7307 13.2001 11.7507C10.8401 12.7107 10.0701 14.9507 10.0601 14.9707V14.9607Z" fill="#783FAA"/>
<path d="M5.83031 13.441C6.22031 14.211 6.71031 15.301 6.99031 16.341C7.15031 16.261 7.28031 16.201 7.44031 16.141C7.27031 15.611 6.85031 14.411 6.14031 13.291C6.07031 13.391 5.96031 13.441 5.82031 13.441H5.83031Z" fill="#009257"/>
<path d="M5.95016 17.1704C5.36016 17.0704 4.25016 16.8404 2.44016 18.0204C2.41016 18.0404 2.37016 18.0304 2.35016 18.0004C2.33016 17.9704 2.34016 17.9304 2.37016 17.9104C4.32016 16.6304 5.94016 16.5804 6.48016 16.6904C6.66016 16.5304 6.66016 16.5304 6.87016 16.4104C6.81016 16.2004 6.75016 15.9804 6.67016 15.7704C6.55016 15.6304 4.92016 13.6904 2.39016 13.4504C2.35016 13.4504 2.33016 13.4104 2.33016 13.3804C2.33016 13.3404 2.37016 13.3204 2.40016 13.3204C3.99016 13.4704 5.20016 13.6804 6.26016 14.7904C5.98016 14.0304 5.93016 13.9604 5.65016 13.4104C5.55016 13.3604 5.45016 13.2804 5.36016 13.1504C5.21016 12.9304 5.09016 12.7404 4.97016 12.5604C3.57016 12.1404 2.58016 12.2604 2.00016 12.4404C0.620156 12.8604 0.170157 14.0204 1.35016 14.3804C2.38016 14.6904 3.14016 15.1704 3.62016 15.5204C4.45016 15.3204 5.34016 15.3904 6.25016 15.7204C6.29016 15.7304 6.30016 15.7704 6.29016 15.8104C6.28016 15.8504 6.24016 15.8604 6.20016 15.8504C4.50016 15.2304 2.92016 15.5504 1.60016 16.8404C0.580157 17.8404 0.210156 18.7804 0.630156 19.3004C1.16016 19.9704 2.96016 19.8504 5.36016 18.3204C5.52016 17.7804 5.94016 17.1704 5.94016 17.1704H5.95016Z" fill="#783FAA"/>
<path d="M5.48037 13.0606C5.76037 13.4706 6.25037 13.3406 6.04037 12.7906C6.02037 12.7406 5.44037 11.3906 4.62037 11.0606C4.58037 11.0406 4.46037 11.0006 4.44037 11.0406C4.38037 11.1106 4.48037 11.4906 5.09037 12.4706C5.12037 12.5306 5.29037 12.7906 5.48037 13.0706V13.0606Z" fill="#009257"/>
<path d="M8.29016 12.1205C8.29016 12.0705 8.08016 10.6105 7.38016 10.0705C7.35016 10.0405 7.24016 9.97048 7.21016 10.0005C7.12016 10.0605 7.12016 10.6005 7.68016 12.2305C7.84016 12.7005 8.34016 12.7105 8.29016 12.1205Z" fill="#009257"/>
<path d="M8.74021 15.8506C8.71021 15.2106 8.61021 14.0106 8.26021 12.6406C8.18021 12.7006 8.08021 12.7306 7.97021 12.7006C8.08021 13.4906 8.21021 14.6506 8.24021 15.9206C8.41021 15.8906 8.57021 15.8606 8.74021 15.8506Z" fill="#009257"/>
<path d="M18.2505 8.39044C17.7405 9.13044 17.0705 10.1204 17.4005 11.5604C17.4005 11.6004 17.3805 11.6404 17.3305 11.6404C17.3005 11.6404 17.2705 11.6204 17.2605 11.5904C16.9205 10.1104 17.3905 8.84043 17.8305 8.04043C18.1805 7.42043 18.3605 7.03045 18.5605 6.82045C17.9905 6.89045 17.6105 6.99044 17.1105 7.27044C15.9905 7.89044 15.5005 8.94044 15.4605 10.2204C15.4205 11.5404 15.8605 12.5304 16.7705 13.1704C17.9105 13.9704 19.4105 13.9304 19.7905 13.7804C20.0205 13.6904 19.9905 13.5104 19.8805 13.1104C19.7605 12.6404 19.5805 11.9504 20.0505 11.1104C20.2105 10.7904 21.4805 9.72044 20.1405 7.52044C19.9905 7.28044 19.8805 7.13044 19.8705 7.13044C19.8505 7.10044 19.8505 7.06044 19.8705 7.03044C19.9005 7.01044 19.9405 7.01044 19.9705 7.03044C19.9705 7.03044 23.0705 6.11044 24.9405 7.53044C24.9705 7.55044 24.9805 7.60043 24.9505 7.62043C24.9305 7.65043 24.8805 7.66044 24.8605 7.63044C23.0605 6.27044 20.9805 7.13045 20.2905 7.49045C20.4405 7.74045 20.6205 8.10043 20.7405 8.51043C21.6205 8.68043 23.0205 8.88044 24.7405 8.84044C25.5605 8.82044 26.0305 8.66044 26.1505 8.34044C26.4205 7.63044 24.9205 6.28044 24.4405 5.83044C23.1105 4.62044 21.3105 4.78043 20.4805 6.37043C20.4605 6.40043 20.4205 6.42043 20.3905 6.40043C20.3605 6.38043 20.3405 6.34044 20.3605 6.31044C20.8205 5.44044 21.5905 4.93043 22.4905 4.90043C22.8605 4.31043 23.5405 3.45044 24.6905 2.63044C24.9905 2.42044 25.1305 2.20044 25.0905 2.00044C25.0405 1.75044 24.7105 1.54043 24.2405 1.43043C23.0505 1.18043 21.2505 1.63045 20.0905 3.24045C20.0905 3.24045 19.7105 3.73044 19.4105 4.52044C19.4005 4.56044 19.3605 4.57044 19.3205 4.56044C19.2905 4.55044 19.2705 4.51044 19.2805 4.47044C19.4605 4.00044 19.6905 3.57044 19.9605 3.19044C19.7605 2.35044 19.1905 1.18045 17.6405 0.320447C17.0705 0.000447184 16.6105 -0.0595662 16.2705 0.150434C15.8105 0.430434 15.5705 1.21044 15.6105 2.34044C16.0205 2.85044 16.2805 3.45045 16.2905 3.49045C16.3505 3.65045 16.3605 3.79044 16.3405 3.89044C17.0905 5.03044 17.5305 6.29044 17.7005 6.84044C17.8705 6.78044 18.0405 6.73044 18.2205 6.70044C18.1905 5.39044 18.0505 4.18044 17.9405 3.39044C17.8305 3.32044 17.7305 3.20044 17.6705 3.03044C16.9405 0.870439 17.1705 0.700439 17.2505 0.640439C17.3705 0.550439 17.5305 0.680441 17.5805 0.720441C18.3405 1.30044 18.5405 2.80044 18.5405 2.86044C18.5505 3.03044 18.5305 3.17043 18.4805 3.26043C18.8505 4.68043 18.9605 5.93044 18.9905 6.59044C19.2305 6.57044 19.3805 6.59044 19.3805 6.59044C19.4205 6.59044 19.4505 6.62044 19.4405 6.66044C19.4305 6.70044 19.4105 6.73044 19.3705 6.72044M20.1905 5.72044C20.1905 5.72044 20.1505 5.77044 20.1305 5.77044C20.0805 5.77044 19.6805 5.31044 19.7005 5.27044C19.7005 5.25044 20.0405 4.86044 20.5305 4.17044C20.9805 3.53044 22.0205 2.89044 23.2805 2.38044C23.3105 2.37044 23.3505 2.38044 23.3705 2.42044C23.3805 2.45044 23.3705 2.49043 23.3305 2.51043C20.9705 3.47043 20.2005 5.71044 20.1905 5.73044V5.72044Z" fill="#783FAA"/>
<path d="M15.9602 4.20078C16.3502 4.97078 16.8402 6.06078 17.1202 7.10078C17.2802 7.02078 17.4102 6.96077 17.5702 6.90077C17.4002 6.37077 16.9802 5.17078 16.2702 4.05078C16.2002 4.15078 16.0902 4.20078 15.9502 4.20078H15.9602Z" fill="#009257"/>
<path d="M16.0703 7.93015C15.4803 7.83015 14.3703 7.60015 12.5603 8.78015C12.5303 8.80015 12.4903 8.79015 12.4703 8.76015C12.4503 8.73015 12.4603 8.69015 12.4903 8.67015C14.4403 7.39015 16.0603 7.34015 16.6003 7.45015C16.7803 7.29015 16.7803 7.29015 16.9903 7.17015C16.9303 6.96015 16.8703 6.74015 16.7903 6.53015C16.6703 6.39015 15.0403 4.45016 12.5103 4.21016C12.4703 4.21016 12.4503 4.17015 12.4503 4.14015C12.4503 4.10015 12.4903 4.08016 12.5203 4.08016C14.1103 4.23016 15.3203 4.44016 16.3803 5.55016C16.1003 4.79016 16.0503 4.72015 15.7703 4.17015C15.6703 4.12015 15.5703 4.04016 15.4803 3.91016C15.3303 3.69016 15.2103 3.50016 15.0903 3.32016C13.6903 2.90016 12.7003 3.02015 12.1203 3.20015C10.7403 3.62015 10.2903 4.78015 11.4703 5.14015C12.5003 5.45015 13.2603 5.93015 13.7403 6.28015C14.5703 6.08015 15.4603 6.15015 16.3703 6.48015C16.4103 6.49015 16.4203 6.53016 16.4103 6.57016C16.4003 6.61016 16.3603 6.62015 16.3203 6.61015C14.6203 5.99015 13.0403 6.31016 11.7203 7.60016C10.7003 8.60016 10.3303 9.54015 10.7503 10.0602C11.2803 10.7302 13.0803 10.6102 15.4803 9.08016C15.6403 8.54016 16.0603 7.93015 16.0603 7.93015H16.0703Z" fill="#783FAA"/>
<path d="M15.6103 3.83009C15.8903 4.24009 16.3803 4.11008 16.1703 3.56008C16.1503 3.51008 15.5703 2.16009 14.7503 1.83009C14.7103 1.81009 14.5903 1.77008 14.5703 1.81008C14.5103 1.88008 14.6103 2.26009 15.2203 3.24009C15.2503 3.30009 15.4203 3.56008 15.6103 3.84008V3.83009Z" fill="#009257"/>
<path d="M18.42 2.88026C18.42 2.83026 18.21 1.37025 17.51 0.830254C17.48 0.800254 17.37 0.730247 17.34 0.760247C17.25 0.820247 17.25 1.36026 17.81 2.99026C17.97 3.46026 18.47 3.47026 18.42 2.88026Z" fill="#009257"/>
<path d="M18.8603 6.6104C18.8303 5.9704 18.7303 4.77039 18.3803 3.40039C18.3003 3.46039 18.2003 3.4904 18.0903 3.4604C18.2003 4.2504 18.3303 5.41039 18.3603 6.68039C18.5303 6.65039 18.6903 6.6204 18.8603 6.6104Z" fill="#009257"/>
<path d="M29.1802 15.2508C28.6702 15.9908 28.0002 16.9808 28.3302 18.4208C28.3302 18.4608 28.3102 18.5008 28.2602 18.5008C28.2302 18.5008 28.2002 18.4808 28.1902 18.4508C27.8502 16.9708 28.3202 15.7008 28.7602 14.9008C29.1102 14.2808 29.2902 13.8908 29.4902 13.6808C28.9202 13.7508 28.5402 13.8508 28.0402 14.1308C26.9202 14.7508 26.4302 15.8008 26.3902 17.0808C26.3502 18.4008 26.7902 19.3908 27.7002 20.0308C28.8402 20.8308 30.3402 20.7908 30.7202 20.6408C30.9502 20.5508 30.9202 20.3708 30.8102 19.9708C30.6902 19.5008 30.5102 18.8108 30.9802 17.9708C31.1402 17.6508 32.4102 16.5808 31.0702 14.3808C30.9202 14.1408 30.8102 13.9908 30.8002 13.9908C30.7802 13.9608 30.7802 13.9208 30.8002 13.8908C30.8302 13.8708 30.8702 13.8708 30.9002 13.8908C30.9002 13.8908 34.0002 12.9708 35.8702 14.3908C35.9002 14.4108 35.9102 14.4608 35.8802 14.4808C35.8602 14.5108 35.8102 14.5208 35.7902 14.4908C33.9902 13.1308 31.9102 13.9908 31.2202 14.3508C31.3702 14.6008 31.5502 14.9608 31.6702 15.3708C32.5502 15.5408 33.9502 15.7408 35.6702 15.7008C36.4902 15.6808 36.9602 15.5208 37.0802 15.2008C37.3502 14.4908 35.8502 13.1408 35.3702 12.6908C34.0402 11.4808 32.2402 11.6408 31.4102 13.2308C31.3902 13.2608 31.3502 13.2808 31.3202 13.2608C31.2902 13.2408 31.2702 13.2008 31.2902 13.1708C31.7502 12.3008 32.5202 11.7908 33.4202 11.7608C33.7902 11.1708 34.4702 10.3108 35.6202 9.4908C35.9202 9.2808 36.0602 9.0608 36.0202 8.8608C35.9702 8.6108 35.6402 8.40079 35.1702 8.29079C33.9802 8.04079 32.1802 8.4908 31.0202 10.1008C31.0202 10.1008 30.6402 10.5908 30.3402 11.3808C30.3302 11.4208 30.2902 11.4308 30.2502 11.4208C30.2202 11.4108 30.2002 11.3708 30.2102 11.3308C30.3902 10.8608 30.6202 10.4308 30.8902 10.0508C30.6902 9.2108 30.1202 8.04079 28.5702 7.18079C28.0002 6.86079 27.5402 6.80079 27.2002 7.01079C26.7402 7.29079 26.5002 8.07079 26.5402 9.20079C26.9502 9.71079 27.2102 10.3108 27.2202 10.3508C27.2802 10.5108 27.2902 10.6508 27.2702 10.7508C28.0202 11.8908 28.4602 13.1508 28.6302 13.7008C28.8002 13.6408 28.9702 13.5908 29.1502 13.5608C29.1202 12.2508 28.9802 11.0408 28.8702 10.2508C28.7602 10.1808 28.6602 10.0608 28.6002 9.8908C27.8702 7.7308 28.1002 7.5608 28.1802 7.5008C28.3002 7.4108 28.4602 7.5408 28.5102 7.5808C29.2702 8.1608 29.4702 9.6608 29.4702 9.7208C29.4802 9.8908 29.4602 10.0308 29.4102 10.1208C29.7802 11.5408 29.8902 12.7908 29.9202 13.4508C30.1602 13.4308 30.3102 13.4508 30.3102 13.4508C30.3502 13.4508 30.3802 13.4808 30.3702 13.5208C30.3602 13.5608 30.3402 13.5908 30.3002 13.5808M31.1302 12.5708C31.1302 12.5708 31.0902 12.6208 31.0702 12.6208C31.0202 12.6208 30.6202 12.1608 30.6402 12.1208C30.6402 12.1008 30.9802 11.7108 31.4702 11.0208C31.9202 10.3808 32.9602 9.74079 34.2202 9.23079C34.2502 9.22079 34.2902 9.2308 34.3102 9.2708C34.3202 9.3008 34.3102 9.3408 34.2702 9.3608C31.9102 10.3208 31.1402 12.5608 31.1302 12.5808V12.5708Z" fill="#783FAA"/>
<path d="M26.9001 11.0504C27.2901 11.8204 27.7801 12.9104 28.0601 13.9504C28.2201 13.8704 28.3501 13.8104 28.5101 13.7504C28.3401 13.2204 27.9201 12.0204 27.2101 10.9004C27.1401 11.0004 27.0301 11.0504 26.8901 11.0504H26.9001Z" fill="#009257"/>
<path d="M27.0102 14.7807C26.4202 14.6807 25.3102 14.4507 23.5002 15.6307C23.4702 15.6507 23.4302 15.6407 23.4102 15.6107C23.3902 15.5807 23.4002 15.5407 23.4302 15.5207C25.3802 14.2407 27.0002 14.1907 27.5402 14.3007C27.7202 14.1407 27.7202 14.1407 27.9302 14.0207C27.8702 13.8107 27.8102 13.5907 27.7302 13.3807C27.6102 13.2407 25.9802 11.3007 23.4502 11.0607C23.4102 11.0607 23.3902 11.0207 23.3902 10.9907C23.3902 10.9507 23.4302 10.9307 23.4602 10.9307C25.0502 11.0807 26.2602 11.2907 27.3202 12.4007C27.0402 11.6407 26.9902 11.5707 26.7102 11.0207C26.6102 10.9707 26.5102 10.8907 26.4202 10.7607C26.2702 10.5407 26.1502 10.3507 26.0302 10.1707C24.6302 9.75074 23.6402 9.87074 23.0602 10.0507C21.6802 10.4707 21.2302 11.6307 22.4102 11.9907C23.4402 12.3007 24.2002 12.7807 24.6802 13.1307C25.5102 12.9307 26.4002 13.0007 27.3102 13.3307C27.3502 13.3407 27.3602 13.3807 27.3502 13.4207C27.3402 13.4607 27.3002 13.4707 27.2602 13.4607C25.5602 12.8407 23.9802 13.1607 22.6602 14.4507C21.6402 15.4507 21.2702 16.3907 21.6902 16.9107C22.2202 17.5807 24.0202 17.4607 26.4202 15.9307C26.5802 15.3907 27.0002 14.7807 27.0002 14.7807H27.0102Z" fill="#783FAA"/>
<path d="M26.5404 10.6807C26.8204 11.0907 27.3104 10.9607 27.1004 10.4107C27.0804 10.3607 26.5004 9.01066 25.6804 8.68066C25.6404 8.66066 25.5204 8.62067 25.5004 8.66067C25.4404 8.73067 25.5404 9.11066 26.1504 10.0907C26.1804 10.1507 26.3504 10.4107 26.5404 10.6907V10.6807Z" fill="#009257"/>
<path d="M29.36 9.74061C29.36 9.69061 29.15 8.23061 28.45 7.69061C28.42 7.66061 28.31 7.5906 28.28 7.6206C28.19 7.6806 28.19 8.22061 28.75 9.85061C28.91 10.3206 29.41 10.3306 29.36 9.74061Z" fill="#009257"/>
<path d="M29.8003 13.4707C29.7703 12.8307 29.6703 11.6307 29.3203 10.2607C29.2403 10.3207 29.1403 10.3508 29.0303 10.3208C29.1403 11.1108 29.2703 12.2707 29.3003 13.5407C29.4703 13.5107 29.6303 13.4807 29.8003 13.4707Z" fill="#009257"/>
</svg>
