<svg width="26" height="37" viewBox="0 0 26 37" fill="none" xmlns="http://www.w3.org/2000/svg">
<path d="M11.9713 17.5205L10.6113 19.4005H15.4413C14.9313 18.7205 14.4713 18.0905 14.0813 17.5205H11.9813H11.9713Z" fill="#009257"/>
<path d="M22.661 35.7705H21.2411C20.7311 32.2505 20.391 28.8905 20.161 25.6505L19.9911 25.4805C19.8211 25.2505 18.061 22.8605 16.291 20.4805H9.7511L6.0011 25.4805C5.9411 25.5405 5.94111 25.5905 5.89111 25.6505C5.66111 28.8905 5.32104 32.2405 4.81104 35.7705H3.67102C3.33102 35.7705 3.10107 36.0505 3.10107 36.3405C3.10107 36.6305 3.33102 36.9105 3.67102 36.9105H22.661C22.941 36.9105 23.2311 36.6305 23.2311 36.3405C23.2311 36.0505 23.001 35.7705 22.661 35.7705ZM15.951 35.7705H10.441V32.8105C10.441 31.2805 11.691 30.0805 13.171 30.0805C14.651 30.0805 15.9011 31.3305 15.9011 32.8105V35.7705H15.9611H15.951ZM16.691 26.7305C16.691 27.0705 16.4111 27.3005 16.1211 27.3005H10.2611C9.92111 27.3005 9.69104 27.0705 9.69104 26.7305V23.2605C9.69104 22.9805 9.92111 22.6905 10.2611 22.6905H16.1211C16.4011 22.6905 16.691 22.9705 16.691 23.2605V26.7305Z" fill="#009257"/>
<path d="M7.99091 11.3809L3.1009 15.3609C2.9309 15.5309 2.87085 15.7609 2.93085 15.9909C2.99085 16.2209 3.21086 16.3909 3.44086 16.3909H4.86091L9.18085 13.2609C9.18085 13.0909 9.12092 12.9209 9.12092 12.6909V12.2909L7.9809 11.3809H7.99091Z" fill="#009257"/>
<path d="M13.051 8.77051H13.451L14.0211 7.97051L13.3911 7.46051C13.1611 7.29051 12.8811 7.29051 12.6511 7.46051L12.0811 7.91051C12.4811 8.42051 12.7111 8.76051 12.7111 8.76051H13.051V8.77051Z" fill="#009257"/>
<path d="M21.2412 16.3807H22.6611C22.8911 16.3807 23.1111 16.2107 23.1711 15.9807C23.2811 15.7507 23.1712 15.5307 23.0012 15.3507L18.2811 11.4307L16.9712 12.4507V13.1907C17.8212 13.8207 19.5912 15.0707 21.2312 16.3707L21.2412 16.3807Z" fill="#009257"/>
<path d="M15.661 13.6007C15.771 13.3207 15.8311 12.9707 15.8311 12.6307C15.8311 12.4007 15.7711 12.1207 15.7211 11.8907L24.8211 5.07071C24.8811 5.01071 24.9311 5.01071 24.9911 4.96071L25.161 4.85071C25.271 4.79071 25.3311 4.68071 25.3311 4.57071C25.3911 4.40071 25.3911 4.23071 25.2711 4.06071C25.2111 4.00071 25.1611 4.00071 25.1011 3.95071L21.9711 0.770706C21.9311 0.730706 21.8944 0.694039 21.8611 0.660706C21.8611 0.660706 21.581 0.430706 21.291 0.600706C21.181 0.660706 21.1211 0.710706 21.0611 0.770706V0.830706L13.9011 10.0407C13.6211 9.93071 13.331 9.93071 13.051 9.93071C12.771 9.93071 12.5411 9.99071 12.3111 10.0407C7.19105 3.39071 5.66106 1.46071 5.32106 0.940706L5.21108 0.830706C5.21108 0.830706 5.21114 0.770706 5.15114 0.770706C5.09114 0.660706 4.98111 0.600706 4.87111 0.600706C4.64111 0.490706 4.4211 0.660706 4.3611 0.710706C4.2511 0.770706 4.19112 0.820706 4.13112 0.940706L1.06105 3.84071C1.00105 3.90071 0.951132 3.90071 0.891132 4.01071C0.721132 4.24071 0.721073 4.41071 0.831073 4.58071C0.891073 4.69071 0.941117 4.75071 1.00112 4.81071L1.1111 4.92071H1.17104C1.23104 4.98071 1.28108 4.98071 1.34108 5.03071L10.4411 11.8507C10.3311 12.1307 10.2711 12.4207 10.2711 12.7607C10.2711 13.1007 10.3311 13.4407 10.4411 13.7807C3.16106 19.1207 1.40105 20.4307 1.06105 20.6607C0.721053 20.8907 1.00112 20.7207 1.00112 20.7207C0.891117 20.8307 0.771136 20.9507 0.771136 21.1207C0.771136 21.2907 0.831058 21.4607 0.941058 21.5707L4.24111 24.9807C4.47111 25.2607 4.92108 25.2107 5.09108 24.9207L12.2011 15.3107C12.4811 15.4207 12.771 15.4207 13.051 15.4207C13.331 15.4207 13.6211 15.3607 13.8511 15.3107C15.1011 17.0207 20.5611 24.3507 20.9011 24.8007C21.0711 25.0807 21.4711 25.1407 21.7511 24.8607L25.161 21.5107C25.271 21.4007 25.3311 21.2307 25.3311 21.0607C25.3311 20.8907 25.2211 20.7207 25.1011 20.6607C25.0411 20.6007 16.291 14.0707 15.661 13.6107V13.6007Z" fill="#783FAA"/>
</svg>
