<svg width="29" height="30" viewBox="0 0 29 30" fill="none" xmlns="http://www.w3.org/2000/svg">
<path d="M14.4698 22.6195C8.50985 22.6195 3.66992 17.7695 3.66992 11.8195C3.66992 5.86953 8.51985 1.01953 14.4698 1.01953C20.4198 1.01953 25.2699 5.86953 25.2699 11.8195C25.2699 17.7695 20.4198 22.6195 14.4698 22.6195ZM14.4698 1.35953C8.69985 1.35953 4.00989 6.04953 4.00989 11.8195C4.00989 17.5895 8.69985 22.2795 14.4698 22.2795C20.2398 22.2795 24.9299 17.5895 24.9299 11.8195C24.9299 6.04953 20.2398 1.35953 14.4698 1.35953Z" fill="#009257"/>
<path d="M27.2599 12.5593C27.2599 12.1493 26.5599 11.8193 26.1499 11.8193C25.7399 11.8193 25.7799 12.1493 25.7799 12.5593C25.7799 12.9693 26.1099 13.2993 26.5199 13.2993C26.9299 13.2993 27.2599 12.9693 27.2599 12.5593Z" fill="#783FAA"/>
<path d="M25.2101 12.7295L24.6201 14.4195L28.4601 14.3595L27.8002 12.6895L25.2101 12.7295Z" fill="white"/>
<path d="M24.47 14.2988H28.5701V15.7688C28.5701 16.0688 28.33 16.3088 28.03 16.3088H25C24.7 16.3088 24.46 16.0688 24.46 15.7688V14.2988H24.47Z" fill="#783FAA"/>
<path d="M26.6299 12.8389H26.3999V14.2989H26.6299V12.8389Z" fill="#783FAA"/>
<path d="M24.6998 14.2989H24.4697L25.0698 12.8389H25.3098L24.6998 14.2989Z" fill="#783FAA"/>
<path d="M28.34 14.2989H28.5701L27.96 12.8389H27.73L28.34 14.2989Z" fill="#783FAA"/>
<path d="M27.9702 12.6094H25.0703V12.8494H27.9702V12.6094Z" fill="#783FAA"/>
<path d="M25.3802 12.499L25.0703 12.619H27.9702L27.6603 12.499H25.3802Z" fill="#783FAA"/>
<path d="M26.4001 14.4189H24.7002V16.0289H26.4001V14.4189Z" fill="#783FAA"/>
<path d="M28.3401 14.4189H26.6401V16.0289H28.3401V14.4189Z" fill="#783FAA"/>
<path d="M28.5698 14.2988H24.4697V14.6388H28.5698V14.2988Z" fill="#783FAA"/>
<path d="M1.67969 12.5593C1.67969 12.1493 2.37967 11.8193 2.78967 11.8193C3.19967 11.8193 3.15967 12.1493 3.15967 12.5593C3.15967 12.9693 2.82968 13.2993 2.41968 13.2993C2.00968 13.2993 1.67969 12.9693 1.67969 12.5593Z" fill="#783FAA"/>
<path d="M3.71973 12.7295L4.30981 14.4195L0.469727 14.3595L1.13977 12.6895L3.71973 12.7295Z" fill="white"/>
<path d="M3.92993 16.2988H0.899902C0.599902 16.2988 0.359985 16.0588 0.359985 15.7588V14.2888H4.45996V15.7588C4.45996 16.0588 4.21992 16.2988 3.91992 16.2988H3.92993Z" fill="#783FAA"/>
<path d="M2.2998 14.2891H2.52979V12.8291H2.2998V14.2891Z" fill="#783FAA"/>
<path d="M4.2301 14.2989H4.47009L3.86011 12.8389H3.62012L4.2301 14.2989Z" fill="#783FAA"/>
<path d="M0.599854 14.2989H0.359863L0.969849 12.8389H1.20984L0.599854 14.2989Z" fill="#783FAA"/>
<path d="M0.970093 12.8486H3.87012V12.6086H0.970093V12.8486Z" fill="#783FAA"/>
<path d="M3.56006 12.499L3.87 12.619H0.959961L1.27002 12.499H3.56006Z" fill="#783FAA"/>
<path d="M2.53979 16.0293H4.23975V14.4193H2.53979V16.0293Z" fill="#783FAA"/>
<path d="M0.589966 16.0293H2.29004V14.4193H0.589966L0.589966 16.0293Z" fill="#783FAA"/>
<path d="M0.369751 14.6289H4.46973V14.2889H0.369751V14.6289Z" fill="#783FAA"/>
<path d="M3.26953 6.64919C3.26953 6.23919 3.96952 5.90918 4.37952 5.90918C4.78952 5.90918 4.74951 6.23919 4.74951 6.64919C4.74951 7.05919 4.41952 7.38919 4.00952 7.38919C3.59952 7.38919 3.26953 7.05919 3.26953 6.64919Z" fill="#783FAA"/>
<path d="M5.30957 6.81929L5.89954 8.50929L2.05957 8.43929L2.71948 6.7793L5.30957 6.81929Z" fill="white"/>
<path d="M5.51978 10.3887H2.48975C2.18975 10.3887 1.94971 10.1487 1.94971 9.84866V8.37866H6.0498V9.84866C6.0498 10.1487 5.80977 10.3887 5.50977 10.3887H5.51978Z" fill="#783FAA"/>
<path d="M3.88965 8.37891H4.11963V6.9189H3.88965V8.37891Z" fill="#783FAA"/>
<path d="M5.82007 8.37871H6.06006L5.45007 6.92871H5.20996L5.82007 8.37871Z" fill="#783FAA"/>
<path d="M2.1897 8.37871H1.94971L2.55969 6.92871H2.78967L2.1897 8.37871Z" fill="#783FAA"/>
<path d="M2.55994 6.93848H5.45996V6.69849H2.55994V6.93848Z" fill="#783FAA"/>
<path d="M5.14978 6.58887L5.44983 6.70886H2.5498L2.85974 6.58887H5.14978Z" fill="#783FAA"/>
<path d="M4.11975 10.1084H5.81982V8.4984H4.11975V10.1084Z" fill="#783FAA"/>
<path d="M2.1897 10.1084H3.88965V8.4984H2.1897V10.1084Z" fill="#783FAA"/>
<path d="M1.95959 8.71875H6.05957V8.37875H1.95959V8.71875Z" fill="#783FAA"/>
<path d="M7.66992 2.37964C7.66992 1.96964 8.36991 1.63965 8.77991 1.63965C9.18991 1.63965 9.1499 1.96964 9.1499 2.37964C9.1499 2.78964 8.81991 3.11964 8.40991 3.11964C7.99991 3.11964 7.66992 2.78964 7.66992 2.37964Z" fill="#783FAA"/>
<path d="M9.70996 2.54976L10.3 4.23976L6.45996 4.16977L7.13 2.50977L9.70996 2.54976Z" fill="white"/>
<path d="M9.92017 6.11914H6.89014C6.59014 6.11914 6.35022 5.87913 6.35022 5.57913V4.10913H10.4502V5.57913C10.4502 5.87913 10.2102 6.11914 9.91016 6.11914H9.92017Z" fill="#783FAA"/>
<path d="M8.29004 4.11914H8.52002V2.65915H8.29004V4.11914Z" fill="#783FAA"/>
<path d="M10.2201 4.10941H10.4601L9.8501 2.64941H9.62012L10.2201 4.10941Z" fill="#783FAA"/>
<path d="M6.58984 4.10941H6.35986L6.95984 2.64941H7.19995L6.58984 4.10941Z" fill="#783FAA"/>
<path d="M6.95007 2.65918L9.8501 2.65918V2.41917L6.95007 2.41917V2.65918Z" fill="#783FAA"/>
<path d="M9.55005 2.31934L9.85999 2.43933H6.95996L7.26001 2.31934H9.55005Z" fill="#783FAA"/>
<path d="M8.53003 5.83887H10.23V4.22887H8.53003V5.83887Z" fill="#783FAA"/>
<path d="M6.58997 5.83887H8.29004V4.22887H6.58997V5.83887Z" fill="#783FAA"/>
<path d="M6.35022 4.44922L10.4502 4.44922V4.10921L6.35022 4.10921V4.44922Z" fill="#783FAA"/>
<path d="M3.30957 18.2195C3.30957 17.8095 4.00956 17.4795 4.41956 17.4795C4.82956 17.4795 4.78955 17.8095 4.78955 18.2195C4.78955 18.6295 4.45956 18.9595 4.04956 18.9595C3.63956 18.9595 3.30957 18.6295 3.30957 18.2195Z" fill="#783FAA"/>
<path d="M5.34961 18.3896L5.9397 20.0796L2.09961 20.0196L2.76965 18.3496L5.34961 18.3896Z" fill="white"/>
<path d="M5.55981 21.9688H2.52979C2.22979 21.9688 1.98987 21.7288 1.98987 21.4288V19.9588H6.08984V21.4288C6.08984 21.7288 5.8498 21.9688 5.5498 21.9688H5.55981Z" fill="#783FAA"/>
<path d="M3.92969 19.9492H4.15967V18.4892H3.92969V19.9492Z" fill="#783FAA"/>
<path d="M5.85999 19.949H6.09998L5.48999 18.499H5.25L5.85999 19.949Z" fill="#783FAA"/>
<path d="M2.22974 19.949H1.98975L2.59973 18.499H2.83972L2.22974 19.949Z" fill="#783FAA"/>
<path d="M2.58972 18.5088H5.48975V18.2688H2.58972V18.5088Z" fill="#783FAA"/>
<path d="M5.1897 18.1592L5.49963 18.2792H2.59961L2.89966 18.1592H5.1897Z" fill="#783FAA"/>
<path d="M4.16968 21.6895H5.86963V20.0795H4.16968V21.6895Z" fill="#783FAA"/>
<path d="M2.21985 21.6895H3.91992V20.0795H2.21985V21.6895Z" fill="#783FAA"/>
<path d="M1.99963 20.2891H6.09961V19.9491H1.99963V20.2891Z" fill="#783FAA"/>
<path d="M7.67969 22.5593C7.67969 22.1493 8.37967 21.8193 8.78967 21.8193C9.19967 21.8193 9.15967 22.1493 9.15967 22.5593C9.15967 22.9693 8.82968 23.2993 8.41968 23.2993C8.00968 23.2993 7.67969 22.9693 7.67969 22.5593Z" fill="#783FAA"/>
<path d="M9.71973 22.7295L10.3098 24.4195L6.46973 24.3595L7.13977 22.6895L9.71973 22.7295Z" fill="white"/>
<path d="M9.92993 26.2988H6.8999C6.5999 26.2988 6.35999 26.0588 6.35999 25.7588V24.2888H10.46V25.7588C10.46 26.0588 10.2199 26.2988 9.91992 26.2988H9.92993Z" fill="#783FAA"/>
<path d="M8.2998 24.2891H8.52979V22.8291H8.2998V24.2891Z" fill="#783FAA"/>
<path d="M10.2299 24.2889H10.4698L9.85986 22.8389H9.62988L10.2299 24.2889Z" fill="#783FAA"/>
<path d="M6.59961 24.2889H6.36963L6.9696 22.8389H7.20959L6.59961 24.2889Z" fill="#783FAA"/>
<path d="M6.95984 22.8486H9.85986V22.6086H6.95984V22.8486Z" fill="#783FAA"/>
<path d="M9.55981 22.499L9.86975 22.619H6.96973L7.26978 22.499H9.55981Z" fill="#783FAA"/>
<path d="M8.53979 26.0293H10.2397V24.4193H8.53979V26.0293Z" fill="#783FAA"/>
<path d="M6.59973 26.0293H8.2998V24.4193H6.59973V26.0293Z" fill="#783FAA"/>
<path d="M6.35999 24.6289H10.46V24.2889H6.35999V24.6289Z" fill="#783FAA"/>
<path d="M13.73 0.999756C13.73 0.589756 14.06 0.259766 14.47 0.259766C14.88 0.259766 15.21 0.589756 15.21 0.999756C15.21 1.40976 14.88 1.73976 14.47 1.73976C14.06 1.73976 13.73 1.40976 13.73 0.999756Z" fill="#783FAA"/>
<path d="M15.77 1.16989L16.36 2.85988L12.52 2.79988L13.1901 1.12988L15.77 1.16989Z" fill="white"/>
<path d="M15.9802 4.73926H12.9503C12.6503 4.73926 12.4103 4.49925 12.4103 4.19925V2.72926L16.5103 2.72926V4.19925C16.5103 4.49925 16.2703 4.73926 15.9703 4.73926H15.9802Z" fill="#783FAA"/>
<path d="M14.3501 2.73926H14.5801V1.27927H14.3501V2.73926Z" fill="#783FAA"/>
<path d="M16.2802 2.73929H16.5201L15.9102 1.2793H15.6802L16.2802 2.73929Z" fill="#783FAA"/>
<path d="M12.6499 2.73929H12.4199L13.0199 1.2793H13.2599L12.6499 2.73929Z" fill="#783FAA"/>
<path d="M13.0101 1.2998L15.9102 1.2998V1.0598L13.0101 1.0598V1.2998Z" fill="#783FAA"/>
<path d="M15.61 0.939453L15.92 1.06946H13.02L13.3201 0.939453H15.61Z" fill="#783FAA"/>
<path d="M14.59 4.46973H16.29V2.85973H14.59V4.46973Z" fill="#783FAA"/>
<path d="M12.6501 4.46973H14.3501V2.85973H12.6501V4.46973Z" fill="#783FAA"/>
<path d="M12.4103 3.06934L16.5103 3.06934V2.72934L12.4103 2.72934V3.06934Z" fill="#783FAA"/>
<path d="M13.73 23.9295C13.73 23.5195 14.06 23.1895 14.47 23.1895C14.88 23.1895 15.21 23.5195 15.21 23.9295C15.21 24.3395 14.88 24.6695 14.47 24.6695C14.06 24.6695 13.73 24.3395 13.73 23.9295Z" fill="#783FAA"/>
<path d="M15.77 24.0996L16.36 25.7896L12.52 25.7296L13.1901 24.0596L15.77 24.0996Z" fill="#783FAA"/>
<path d="M15.9802 27.6689H12.9503C12.6503 27.6689 12.4103 27.4289 12.4103 27.1289V25.6589H16.5103V27.1289C16.5103 27.4289 16.2703 27.6689 15.9703 27.6689H15.9802Z" fill="#783FAA"/>
<path d="M14.3501 25.6592H14.5801V24.1992H14.3501V25.6592Z" fill="#783FAA"/>
<path d="M16.2802 25.659H16.5201L15.9102 24.209H15.6802L16.2802 25.659Z" fill="#783FAA"/>
<path d="M12.6499 25.659H12.4199L13.0199 24.209H13.2599L12.6499 25.659Z" fill="#783FAA"/>
<path d="M13.0101 24.2188H15.9102V23.9788H13.0101V24.2188Z" fill="#783FAA"/>
<path d="M15.61 23.8691L15.92 23.9891H13.02L13.3201 23.8691H15.61Z" fill="#783FAA"/>
<path d="M14.59 27.3994H16.29V25.7894H14.59V27.3994Z" fill="#783FAA"/>
<path d="M12.6501 27.3994H14.3501V25.7894H12.6501V27.3994Z" fill="#783FAA"/>
<path d="M12.4103 25.999H16.5103V25.659H12.4103V25.999Z" fill="#783FAA"/>
<path d="M25.67 6.64919C25.67 6.23919 24.97 5.90918 24.56 5.90918C24.15 5.90918 24.19 6.23919 24.19 6.64919C24.19 7.05919 24.52 7.38919 24.93 7.38919C25.34 7.38919 25.67 7.05919 25.67 6.64919Z" fill="#783FAA"/>
<path d="M23.6202 6.81929L23.0303 8.50929L26.8702 8.43929L26.2102 6.7793L23.6202 6.81929Z" fill="white"/>
<path d="M22.8801 8.37891H26.9801V9.84891C26.9801 10.1489 26.7402 10.3889 26.4402 10.3889H23.4102C23.1102 10.3889 22.8701 10.1489 22.8701 9.84891V8.37891H22.8801Z" fill="#783FAA"/>
<path d="M25.04 6.92871H24.8101V8.38872H25.04V6.92871Z" fill="#783FAA"/>
<path d="M23.1099 8.37871H22.8799L23.4899 6.92871H23.7198L23.1099 8.37871Z" fill="#783FAA"/>
<path d="M26.7501 8.37871H26.9801L26.3701 6.92871H26.1401L26.7501 8.37871Z" fill="#783FAA"/>
<path d="M26.38 6.69922H23.48V6.93921H26.38V6.69922Z" fill="#783FAA"/>
<path d="M23.79 6.58887L23.48 6.70886H26.38L26.0701 6.58887H23.79Z" fill="#783FAA"/>
<path d="M24.8104 8.50879H23.1104V10.1188H24.8104V8.50879Z" fill="#783FAA"/>
<path d="M26.7502 8.50879H25.0503V10.1188H26.7502V8.50879Z" fill="#783FAA"/>
<path d="M26.9799 8.37891H22.8799V8.7189H26.9799V8.37891Z" fill="#783FAA"/>
<path d="M21.2599 2.37964C21.2599 1.96964 20.5599 1.63965 20.1499 1.63965C19.7399 1.63965 19.7799 1.96964 19.7799 2.37964C19.7799 2.78964 20.1099 3.11964 20.5199 3.11964C20.9299 3.11964 21.2599 2.78964 21.2599 2.37964Z" fill="#783FAA"/>
<path d="M19.2198 2.54976L18.6299 4.23976L22.4698 4.16977L21.8099 2.50977L19.2198 2.54976Z" fill="white"/>
<path d="M18.4797 4.10938H22.5797V5.57938C22.5797 5.87938 22.3398 6.11938 22.0398 6.11938H19.0098C18.7098 6.11938 18.4697 5.87938 18.4697 5.57938V4.10938H18.4797Z" fill="#783FAA"/>
<path d="M20.6396 2.64941H20.4097V4.10941H20.6396V2.64941Z" fill="#783FAA"/>
<path d="M18.7095 4.10941H18.4795L19.0795 2.64941H19.3196L18.7095 4.10941Z" fill="#783FAA"/>
<path d="M22.3397 4.10941H22.5797L21.9697 2.64941H21.7397L22.3397 4.10941Z" fill="#783FAA"/>
<path d="M21.9796 2.42969H19.0796V2.66969H21.9796V2.42969Z" fill="#783FAA"/>
<path d="M19.3796 2.31934L19.0796 2.43933H21.9796L21.6697 2.31934H19.3796Z" fill="#783FAA"/>
<path d="M20.41 4.23926H18.71V5.84926H20.41V4.23926Z" fill="#783FAA"/>
<path d="M22.3396 4.23926H20.6396V5.84926H22.3396V4.23926Z" fill="#783FAA"/>
<path d="M22.5795 4.10938H18.4795V4.44939H22.5795V4.10938Z" fill="#783FAA"/>
<path d="M25.63 18.2195C25.63 17.8095 24.93 17.4795 24.52 17.4795C24.11 17.4795 24.15 17.8095 24.15 18.2195C24.15 18.6295 24.48 18.9595 24.89 18.9595C25.3 18.9595 25.63 18.6295 25.63 18.2195Z" fill="#783FAA"/>
<path d="M23.5802 18.3896L22.9902 20.0796L26.8302 20.0196L26.1703 18.3496L23.5802 18.3896Z" fill="white"/>
<path d="M22.8401 19.9492H26.9402V21.4192C26.9402 21.7192 26.7001 21.9592 26.4001 21.9592H23.3701C23.0701 21.9592 22.8301 21.7192 22.8301 21.4192V19.9492H22.8401Z" fill="#783FAA"/>
<path d="M25 18.499H24.77V19.959H25V18.499Z" fill="#783FAA"/>
<path d="M23.0699 19.949H22.8398L23.4399 18.499H23.6799L23.0699 19.949Z" fill="#783FAA"/>
<path d="M26.7101 19.949H26.9402L26.3301 18.499H26.1001L26.7101 19.949Z" fill="#783FAA"/>
<path d="M26.3403 18.2695H23.4404V18.5095H26.3403V18.2695Z" fill="#783FAA"/>
<path d="M23.7504 18.1592L23.4404 18.2792H26.3403L26.0304 18.1592H23.7504Z" fill="#783FAA"/>
<path d="M24.7703 20.0791H23.0703V21.6891H24.7703V20.0791Z" fill="#783FAA"/>
<path d="M26.7102 20.0791H25.0103V21.6891H26.7102V20.0791Z" fill="#783FAA"/>
<path d="M26.9399 19.9492H22.8398V20.2892H26.9399V19.9492Z" fill="#783FAA"/>
<path d="M21.2501 22.5593C21.2501 22.1493 20.5501 21.8193 20.1401 21.8193C19.7301 21.8193 19.7701 22.1493 19.7701 22.5593C19.7701 22.9693 20.1001 23.2993 20.5101 23.2993C20.9201 23.2993 21.2501 22.9693 21.2501 22.5593Z" fill="#783FAA"/>
<path d="M19.2101 22.7295L18.6201 24.4195L22.4601 24.3595L21.8002 22.6895L19.2101 22.7295Z" fill="white"/>
<path d="M18.47 24.2891H22.5701V25.7591C22.5701 26.0591 22.33 26.2991 22.03 26.2991H19C18.7 26.2991 18.46 26.0591 18.46 25.7591V24.2891H18.47Z" fill="#783FAA"/>
<path d="M20.6299 22.8389H20.3999V24.2989H20.6299V22.8389Z" fill="#783FAA"/>
<path d="M18.6998 24.2889H18.4697L19.0698 22.8389H19.3098L18.6998 24.2889Z" fill="#783FAA"/>
<path d="M22.33 24.2889H22.5701L21.96 22.8389H21.73L22.33 24.2889Z" fill="#783FAA"/>
<path d="M21.9702 22.6094H19.0703V22.8494H21.9702V22.6094Z" fill="#783FAA"/>
<path d="M19.3702 22.499L19.0703 22.619H21.9702L21.6603 22.499H19.3702Z" fill="#783FAA"/>
<path d="M20.4001 24.4189H18.7002V26.0289H20.4001V24.4189Z" fill="#783FAA"/>
<path d="M22.3298 24.4189H20.6299V26.0289H22.3298V24.4189Z" fill="#783FAA"/>
<path d="M22.5698 24.2891H18.4697V24.6291H22.5698V24.2891Z" fill="#783FAA"/>
<path d="M15.2003 23.9295C15.2003 23.5195 14.8702 23.1895 14.4602 23.1895C14.0502 23.1895 13.7202 23.5195 13.7202 23.9295C13.7202 24.3395 14.0502 24.6695 14.4602 24.6695C14.8702 24.6695 15.2003 24.3395 15.2003 23.9295Z" fill="#783FAA"/>
<path d="M13.1603 24.0996L12.5703 25.7896L16.4103 25.7296L15.7502 24.0596L13.1603 24.0996Z" fill="white"/>
<path d="M12.4202 25.6592H16.5201V27.1292C16.5201 27.4292 16.2801 27.6692 15.9801 27.6692H12.9502C12.6502 27.6692 12.4102 27.4292 12.4102 27.1292V25.6592H12.4202Z" fill="#783FAA"/>
<path d="M14.5801 24.209H14.3501V25.669H14.5801V24.209Z" fill="#783FAA"/>
<path d="M12.6499 25.659H12.4199L13.0199 24.209H13.2599L12.6499 25.659Z" fill="#783FAA"/>
<path d="M16.2802 25.659H16.5201L15.9102 24.209H15.6802L16.2802 25.659Z" fill="#783FAA"/>
<path d="M15.92 23.9795H13.02V24.2195H15.92V23.9795Z" fill="#783FAA"/>
<path d="M13.3201 23.8691L13.02 23.9891H15.92L15.61 23.8691H13.3201Z" fill="#783FAA"/>
<path d="M14.3503 25.7891H12.6504V27.3991H14.3503V25.7891Z" fill="#783FAA"/>
<path d="M16.2802 25.7891H14.5801V27.3991H16.2802V25.7891Z" fill="#783FAA"/>
<path d="M16.5199 25.6592H12.4199V25.9992H16.5199V25.6592Z" fill="#783FAA"/>
<path d="M14.7001 0.40918H14.23V11.8192H14.7001V0.40918Z" fill="#783FAA"/>
<path d="M8.96999 1.83728L8.56299 2.07227L14.268 11.9536L14.675 11.7186L8.96999 1.83728Z" fill="#783FAA"/>
<path d="M4.71204 5.92405L4.47705 6.33105L14.3584 12.0361L14.5934 11.629L4.71204 5.92405Z" fill="#783FAA"/>
<path d="M14.47 11.5898H3.06006V12.0598H14.47V11.5898Z" fill="#783FAA"/>
<path d="M14.3774 11.6808L4.49609 17.3857L4.73109 17.7928L14.6124 12.0878L14.3774 11.6808Z" fill="#783FAA"/>
<path d="M14.3576 11.7768L8.65088 21.6572L9.05786 21.8923L14.7646 12.0119L14.3576 11.7768Z" fill="#783FAA"/>
<path d="M14.7001 11.8193H14.23V23.2293H14.7001V11.8193Z" fill="#783FAA"/>
<path d="M14.6664 11.7132L14.2593 11.9482L19.9643 21.8296L20.3714 21.5945L14.6664 11.7132Z" fill="#783FAA"/>
<path d="M14.5787 11.6184L14.3438 12.0254L24.2251 17.7304L24.4601 17.3234L14.5787 11.6184Z" fill="#783FAA"/>
<path d="M25.8798 11.5898H14.4697V12.0598H25.8798V11.5898Z" fill="#783FAA"/>
<path d="M24.2045 5.85582L14.3242 11.5625L14.5593 11.9695L24.4396 6.26281L24.2045 5.85582Z" fill="#783FAA"/>
<path d="M19.9194 1.7905L14.2144 11.6719L14.6214 11.9069L20.3264 2.0255L19.9194 1.7905Z" fill="#783FAA"/>
<path d="M14.47 23.4996C8.02997 23.4996 2.79004 18.2596 2.79004 11.8196C2.79004 5.37964 8.02997 0.139648 14.47 0.139648C20.91 0.139648 26.15 5.37964 26.15 11.8196C26.15 18.2596 20.91 23.4996 14.47 23.4996ZM14.47 0.679642C8.32997 0.679642 3.32996 5.67964 3.32996 11.8196C3.32996 17.9596 8.32997 22.9596 14.47 22.9596C20.61 22.9596 25.61 17.9596 25.61 11.8196C25.61 5.67964 20.61 0.679642 14.47 0.679642Z" fill="#009257"/>
<path d="M14.47 16.3296C11.98 16.3296 9.95996 14.3096 9.95996 11.8196C9.95996 9.32956 11.98 7.30957 14.47 7.30957C16.96 7.30957 18.98 9.32956 18.98 11.8196C18.98 14.3096 16.96 16.3296 14.47 16.3296ZM14.47 7.64957C12.17 7.64957 10.3 9.51956 10.3 11.8196C10.3 14.1196 12.17 15.9896 14.47 15.9896C16.77 15.9896 18.64 14.1196 18.64 11.8196C18.64 9.51956 16.77 7.64957 14.47 7.64957Z" fill="#009257"/>
<path d="M10.97 27.7998L14.85 13.5698L13.47 13.0898L9.45996 27.7998H10.97Z" fill="#009257"/>
<path d="M17.87 27.7996L13.73 12.0496L15.2001 11.5996L19.48 27.7996H17.87Z" fill="#009257"/>
<path d="M14.4698 13.93C15.6352 13.93 16.5798 12.9853 16.5798 11.82C16.5798 10.6546 15.6352 9.70996 14.4698 9.70996C13.3045 9.70996 12.3599 10.6546 12.3599 11.82C12.3599 12.9853 13.3045 13.93 14.4698 13.93Z" fill="#783FAA"/>
<path d="M14.4696 12.6892C14.9501 12.6892 15.3396 12.2997 15.3396 11.8192C15.3396 11.3387 14.9501 10.9492 14.4696 10.9492C13.9891 10.9492 13.5996 11.3387 13.5996 11.8192C13.5996 12.2997 13.9891 12.6892 14.4696 12.6892Z" fill="#783FAA"/>
<path d="M20.7998 27.5596H8.12976C7.62976 27.5596 7.21973 27.9696 7.21973 28.4696H21.7097C21.7097 27.9696 21.2998 27.5596 20.7998 27.5596Z" fill="#009257"/>
<path d="M22.5702 28.4697H6.37012V29.7297H22.5702V28.4697Z" fill="#009257"/>
</svg>
