<svg width="36" height="28" viewBox="0 0 36 28" fill="none" xmlns="http://www.w3.org/2000/svg">
<path d="M30.7202 25.1205C30.7202 25.1205 30.7102 25.1205 30.7002 25.1205C30.1202 24.8905 29.4902 24.6505 28.8102 24.4305C28.7802 24.4305 28.7602 24.4205 28.7402 24.4005C27.9302 24.1305 27.0402 23.8905 26.0902 23.6505C26.0502 23.6505 26.0102 23.6405 25.9802 23.6205C24.0702 23.1805 22.0902 22.9005 20.1002 22.7905C20.0702 22.7905 20.0402 22.7905 20.0102 22.7905C19.3402 22.7505 18.6402 22.7305 17.8602 22.7305H17.8102C16.9202 22.7305 16.0602 22.7605 15.2202 22.8205H15.1702C13.1102 22.9705 11.1302 23.2805 9.27023 23.7305C9.24023 23.7405 9.20023 23.7505 9.17023 23.7605C8.31023 23.9705 7.54023 24.2005 6.85023 24.4405C6.84023 24.4405 6.82023 24.4405 6.80023 24.4505C6.04023 24.7005 5.32023 24.9605 4.67023 25.2505C3.08023 25.9105 1.86023 26.6105 0.990234 27.1705H34.6902C33.7902 26.5905 32.4902 25.8605 30.8202 25.1705C30.7702 25.1605 30.7402 25.1405 30.7002 25.1205H30.7202Z" fill="#006A4E"/>
<path d="M4.19009 24.0607C4.35009 23.9907 4.52009 23.9207 4.70009 23.8507C5.10009 23.6907 5.53009 23.5307 5.97009 23.3807C6.13009 23.3307 6.30009 23.2707 6.46009 23.2207C6.71009 23.1407 6.96008 23.0507 7.23008 22.9707C7.65008 22.8407 8.10009 22.7107 8.58009 22.5907C8.70009 22.5507 8.82009 22.5207 8.94009 22.4907C9.30009 22.4007 9.67009 22.3107 10.0401 22.2407L12.7101 13.2207C12.7801 12.9907 12.7101 12.7507 12.5401 12.5807C12.3701 12.4107 12.1201 12.3507 11.8901 12.4207C9.93008 13.0407 8.39009 14.3207 7.34009 16.1607V12.1507C8.32009 12.0207 9.23009 11.5607 9.95009 10.8507C10.8201 9.9807 11.3001 8.8207 11.3001 7.5907V4.1807C11.3001 3.8207 11.0101 3.5307 10.6501 3.5307C10.0701 3.5307 9.49009 3.6407 8.96009 3.8607C8.10009 2.4407 7.06009 1.8307 7.02009 1.8107C6.82009 1.6907 6.57009 1.6907 6.37009 1.8107C6.32009 1.8407 5.29009 2.4407 4.43009 3.8707C3.90009 3.6507 3.32009 3.5407 2.74009 3.5407C2.38008 3.5407 2.09009 3.8307 2.09009 4.1907V7.6007C2.09009 8.8307 2.57009 9.9907 3.44009 10.8607C4.16009 11.5807 5.07009 12.0307 6.05009 12.1607V19.2207C4.44009 16.2707 1.88009 15.2507 1.75009 15.2007C1.52009 15.1107 1.26009 15.1607 1.07009 15.3307C0.880086 15.5007 0.820086 15.7607 0.890086 16.0007L3.51009 24.3707C3.73009 24.2707 3.97009 24.1707 4.20009 24.0707L4.19009 24.0607Z" fill="#009257"/>
<path d="M6.03008 12.1507V12.1807H7.33008V12.1507C8.31008 12.0207 9.22008 11.5607 9.94008 10.8507C10.8101 9.9807 11.2901 8.8207 11.2901 7.5907V4.1807C11.2901 3.8207 11.0001 3.5307 10.6401 3.5307C10.0601 3.5307 9.48008 3.6407 8.95008 3.8607C8.09008 2.4407 7.05008 1.8307 7.01008 1.8107C6.81008 1.6907 6.56008 1.6907 6.36008 1.8107C6.31008 1.8407 5.28008 2.4407 4.42008 3.8707C3.89008 3.6507 3.31008 3.5407 2.73008 3.5407C2.37008 3.5407 2.08008 3.8307 2.08008 4.1907V7.6007C2.08008 8.8307 2.56008 9.9907 3.43008 10.8607C4.15008 11.5807 5.06008 12.0307 6.04008 12.1607L6.03008 12.1507Z" fill="#783FAA"/>
<path d="M13.26 13.8505C13.03 13.7705 12.77 13.8205 12.59 13.9805C12.41 14.1505 12.34 14.4005 12.41 14.6405L14.35 21.6005C14.61 21.5705 14.88 21.5505 15.14 21.5305C15.32 21.5205 15.49 21.5105 15.67 21.5005C16.14 21.4705 16.63 21.4505 17.1 21.4505C17.15 21.4505 17.2 21.4505 17.26 21.4505C17.45 21.4405 17.64 21.4405 17.83 21.4405H18.09C18.2 21.4405 18.31 21.4405 18.42 21.4405C18.86 21.4405 19.26 21.4505 19.64 21.4705C19.82 21.4805 19.98 21.4905 20.15 21.5005C20.42 21.5105 20.69 21.5305 20.96 21.5505L23.89 11.6805C23.96 11.4505 23.89 11.2105 23.72 11.0405C23.55 10.8705 23.3 10.8105 23.07 10.8805C21.11 11.5005 19.57 12.7805 18.52 14.6205V10.6005C19.5 10.4705 20.41 10.0205 21.13 9.31047C22 8.44047 22.48 7.28047 22.48 6.05047V2.64047C22.48 2.28047 22.19 1.99047 21.83 1.99047C21.24 1.99047 20.67 2.10047 20.14 2.32047C19.28 0.890468 18.24 0.280469 18.2 0.250469C18 0.140469 17.75 0.140469 17.55 0.250469C17.5 0.280469 16.47 0.890468 15.61 2.32047C15.08 2.10047 14.5 1.99047 13.92 1.99047C13.56 1.99047 13.27 2.28047 13.27 2.64047V6.05047C13.27 7.28047 13.75 8.44047 14.62 9.31047C15.34 10.0305 16.25 10.4705 17.23 10.6005V17.5605C15.72 14.7805 13.4 13.8905 13.28 13.8405L13.26 13.8505Z" fill="#009257"/>
<path d="M17.2103 10.6107V10.6407H18.5103V10.6107C19.4903 10.4807 20.4003 10.0207 21.1203 9.31066C21.9903 8.44066 22.4703 7.28066 22.4703 6.05066V2.64066C22.4703 2.28066 22.1803 1.99066 21.8203 1.99066C21.2403 1.99066 20.6603 2.10066 20.1303 2.32066C19.2703 0.900663 18.2303 0.290664 18.1903 0.270664C17.9903 0.150664 17.7403 0.150664 17.5403 0.270664C17.4903 0.300664 16.4603 0.900663 15.6003 2.33066C15.0703 2.11066 14.4903 2.00066 13.9103 2.00066C13.5503 2.00066 13.2603 2.29066 13.2603 2.65066V6.06066C13.2603 7.29066 13.7403 8.45066 14.6103 9.32066C15.3303 10.0407 16.2403 10.4907 17.2203 10.6207L17.2103 10.6107Z" fill="#783FAA"/>
<path d="M34.2501 12.4202C32.0101 13.1202 30.6001 14.5502 29.7001 16.1402V12.1402C30.6801 12.0102 31.5901 11.5502 32.3101 10.8402C33.1801 9.97019 33.6601 8.81019 33.6601 7.58019V4.17019C33.6601 3.81019 33.3701 3.52019 33.0101 3.52019C32.4201 3.52019 31.8501 3.63019 31.3201 3.85019C30.4601 2.42019 29.4201 1.8202 29.3801 1.7902C29.1801 1.6702 28.9301 1.6702 28.7301 1.7902C28.6801 1.8202 27.6501 2.42019 26.7901 3.84019C26.2601 3.63019 25.6801 3.51019 25.1001 3.51019C24.7401 3.51019 24.4501 3.80019 24.4501 4.16019V7.57019C24.4501 8.80019 24.9301 9.96019 25.8001 10.8302C26.5201 11.5502 27.4301 12.0002 28.4101 12.1302V18.9902C26.9301 16.2002 24.6901 15.2302 24.5701 15.1802C24.3401 15.0802 24.0801 15.1302 23.8901 15.2902C23.7101 15.4502 23.6301 15.7102 23.6901 15.9402L25.3201 22.1402C25.6701 22.2102 26.0201 22.2902 26.3701 22.3702C26.5001 22.4002 26.6201 22.4302 26.7501 22.4702C27.2801 22.5902 27.8001 22.7402 28.2901 22.8902C28.3401 22.9002 28.3701 22.9202 28.4101 22.9302C28.6001 22.9802 28.7901 23.0402 28.9701 23.1102C29.0601 23.1402 29.1501 23.1602 29.2401 23.1902C29.3801 23.2402 29.5101 23.2802 29.6401 23.3302C29.9801 23.4502 30.3001 23.5602 30.6201 23.6902C30.8501 23.7702 31.0801 23.8702 31.3001 23.9602C31.4801 24.0402 31.6601 24.1102 31.8301 24.1902L35.0801 13.2302C35.1501 13.0002 35.0801 12.7602 34.9101 12.5902C34.7401 12.4202 34.4901 12.3602 34.2601 12.4302L34.2501 12.4202Z" fill="#009257"/>
<path d="M28.3999 12.1504V12.1804H29.6999V12.1504C30.6799 12.0204 31.5999 11.5604 32.3099 10.8504C33.1799 9.98043 33.6699 8.82043 33.6699 7.58043V4.16043C33.6699 3.80043 33.3799 3.51043 33.0199 3.51043C32.4399 3.51043 31.8599 3.62043 31.3299 3.84043C30.4599 2.41043 29.4299 1.81043 29.3799 1.78043C29.1799 1.66043 28.9299 1.66043 28.7299 1.78043C28.6799 1.81043 27.6499 2.41043 26.7799 3.85043C26.2499 3.63043 25.6699 3.52043 25.0899 3.52043C24.7299 3.52043 24.4399 3.81043 24.4399 4.17043V7.59043C24.4399 8.82043 24.9199 9.98043 25.7999 10.8604C26.5199 11.5804 27.4299 12.0304 28.4099 12.1604L28.3999 12.1504Z" fill="#783FAA"/>
</svg>
