<svg width="33" height="29" viewBox="0 0 33 29" fill="none" xmlns="http://www.w3.org/2000/svg">
<path fill-rule="evenodd" clip-rule="evenodd" d="M25.0812 20.19L22.1812 21.88C21.7412 22.14 21.3412 22.3 20.9512 22.39C21.1412 22.13 21.2912 21.84 21.3712 21.52C21.5512 20.85 21.4412 20.13 21.0812 19.53C20.7312 18.96 20.2012 18.57 19.5612 18.43C17.6812 18.02 15.8212 17.39 14.2712 16.86C15.3512 16.45 16.5712 16.24 17.8112 16.24C21.2612 16.24 24.2812 17.91 25.0612 20.19H25.0812ZM2.59119 1.34001C11.8312 -0.35999 14.6512 3.11001 14.6212 7.81001C14.8112 8.06001 14.9812 8.32001 15.1512 8.58001C16.2612 10.35 16.8812 12.46 17.2912 15.11C16.9112 15.13 16.5312 15.16 16.1612 15.22C15.7712 12.75 15.1912 10.79 14.1912 9.18001C13.2412 7.65001 11.9312 6.52001 10.3812 5.60001C11.3912 6.70001 12.1912 7.78001 12.7712 8.82001C6.08118 8.36001 8.16119 4.50001 2.59119 1.34001ZM31.3112 4.95001C22.6212 3.35001 20.0012 6.64001 20.0612 11.08C20.0412 11.11 20.0112 11.13 19.9912 11.16C18.9512 12.35 18.1512 13.62 17.5412 15.1C17.6412 15.1 17.7312 15.1 17.8312 15.1C18.1412 15.1 18.4512 15.11 18.7612 15.14C19.9512 12.47 21.8812 10.64 24.1912 8.91001C23.3712 9.80001 22.6812 10.81 22.1012 11.93C27.9812 11.4 26.1912 7.86001 31.3112 4.96001V4.95001ZM31.3412 21.88C32.4812 21.18 32.7012 20.18 32.3312 19.56C31.8412 18.75 30.3112 18.46 28.0812 19.76L22.7612 22.86C21.2312 23.75 19.9712 23.72 18.4912 23.35C16.0912 22.74 13.7012 22.07 11.3012 21.43C11.0012 21.35 10.8212 21.04 10.9012 20.73C10.9812 20.43 11.2912 20.25 11.6012 20.33L18.5612 22.2C18.9412 22.3 19.3012 22.26 19.6412 22.07C19.9612 21.88 20.1912 21.59 20.2812 21.23C20.3812 20.86 20.3212 20.46 20.1212 20.12C19.9412 19.82 19.6612 19.61 19.3312 19.54C17.2312 19.08 15.1812 18.37 13.5412 17.81C13.0512 17.64 12.5812 17.48 12.1912 17.35C10.8712 16.92 9.62118 17.48 8.46118 18.15L0.221191 22.93L3.72119 29L8.16119 26.44C8.29119 26.36 8.45119 26.34 8.59119 26.38L17.6612 28.81C18.8312 29.12 19.9312 28.97 20.9312 28.35L31.3512 21.88H31.3412Z" fill="#009257"/>
<path fill-rule="evenodd" clip-rule="evenodd" d="M31.3412 21.8799C32.4812 21.1799 32.7012 20.1799 32.3312 19.5599C31.8412 18.7499 30.3112 18.4599 28.0812 19.7599L22.7612 22.8599C21.2312 23.7499 19.9712 23.7199 18.4912 23.3499C16.0912 22.7399 13.7012 22.0699 11.3012 21.4299C11.0012 21.3499 10.8212 21.0399 10.9012 20.7299C10.9812 20.4299 11.2912 20.2499 11.6012 20.3299L18.5612 22.1999C18.9412 22.2999 19.3012 22.2599 19.6412 22.0699C19.9612 21.8799 20.1912 21.5899 20.2812 21.2299C20.3812 20.8599 20.3212 20.4599 20.1212 20.1199C19.9412 19.8199 19.6612 19.6099 19.3312 19.5399C17.2312 19.0799 15.1812 18.3699 13.5412 17.8099C13.0512 17.6399 12.5812 17.4799 12.1912 17.3499C10.8712 16.9199 9.62118 17.4799 8.46118 18.1499L0.221191 22.9299L3.72119 28.9999L8.16119 26.4399C8.29119 26.3599 8.45119 26.3399 8.59119 26.3799L17.6612 28.8099C18.8312 29.1199 19.9312 28.9699 20.9312 28.3499L31.3512 21.8799H31.3412Z" fill="#783FAA"/>
</svg>
