<svg width="34" height="27" viewBox="0 0 34 27" fill="none" xmlns="http://www.w3.org/2000/svg">
<path d="M11.1849 13.6047C11.1849 11.4847 11.7349 9.48469 12.7449 7.96469C13.1149 7.39469 13.5649 6.89469 14.0849 6.46469C13.3449 5.86469 12.5149 5.55469 11.6449 5.55469C10.2549 5.55469 8.96494 6.3547 8.00494 7.8147C7.07494 9.2247 6.56494 11.0947 6.56494 13.0747C6.56494 15.0547 7.07494 16.9247 8.00494 18.3347C8.96494 19.7847 10.2549 20.5947 11.6449 20.5947C12.2649 20.5947 12.8749 20.4347 13.4149 20.1347C13.1749 19.8647 12.9449 19.5747 12.7549 19.2747C11.7449 17.7547 11.1949 15.7447 11.1949 13.6347L11.1849 13.6047Z" fill="#783FAA"/>
<path d="M25.935 7.79417C24.975 6.34417 23.685 5.53418 22.295 5.53418C21.425 5.53418 20.585 5.85417 19.855 6.44417C20.375 6.87417 20.825 7.38417 21.195 7.94417C22.205 9.46417 22.755 11.4742 22.755 13.5842C22.755 15.6942 22.205 17.7042 21.195 19.2242C20.995 19.5242 20.775 19.8142 20.535 20.0842C21.075 20.3842 21.685 20.5442 22.305 20.5442C23.695 20.5442 24.985 19.7442 25.945 18.2842C26.875 16.8742 27.385 15.0042 27.385 13.0242C27.385 11.0442 26.875 9.17418 25.945 7.76418L25.935 7.79417Z" fill="#783FAA"/>
<path d="M22.055 13.605C22.055 11.625 21.545 9.75497 20.615 8.34497C19.655 6.89497 18.365 6.08496 16.975 6.08496C15.585 6.08496 14.295 6.88497 13.335 8.34497C12.405 9.75497 11.895 11.625 11.895 13.605C11.895 15.585 12.405 17.455 13.335 18.865C14.295 20.315 15.585 21.125 16.975 21.125C18.365 21.125 19.655 20.325 20.615 18.865C21.545 17.455 22.055 15.585 22.055 13.605Z" fill="#783FAA"/>
<path d="M18.9351 4.05484C19.1851 4.56484 19.3751 5.10485 19.5051 5.65485L19.545 5.81485C20.335 5.21485 21.215 4.88485 22.1451 4.84485C21.4151 4.26485 20.595 3.96484 19.735 3.96484C19.465 3.96484 19.2051 3.99484 18.9351 4.05484Z" fill="#783FAA"/>
<path d="M14.9849 5.87485L15.0049 5.54485C15.0249 5.29485 15.0049 5.03485 14.9649 4.78485C14.9149 4.51485 14.8449 4.25485 14.7549 4.00485C14.5749 3.97485 14.3849 3.96484 14.2049 3.96484C13.3449 3.96484 12.5249 4.27485 11.7949 4.84485C12.8349 4.88485 13.8149 5.29485 14.6749 6.04485C14.7749 5.98485 14.8749 5.92485 14.9749 5.87485H14.9849Z" fill="#783FAA"/>
<path d="M13.0247 1.5045C14.6047 2.0345 15.3647 3.0645 15.6547 4.6545C15.7047 4.9545 15.7247 5.26449 15.7047 5.57449C16.7347 5.25449 17.8447 5.33449 18.8147 5.80449C18.5947 4.88449 18.1947 4.0245 17.6447 3.2545H19.7647C20.4347 3.2545 21.0247 2.8345 21.2547 2.2045H22.9247C23.5047 2.2045 23.9747 1.7345 23.9747 1.1545C23.9747 0.574495 23.5047 0.104492 22.9247 0.104492C22.7347 0.104492 22.5747 0.264498 22.5747 0.454498C22.5747 0.644498 22.7347 0.804489 22.9247 0.804489C23.1147 0.804489 23.2747 0.964495 23.2747 1.1545C23.2747 1.3445 23.1147 1.5045 22.9247 1.5045H21.3347C21.2447 0.704501 20.5747 0.104492 19.7647 0.104492C19.1847 0.104492 18.7147 0.574495 18.7147 1.1545C18.7147 1.7345 19.1847 2.2045 19.7647 2.2045H20.4647C20.2947 2.4245 20.0447 2.55449 19.7647 2.55449H17.0747C15.6247 0.944489 13.7647 0.104492 13.0247 0.104492C12.6347 0.104492 12.3247 0.414489 12.3247 0.804489C12.3247 1.19449 12.6347 1.5045 13.0247 1.5045ZM19.7647 1.5045C19.5747 1.5045 19.4147 1.3445 19.4147 1.1545C19.4147 0.964495 19.5747 0.804489 19.7647 0.804489C20.1847 0.804489 20.5347 1.0945 20.6247 1.5045H19.7647Z" fill="#009257"/>
<path d="M29.8047 24.0843C29.8047 24.0843 29.7947 24.0843 29.7847 24.0843C29.2047 23.8543 28.5747 23.6143 27.8947 23.3943C27.8647 23.3943 27.8447 23.3843 27.8247 23.3643C27.0147 23.0943 26.1247 22.8543 25.1747 22.6143C25.1347 22.6143 25.0947 22.6043 25.0647 22.5843C23.1547 22.1443 21.1747 21.8643 19.1847 21.7543C19.1547 21.7543 19.1247 21.7543 19.0947 21.7543C18.4247 21.7143 17.7247 21.6943 16.9447 21.6943H16.8947C16.0047 21.6943 15.1447 21.7243 14.3047 21.7843H14.2547C12.1947 21.9343 10.2147 22.2443 8.35471 22.6943C8.32471 22.7043 8.28473 22.7143 8.25473 22.7243C7.39473 22.9344 6.62472 23.1643 5.93472 23.4043C5.92472 23.4043 5.9047 23.4043 5.8847 23.4143C5.1247 23.6643 4.40473 23.9243 3.75473 24.2143C2.16473 24.8743 0.944707 25.5743 0.074707 26.1343H33.7747C32.8747 25.5543 31.5747 24.8243 29.9047 24.1343C29.8547 24.1243 29.8247 24.1043 29.7847 24.0843H29.8047Z" fill="#006A4E"/>
</svg>
