<svg width="33" height="34" viewBox="0 0 33 34" fill="none" xmlns="http://www.w3.org/2000/svg">
<path d="M25.9048 25.0195L25.9348 25.4395V25.5895C30.1048 26.4095 31.6248 30.0295 32.0848 31.5295C32.1848 31.6295 32.2848 31.7295 32.3748 31.8295C32.5548 32.0195 32.7048 32.2095 32.8448 32.4095L32.7848 32.0795C32.7748 32.0095 31.5648 26.0595 25.9048 25.0195Z" fill="#006A4E"/>
<path d="M16.9148 12.0089C16.9148 12.1089 16.9148 12.1989 16.9248 12.2989C17.1648 15.0489 18.8848 17.3689 21.2848 18.4689C21.3748 18.5089 21.4548 18.5489 21.5448 18.5889C21.6348 18.6289 21.7248 18.6489 21.8048 18.6889C22.0648 18.7889 22.3248 18.8689 22.6048 18.9289L22.7748 15.2489L19.1348 9.7289L22.9948 11.8489L23.4548 6.4389H24.9048L25.1548 14.1489L29.3648 12.8989L25.3948 17.9389L25.4748 19.0589C29.1048 18.5289 31.9048 15.4089 31.9048 11.6389C31.9048 7.4989 28.5348 4.12891 24.3948 4.12891C20.2548 4.12891 16.8848 7.4989 16.8848 11.6389C16.8848 11.6589 16.8848 11.6889 16.8848 11.7089C16.8848 11.8089 16.8948 11.8989 16.8948 11.9989L16.9148 12.0089Z" fill="#009257"/>
<path d="M2.77498 19.4494C3.71498 19.9294 5.08498 19.9794 6.51498 19.9794L6.62498 18.4994L2.65498 13.4594L6.86497 14.7094L7.11497 6.99937H8.56499L9.02498 12.4094L12.885 10.2894L9.24498 15.8094L9.28499 16.6594L9.42499 19.8694V20.2594H9.50497C9.60497 20.2594 9.69498 20.1194 9.79498 20.1194C9.89498 20.1194 9.99499 20.0494 10.095 20.0494C12.775 19.9894 14.485 19.4894 14.485 16.4994C14.485 15.4594 14.295 13.9794 13.965 12.3594C13.945 12.2694 13.925 12.1694 13.905 12.0794C13.885 11.9894 13.865 11.8994 13.845 11.8094C12.755 6.79938 10.385 0.609375 7.91498 0.609375C4.54498 0.609375 1.35498 12.1494 1.35498 16.4694C1.35498 18.0194 1.80498 18.9694 2.77498 19.4694V19.4494Z" fill="#009257"/>
<path d="M23.1447 19.3195V19.5995L22.8847 24.9595L22.8647 25.3795V25.5195L22.6847 29.3595C23.5547 29.9695 24.0947 30.7495 24.3447 31.1695C24.6147 30.9895 25.0847 30.7195 25.7547 30.4895L25.3947 25.4995V25.3495L25.3547 24.9295L24.9847 19.6695L24.9647 19.3895L24.9447 19.1095L24.8447 17.7495L27.8747 13.9095L24.6547 14.8695L24.3947 6.97949H23.9847L23.4947 12.7295L20.8447 11.2795L23.3547 15.0895L23.1747 19.0395V19.3195H23.1447Z" fill="#783FAA"/>
<path d="M8.55479 13.2998L8.0648 7.5498H7.6548L7.39481 15.4398L4.1748 14.4798L7.2048 18.3198V18.4298L7.08479 19.9798L7.0648 20.2598L7.0448 20.5398L6.5948 26.8298C7.3048 26.6398 8.09479 26.5298 8.97479 26.5298C9.05479 26.5298 9.1248 26.5298 9.2048 26.5298L8.9248 20.5298V20.2498L8.89481 19.9698L8.69479 15.6398L11.2048 11.8298L8.55479 13.2798V13.2998Z" fill="#783FAA"/>
<path d="M31.5648 31.8596C30.8048 31.1596 29.7848 30.5796 28.7048 30.5796C27.7448 30.5796 26.9548 30.7196 26.3248 30.8896C26.2248 30.9196 26.1248 30.9496 26.0348 30.9796C25.9448 31.0096 25.8648 31.0396 25.7848 31.0696C25.5748 31.1496 25.3848 31.2296 25.2248 31.3096C24.6948 31.5696 24.4348 31.7996 24.4248 31.7996L24.3548 31.8596L24.1448 32.0396L24.0548 31.8596L23.9848 31.7096C23.9848 31.7096 23.9048 31.5396 23.7448 31.3096C23.5248 30.9796 23.1548 30.4896 22.6348 30.0596C22.5548 29.9896 22.4648 29.9296 22.3748 29.8596C22.2848 29.7896 22.1948 29.7296 22.0948 29.6696C21.5148 29.3196 20.8048 29.0596 19.9548 29.0596C18.7548 29.0596 17.8748 29.4196 17.2648 29.8396C17.1648 29.9096 17.0748 29.9696 16.9948 30.0396C16.8948 30.1196 16.8048 30.1996 16.7148 30.2796C16.6248 30.3696 16.5448 30.4496 16.4748 30.5296C16.2348 30.7896 16.1248 30.9896 16.1248 30.9996L15.8448 31.5096L15.6248 30.9696C15.5948 30.8996 15.2748 30.1396 14.4948 29.3096C14.4148 29.2296 14.3248 29.1396 14.2348 29.0596C14.1448 28.9796 14.0548 28.8996 13.9548 28.8096C13.4248 28.3596 12.7548 27.9296 11.9048 27.6096C11.7848 27.5696 11.6648 27.5196 11.5348 27.4796C11.3848 27.4296 11.2248 27.3896 11.0548 27.3496C10.6448 27.2496 10.2148 27.1696 9.7448 27.1296C9.6548 27.1296 9.5548 27.1296 9.4548 27.1196C9.3648 27.1196 9.2748 27.1196 9.1848 27.1096C9.0948 27.1096 9.0148 27.0996 8.9348 27.0996C8.0248 27.0996 7.2348 27.2296 6.5148 27.4296C6.4248 27.4596 6.3348 27.4796 6.2448 27.5096C6.1448 27.5396 6.04479 27.5696 5.94479 27.6096C2.39479 28.9296 1.2148 32.4296 0.924805 33.5396H32.7148C32.6248 33.2296 32.3848 32.8296 32.0548 32.4296C31.9048 32.2396 31.7248 32.0596 31.5248 31.8796L31.5648 31.8596Z" fill="#006A4E"/>
<path d="M14.765 23.6596L14.615 27.0196C14.615 27.0196 15.095 27.1596 15.485 27.3596C15.815 27.5296 16.295 27.7996 16.295 27.7996L16.005 23.6896L17.205 21.6396L15.825 22.1496L15.415 18.0996L15.045 20.8696L14.375 20.5896L14.765 21.8896V23.6596Z" fill="#783FAA"/>
<path d="M14.5347 21.8691L14.0447 20.2891L14.8447 20.4491L15.4347 17.0291L16.0847 21.7391L17.7247 21.2991L16.2647 23.6691C18.7647 23.3491 20.7247 21.4491 21.1947 19.0491C18.4947 17.8791 16.5747 15.2691 16.3647 12.1891C16.0847 12.1491 15.8047 12.1191 15.5047 12.1191C15.1547 12.1191 14.8147 12.1591 14.4747 12.2191C14.8347 13.9591 15.0247 15.4891 15.0247 16.4591C15.0247 19.8191 13.0547 20.4291 10.3247 20.5191C11.1247 22.1191 12.6447 23.2991 14.5147 23.6291" fill="#006A4E"/>
<path d="M17.1948 28.6596C17.1148 28.5596 17.0048 28.4396 16.8848 28.3096C16.7948 28.2196 16.6848 28.1196 16.5748 28.0196C16.4848 27.9496 16.3948 27.8696 16.2948 27.7996C16.2948 27.7996 15.8148 27.5296 15.4848 27.3596C15.0948 27.1596 14.6148 27.0196 14.6148 27.0196C14.5348 26.9996 14.4348 26.9896 14.3448 26.9696C14.2548 26.9496 14.1648 26.9296 14.0648 26.9096C13.7748 26.8696 13.4748 26.8396 13.1548 26.8396C12.7148 26.8396 12.3048 26.8996 11.9248 26.9996C12.1148 27.0696 12.2948 27.1296 12.4648 27.2096C12.6148 27.2696 12.7548 27.3396 12.8848 27.4096C12.9748 27.4096 13.0648 27.3896 13.1648 27.3896C13.4848 27.3896 13.7748 27.4196 14.0448 27.4596C14.1448 27.4796 14.2348 27.4996 14.3248 27.5196C14.4148 27.5396 14.5048 27.5596 14.5848 27.5796C15.3848 27.8096 15.9548 28.1896 16.3448 28.5496C16.4548 28.6496 16.5448 28.7396 16.6248 28.8296C16.7848 29.0096 16.8948 29.1596 16.9448 29.2496C16.9648 29.2896 16.9848 29.3196 16.9948 29.3296V29.3496C17.0748 29.3096 17.1348 29.2596 17.2048 29.2196C17.2248 29.2096 17.2448 29.1896 17.2748 29.1796C17.3848 29.1196 17.5148 29.0596 17.6348 28.9996C18.0348 28.2396 19.3448 26.2396 22.2948 25.6196V25.4696L22.3248 25.0596C19.2148 25.6796 17.7148 27.7596 17.1948 28.6696V28.6596Z" fill="#006A4E"/>
</svg>
