<svg width="35" height="33" viewBox="0 0 35 33" fill="none" xmlns="http://www.w3.org/2000/svg">
<path d="M30.4395 30.64C30.4395 30.64 30.4295 30.64 30.4195 30.64C29.8395 30.41 29.2095 30.17 28.5295 29.95C28.4995 29.95 28.4795 29.94 28.4595 29.92C27.6495 29.65 26.7595 29.41 25.8095 29.17C25.7695 29.17 25.7295 29.16 25.6995 29.14C23.7895 28.7 21.8095 28.42 19.8195 28.31C19.7895 28.31 19.7595 28.31 19.7295 28.31C19.0595 28.27 18.3595 28.25 17.5795 28.25H17.5295C16.6395 28.25 15.7795 28.28 14.9395 28.34H14.8895C12.8295 28.49 10.8495 28.8 8.98947 29.25C8.95947 29.26 8.91947 29.27 8.88947 29.28C8.02947 29.49 7.25949 29.72 6.56949 29.96C6.55949 29.96 6.53947 29.96 6.51947 29.97C5.75947 30.22 5.03947 30.48 4.38947 30.77C2.79947 31.43 1.57947 32.13 0.709473 32.69H34.4095C33.5095 32.11 32.2095 31.38 30.5395 30.69C30.4895 30.68 30.4595 30.66 30.4195 30.64H30.4395Z" fill="#006A4E"/>
<path d="M17.9493 23.7697C18.1693 20.9397 18.1093 18.5797 17.9793 16.3497C17.9793 16.1797 18.0493 16.0097 18.1893 15.8997C18.3093 15.8097 18.4493 15.7097 18.5593 15.6797C18.6493 15.6597 18.7093 15.5697 18.6993 15.4797C18.6993 15.4397 18.6693 15.4097 18.6393 15.3897C18.6693 15.3797 18.6993 15.3597 18.7293 15.3497C19.0093 15.2297 19.4493 15.1997 19.6393 15.1197C20.0693 14.9397 20.2493 14.6897 20.2993 14.0997C20.3393 13.6497 19.8793 13.4597 19.4393 13.5797C19.3693 13.5997 19.2993 13.5697 19.2593 13.5097C19.0793 13.2697 18.7093 13.2697 18.3993 13.4497C18.3193 13.4997 18.2193 13.4797 18.1693 13.3997C18.0793 13.2597 17.9493 13.1497 17.7993 13.0897C17.9293 12.9297 18.1093 12.8297 18.2993 12.7997C18.3893 12.7797 18.4593 12.6997 18.4393 12.5997C18.4393 12.5997 18.4393 12.5797 18.4393 12.5697C18.4393 12.5497 18.4193 12.5297 18.3993 12.5097C18.4393 12.4897 18.4693 12.4797 18.5093 12.4597C18.7693 12.3497 19.1793 12.3297 19.3593 12.2597C19.7593 12.0997 19.9293 11.8697 19.9893 11.3197C20.0293 10.8697 19.5593 10.6997 19.1193 10.8497C19.0993 10.8497 19.0693 10.8497 19.0593 10.8297C18.8993 10.5097 18.4493 10.5197 18.1193 10.7697C18.0993 10.7797 18.0693 10.7797 18.0593 10.7697C17.9793 10.5997 17.8393 10.4597 17.6593 10.3797C17.6593 10.2897 17.6593 10.1897 17.6593 10.0997C17.6793 10.0797 17.6993 10.0697 17.7193 10.0397C17.8593 9.87967 18.0593 9.77967 18.2793 9.74967C18.3693 9.73967 18.4393 9.65967 18.4393 9.56967C18.4393 9.47967 18.3493 9.40967 18.2493 9.41967C18.2493 9.41967 18.2493 9.41967 18.2393 9.41967H18.1993C18.4493 9.31967 18.7493 9.24967 18.8893 9.15967C19.2893 8.91967 19.4393 8.64967 19.3993 8.03967C19.3693 7.54967 18.8193 7.43967 18.3693 7.67967C18.3193 7.70967 18.2593 7.68967 18.2293 7.64967C18.1393 7.49967 18.0393 7.35967 17.9093 7.23967C17.8493 7.17967 17.7793 7.12967 17.6993 7.09967C17.6993 6.99967 17.7093 6.89967 17.7193 6.79967C17.7493 6.77967 17.7693 6.76967 17.7893 6.73967C17.9193 6.59967 18.1593 6.49967 18.3993 6.47967C18.4993 6.46967 18.5593 6.38967 18.5493 6.28967C18.5493 6.21967 18.4893 6.15967 18.4193 6.14967C18.6493 6.07967 18.8893 6.02967 19.0193 5.95967C19.4493 5.73967 19.6193 5.45967 19.6193 4.83967C19.6193 4.32967 19.0493 4.17967 18.5693 4.40967C18.5193 4.42967 18.4593 4.40967 18.4393 4.36967C18.3593 4.19967 18.2493 4.03967 18.1093 3.89967C18.0893 3.87967 18.0693 3.85967 18.0493 3.83967V3.80967C18.0493 3.80967 18.0793 3.79967 18.0893 3.78967C18.2493 3.67967 18.4493 3.61967 18.6393 3.63967C18.7393 3.63967 18.8193 3.57967 18.8193 3.47967C18.8193 3.46967 18.8193 3.45967 18.8193 3.44967C18.8193 3.39967 18.7893 3.35967 18.7493 3.33967C18.9193 3.28967 19.0993 3.25967 19.1893 3.20967C19.5493 3.02967 19.6993 2.79967 19.7093 2.27967C19.7093 1.88967 19.3193 1.73967 18.9493 1.85967C18.9193 1.86967 18.8793 1.85967 18.8693 1.81967C18.8693 1.81967 18.8693 1.81967 18.8693 1.80967C18.8693 1.74967 18.8493 1.68967 18.8293 1.62967C18.8793 1.58967 18.9193 1.54967 18.9693 1.49967C19.2193 1.18967 19.2593 0.919666 19.0393 0.439666C18.8393 -0.000333548 18.2693 0.139666 17.9993 0.559666C17.8893 0.729666 17.8493 1.10967 17.8293 1.43967C17.8293 1.47967 17.8093 1.50967 17.7893 1.52967C17.7593 1.55967 17.7393 1.57967 17.7093 1.60967C17.6893 1.63967 17.6493 1.63967 17.6193 1.61967C17.2793 1.31967 16.7693 1.29967 16.6493 1.72967C16.5093 2.23967 16.5793 2.49967 16.8793 2.76967C16.9893 2.84967 17.1093 2.92967 17.2393 2.99967C17.1793 3.00967 17.1293 3.05967 17.1093 3.11967C17.0893 3.20967 17.1393 3.29967 17.2193 3.32967C17.3993 3.39967 17.5493 3.52967 17.6393 3.68967C17.6393 3.69967 17.6493 3.71967 17.6593 3.72967C17.4393 3.75967 17.2193 3.93967 17.0893 4.17967C17.0693 4.22967 17.0093 4.24967 16.9593 4.21967C16.5693 3.96967 16.0693 4.00967 15.9493 4.46967C15.7993 5.06967 15.8893 5.37967 16.2493 5.69967C16.3593 5.78967 16.5793 5.89967 16.7893 6.02967C16.7093 6.02967 16.6493 6.09967 16.6393 6.16967C16.6293 6.25967 16.6893 6.34967 16.7893 6.35967C17.0193 6.41967 17.2293 6.54967 17.3393 6.70967C17.3593 6.73967 17.3893 6.76967 17.4193 6.78967C17.4193 6.89967 17.4093 7.00967 17.3993 7.10967C17.1893 7.19967 17.0293 7.36967 16.9393 7.58967C16.9193 7.63967 16.8593 7.65967 16.8093 7.63967C16.8093 7.63967 16.7993 7.63967 16.7893 7.62967C16.3793 7.34967 15.8293 7.38967 15.7393 7.86967C15.6193 8.45967 15.7393 8.74967 16.1093 9.03967C16.2493 9.14967 16.5793 9.26967 16.8293 9.41967H16.7793C16.6893 9.38967 16.5993 9.45967 16.5793 9.54967C16.5793 9.54967 16.5793 9.54967 16.5793 9.55967C16.5793 9.64967 16.6393 9.72967 16.7293 9.74967C16.9393 9.77967 17.1393 9.88967 17.2793 10.0497C17.2993 10.0797 17.3293 10.0997 17.3593 10.1197V10.3897C17.2993 10.4197 17.2393 10.4597 17.1893 10.5097C17.1093 10.5997 17.0293 10.6897 16.9593 10.7897C16.9493 10.8097 16.9193 10.8197 16.8993 10.7997C16.6393 10.6197 16.3293 10.5797 16.1193 10.6997C16.0093 10.7697 15.9393 10.8797 15.9093 10.9997C15.9093 11.0197 15.8793 11.0397 15.8593 11.0297C15.4093 10.9497 14.9793 11.1897 15.0793 11.6197C15.2093 12.1597 15.4093 12.3697 15.8293 12.4697C16.0193 12.5197 16.4293 12.4797 16.6993 12.5597C16.7193 12.5597 16.7393 12.5697 16.7593 12.5797C16.7293 12.6097 16.7193 12.6397 16.7193 12.6797C16.7193 12.7697 16.7893 12.8497 16.8793 12.8597C17.0693 12.8797 17.2493 12.9797 17.3793 13.1197C17.3893 13.1297 17.3993 13.1497 17.4193 13.1597C17.3693 13.1897 17.3293 13.2197 17.2993 13.2597C17.2393 13.3297 17.1793 13.3997 17.1293 13.4697C17.0793 13.5397 16.9793 13.5597 16.8993 13.5197C16.5193 13.3197 16.0393 13.4397 15.9493 13.7697C15.9393 13.8197 15.8893 13.8497 15.8393 13.8397C15.3693 13.7797 14.9393 14.0397 15.0493 14.4897C15.1993 15.0697 15.4193 15.2797 15.8693 15.3897C16.0693 15.4397 16.5093 15.3897 16.8093 15.4697C16.8693 15.4797 16.9193 15.4997 16.9693 15.5197C16.9193 15.5497 16.8893 15.6097 16.8893 15.6697C16.8893 15.7497 16.9693 15.8197 17.0493 15.8297C17.1593 15.8297 17.3093 15.9097 17.4293 15.9797C17.5893 16.0697 17.6993 16.2397 17.7093 16.4197C17.8593 19.0997 17.9193 21.9897 17.4893 25.6397C16.9693 23.6197 14.6493 21.7497 12.8893 21.2397C12.8493 21.2297 12.8093 21.2497 12.7993 21.2897C12.7993 21.3197 12.7993 21.3397 12.8193 21.3597C13.6493 22.0497 16.3693 24.4297 17.2493 26.7297C17.2993 26.8597 17.3193 27.0097 17.2993 27.1497C17.2893 27.2497 17.2693 27.3397 17.2593 27.4397C17.2393 27.5297 17.2993 27.6197 17.3993 27.6397C17.4093 27.6397 17.4193 27.6397 17.4393 27.6397C17.5293 27.6397 17.5993 27.5797 17.6093 27.4997C17.7493 26.5297 17.8693 25.6097 17.9493 24.7297" fill="#009257"/>
<path d="M19.4295 13.5796C19.3595 13.5996 19.2896 13.5696 19.2496 13.5096C19.0696 13.2696 18.6995 13.2696 18.3895 13.4496C18.3095 13.4996 18.2096 13.4796 18.1596 13.3996C18.0796 13.2796 17.9795 13.1896 17.8595 13.1196C17.8595 13.1196 17.7195 13.0496 17.5895 13.0596C17.4395 13.0696 17.3496 13.1396 17.3496 13.1396C17.3096 13.1696 17.2695 13.1996 17.2395 13.2296C17.1795 13.2996 17.1196 13.3696 17.0696 13.4396C17.0196 13.5096 16.9195 13.5296 16.8395 13.4896C16.4595 13.2896 15.9795 13.4096 15.8895 13.7396C15.8795 13.7896 15.8296 13.8196 15.7796 13.8096C15.3096 13.7496 14.8795 14.0096 14.9895 14.4596C15.1395 15.0396 15.3596 15.2496 15.8096 15.3596C16.0096 15.4096 16.4496 15.3596 16.7496 15.4396H16.7695L18.6695 15.3696C18.6695 15.3696 18.7096 15.3496 18.7296 15.3396C19.0096 15.2196 19.4495 15.1896 19.6395 15.1096C20.0695 14.9296 20.2495 14.6796 20.2995 14.0896C20.3395 13.6396 19.8796 13.4496 19.4396 13.5696L19.4295 13.5796Z" fill="#783FAA"/>
<path d="M19.0897 10.8496C19.0897 10.8496 19.0397 10.8496 19.0297 10.8296C18.8697 10.5096 18.4197 10.5196 18.0897 10.7696C18.0697 10.7796 18.0397 10.7796 18.0297 10.7696C17.9497 10.5996 17.8097 10.4596 17.6297 10.3796C17.6297 10.3796 17.5397 10.3496 17.4697 10.3496C17.3797 10.3496 17.2897 10.3796 17.2897 10.3796C17.2197 10.4096 17.1697 10.4496 17.1197 10.4996C17.0397 10.5896 16.9597 10.6796 16.8897 10.7796C16.8797 10.7996 16.8497 10.8096 16.8297 10.7896C16.5697 10.6096 16.2597 10.5696 16.0497 10.6896C15.9397 10.7596 15.8697 10.8696 15.8397 10.9896C15.8397 11.0096 15.8097 11.0296 15.7897 11.0196C15.3397 10.9396 14.9097 11.1796 15.0097 11.6096C15.1397 12.1496 15.3397 12.3596 15.7597 12.4596C15.9497 12.5096 16.3597 12.4696 16.6297 12.5496C16.6497 12.5496 16.6697 12.5596 16.6897 12.5696L18.4597 12.4996C18.4597 12.4996 18.4797 12.4896 18.4997 12.4796C18.7597 12.3696 19.1697 12.3496 19.3497 12.2796C19.7497 12.1196 19.9197 11.8896 19.9797 11.3396C20.0197 10.8896 19.5497 10.7196 19.1097 10.8696L19.0897 10.8496Z" fill="#783FAA"/>
<path d="M18.3396 7.66957C18.3396 7.66957 18.2296 7.67957 18.1996 7.63957C18.1096 7.48957 18.0096 7.34957 17.8796 7.22957C17.8296 7.17957 17.7696 7.13957 17.7096 7.10957C17.7096 7.10957 17.6296 7.06957 17.5096 7.05957C17.4496 7.05957 17.3396 7.08957 17.3196 7.09957C17.1096 7.18957 16.9496 7.35957 16.8596 7.57957C16.8396 7.62957 16.7796 7.64957 16.7296 7.62957C16.7296 7.62957 16.7196 7.62957 16.7096 7.61957C16.2996 7.33957 15.7496 7.37957 15.6596 7.85957C15.5396 8.44957 15.6596 8.73957 16.0296 9.02957C16.1696 9.13957 16.4896 9.25957 16.7396 9.40957H18.1896C18.4296 9.30957 18.7196 9.23957 18.8496 9.15957C19.2496 8.91957 19.3996 8.64957 19.3596 8.03957C19.3296 7.54957 18.7796 7.43957 18.3296 7.67957L18.3396 7.66957Z" fill="#783FAA"/>
<path d="M16.8193 2.7499C16.9293 2.8299 17.0493 2.9099 17.1793 2.9799C17.1793 2.9799 17.1793 2.9799 17.1693 2.9799L18.7293 3.3199C18.8993 3.2799 19.0593 3.2399 19.1493 3.1999C19.5093 3.0199 19.6593 2.7899 19.6693 2.2699C19.6693 1.8799 19.2793 1.7299 18.9093 1.8499C18.8793 1.8599 18.8393 1.8499 18.8293 1.8099C18.8293 1.8099 18.8293 1.8099 18.8293 1.7999C18.8293 1.7399 18.8093 1.6799 18.7893 1.6199C18.8393 1.5799 18.8793 1.5399 18.9293 1.4899C19.1793 1.1799 19.2193 0.909901 18.9993 0.429901C18.7993 -0.0100992 18.2293 0.129901 17.9593 0.549901C17.8493 0.719901 17.8093 1.0999 17.7893 1.4299C17.7893 1.4699 17.7693 1.4999 17.7493 1.5199C17.7193 1.5499 17.6993 1.5699 17.6693 1.5999C17.6493 1.6299 17.6093 1.6299 17.5793 1.6099C17.2393 1.3099 16.7293 1.2899 16.6093 1.7199C16.4693 2.2299 16.5393 2.4899 16.8393 2.7599L16.8193 2.7499Z" fill="#783FAA"/>
<path d="M18.5295 4.40009C18.5295 4.40009 18.4195 4.4001 18.3995 4.3601C18.3195 4.1901 18.2095 4.0301 18.0695 3.8901C18.0595 3.8701 18.0395 3.8601 18.0195 3.8501C18.0195 3.8501 17.9395 3.78009 17.8395 3.74009C17.7395 3.70009 17.6095 3.7101 17.6095 3.7101C17.3895 3.7401 17.1695 3.92009 17.0395 4.16009C17.0195 4.21009 16.9595 4.2301 16.9095 4.2001C16.5195 3.9501 16.0195 3.9901 15.8995 4.4501C15.7495 5.0501 15.8395 5.3601 16.1995 5.6801C16.2995 5.7701 16.5195 5.8801 16.7195 6.00009L18.4495 6.1201C18.6695 6.0601 18.8795 6.0101 18.9995 5.9501C19.4295 5.7301 19.5995 5.45009 19.5995 4.83009C19.5995 4.32009 19.0295 4.17009 18.5495 4.40009H18.5295Z" fill="#783FAA"/>
<path d="M14.2098 13.0003C14.2098 13.0003 14.2898 13.0003 14.3098 12.9703C14.3198 12.9403 14.3198 12.9103 14.3098 12.8903C12.8698 11.2203 12.2498 8.75027 12.0698 7.84027C12.0698 7.80027 12.0298 7.78027 11.9898 7.78027C11.9598 7.78027 11.9398 7.81027 11.9298 7.84027C11.7598 8.81027 11.5598 11.5303 14.2198 13.0003H14.2098Z" fill="#009257"/>
<path d="M20.6695 12.0002C22.7895 10.9402 22.6296 8.79016 22.4796 7.97016C22.4796 7.93016 22.4395 7.91016 22.3995 7.91016C22.3695 7.91016 22.3495 7.94016 22.3395 7.96016C22.1695 8.68016 21.6495 10.4902 20.5795 11.8802C20.5595 11.9102 20.5596 11.9602 20.5996 11.9802C20.6196 12.0002 20.6495 12.0002 20.6795 11.9802L20.6695 12.0002Z" fill="#009257"/>
<path d="M18.6696 20.0801C18.6696 20.0801 18.6696 20.1601 18.6996 20.1701C18.7196 20.1801 18.7497 20.1701 18.7697 20.1701C23.1897 17.0201 23.3797 13.2401 23.2497 11.7201C23.2497 11.6801 23.2096 11.6501 23.1696 11.6601C23.1396 11.6601 23.1097 11.6901 23.0997 11.7201C22.9197 13.3101 22.2197 15.0301 21.0697 16.3101C19.8897 17.6301 18.9697 19.4401 18.6597 20.0801H18.6696Z" fill="#009257"/>
<path d="M13.1498 23.2698C13.1498 23.2698 13.1598 23.1998 13.1298 23.1798C13.1098 23.1598 13.0797 23.1698 13.0497 23.1798C12.4997 23.5798 11.3498 24.5998 11.0598 26.1398C11.0198 25.9198 10.9798 25.6898 10.9398 25.4698L10.7598 24.6098C10.1998 21.9798 9.50977 19.8498 8.78977 17.8598C8.72977 17.6998 8.75975 17.5298 8.85975 17.3998C8.93975 17.2798 9.04974 17.1598 9.13974 17.1098C9.21974 17.0698 9.24975 16.9698 9.20975 16.8898C9.18975 16.8598 9.15977 16.8298 9.12977 16.8198C9.14977 16.7998 9.17974 16.7798 9.19974 16.7598C9.41974 16.5798 9.80976 16.4398 9.96976 16.3198C10.3098 16.0498 10.4098 15.7798 10.2898 15.2198C10.1998 14.7998 9.73976 14.7398 9.36976 14.9598C9.30976 14.9898 9.23976 14.9898 9.18976 14.9498C8.95976 14.7698 8.61974 14.8698 8.38974 15.1198C8.32974 15.1798 8.22976 15.1898 8.15976 15.1398C8.03976 15.0398 7.88975 14.9698 7.73975 14.9598C7.81975 14.7798 7.94976 14.6498 8.11976 14.5698C8.19976 14.5298 8.22976 14.4398 8.18976 14.3598C8.18976 14.3598 8.18974 14.3398 8.16974 14.3398C8.15974 14.3198 8.13975 14.3098 8.10975 14.2998C8.13975 14.2798 8.16976 14.2498 8.18976 14.2298C8.39976 14.0598 8.76976 13.9398 8.90976 13.8298C9.22976 13.5798 9.31976 13.3298 9.21976 12.8098C9.13976 12.3898 8.65975 12.3498 8.29975 12.5998C8.27975 12.6098 8.25975 12.6098 8.23975 12.5998C8.00975 12.3498 7.59976 12.4698 7.36976 12.7798C7.35976 12.7998 7.32976 12.7998 7.30976 12.7898C7.18976 12.6498 7.02977 12.5698 6.84977 12.5398C6.81977 12.4598 6.79975 12.3698 6.76975 12.2898C6.78975 12.2698 6.79976 12.2498 6.80976 12.2198C6.89976 12.0398 7.04975 11.8898 7.23975 11.8098C7.31975 11.7798 7.35975 11.6898 7.32975 11.5998C7.29975 11.5198 7.19976 11.4798 7.11976 11.5098C7.11976 11.5098 7.11975 11.5098 7.10975 11.5098L7.06977 11.5298C7.26977 11.3698 7.51977 11.2198 7.62977 11.1098C7.92977 10.7898 7.98977 10.4998 7.78977 9.95978C7.62977 9.51978 7.09977 9.55978 6.75977 9.88978C6.71977 9.92978 6.66976 9.92978 6.62977 9.88978C6.50977 9.77978 6.37977 9.67978 6.22977 9.59978C6.15977 9.55978 6.07976 9.52978 5.99976 9.52978C5.97976 9.43978 5.95975 9.33978 5.92975 9.24978C5.94975 9.22978 5.96977 9.20978 5.97977 9.17978C6.05977 9.01978 6.24975 8.85978 6.45975 8.78978C6.53975 8.75978 6.57975 8.65978 6.54975 8.57978C6.51975 8.51978 6.45974 8.47978 6.38974 8.47978C6.57974 8.35978 6.78977 8.24978 6.87977 8.15978C7.20976 7.84978 7.28976 7.55978 7.11976 6.98978C6.97976 6.51978 6.41975 6.53978 6.04975 6.86978C6.00975 6.89978 5.94974 6.89978 5.91974 6.86978C5.79974 6.73978 5.64976 6.61978 5.49976 6.52978C5.47976 6.51978 5.44975 6.49978 5.42975 6.48978V6.45978C5.42975 6.45978 5.43974 6.43978 5.44974 6.42978C5.56974 6.28978 5.72976 6.18978 5.90976 6.14978C5.99976 6.12978 6.04977 6.04978 6.03977 5.95978C6.03977 5.94978 6.03977 5.93978 6.03977 5.92978C6.01977 5.88978 5.98974 5.85978 5.94974 5.84978C6.09974 5.75978 6.23977 5.68978 6.31977 5.61978C6.59977 5.35978 6.66977 5.11978 6.53977 4.63978C6.43977 4.27978 6.03977 4.24978 5.72977 4.44978C5.69977 4.46978 5.66975 4.45978 5.64975 4.42978C5.62975 4.37978 5.59976 4.32978 5.55976 4.27978C5.58976 4.22978 5.61975 4.17978 5.64975 4.12978C5.79975 3.77978 5.74974 3.52978 5.41974 3.14978C5.11974 2.79978 4.63977 3.07978 4.50977 3.52978C4.45977 3.71978 4.50976 4.05978 4.58976 4.36978C4.58976 4.39978 4.58975 4.43978 4.57975 4.46978C4.55975 4.49978 4.54976 4.52978 4.52976 4.56978C4.51976 4.59978 4.47974 4.60978 4.44974 4.59978C4.05974 4.40978 3.58977 4.52978 3.59977 4.93978C3.59977 5.43978 3.74976 5.64978 4.08976 5.82978C4.21976 5.87978 4.34977 5.91978 4.47977 5.93978C4.42977 5.96978 4.38974 6.01978 4.38974 6.07978C4.38974 6.16978 4.45975 6.23978 4.54975 6.23978C4.72975 6.25978 4.89976 6.33978 5.02976 6.45978C5.02976 6.46978 5.04976 6.47978 5.05976 6.48978C4.85976 6.57978 4.70976 6.78978 4.65976 7.04978C4.65976 7.09978 4.59975 7.12978 4.54975 7.11978C4.11975 6.98978 3.67974 7.15978 3.69974 7.59978C3.71974 8.18978 3.88975 8.43978 4.29975 8.63978C4.41975 8.69978 4.65977 8.73978 4.87977 8.79978C4.80976 8.82978 4.76976 8.89978 4.77976 8.96978C4.79976 9.05978 4.87975 9.11978 4.95975 9.10978C5.17975 9.10978 5.40975 9.16978 5.54975 9.28978C5.57975 9.30978 5.60975 9.32978 5.64975 9.33978C5.66975 9.43978 5.69976 9.53978 5.71976 9.63978C5.54976 9.77978 5.44975 9.97978 5.42975 10.1898C5.42975 10.2398 5.37977 10.2798 5.31977 10.2698C5.31977 10.2698 5.30975 10.2698 5.29975 10.2698C4.84975 10.1198 4.35976 10.2998 4.40976 10.7598C4.45976 11.3298 4.64976 11.5598 5.05976 11.7298C5.21976 11.7898 5.54977 11.8198 5.81977 11.8898H5.76975C5.67975 11.8998 5.61977 11.9798 5.62977 12.0698C5.64977 12.1498 5.72977 12.2098 5.81977 12.1998C6.01977 12.1798 6.22975 12.2198 6.39975 12.3298C6.42975 12.3498 6.45975 12.3698 6.48975 12.3798L6.56977 12.6198C6.51977 12.6598 6.47974 12.7198 6.44974 12.7798C6.39974 12.8798 6.34977 12.9798 6.31977 13.0898C6.31977 13.1098 6.28975 13.1198 6.26975 13.1198C5.98975 13.0198 5.68976 13.0698 5.52976 13.2298C5.44976 13.3198 5.40974 13.4398 5.41974 13.5498C5.41974 13.5698 5.39977 13.5898 5.37977 13.5898C4.94976 13.6298 4.61975 13.9598 4.82975 14.3198C5.09975 14.7798 5.33975 14.9098 5.73975 14.8998C5.91975 14.8998 6.27976 14.7598 6.55976 14.7598C6.57976 14.7598 6.59976 14.7598 6.61976 14.7598C6.59976 14.7898 6.59975 14.8298 6.60975 14.8598C6.62975 14.9498 6.71975 14.9998 6.79975 14.9898C6.97975 14.9598 7.16975 14.9998 7.32975 15.0898C7.33975 15.0898 7.35976 15.1098 7.36976 15.1098C7.33976 15.1498 7.30977 15.1898 7.28977 15.2298C7.24977 15.3098 7.21976 15.3798 7.18976 15.4598C7.15976 15.5398 7.07976 15.5798 6.99976 15.5598C6.59976 15.4698 6.18974 15.7098 6.19974 16.0298C6.19974 16.0798 6.16976 16.1098 6.11976 16.1198C5.67976 16.1798 5.34975 16.5298 5.57975 16.9098C5.86975 17.3998 6.12977 17.5398 6.56977 17.5198C6.76977 17.5198 7.14976 17.3598 7.43976 17.3598C7.49976 17.3598 7.54977 17.3598 7.59977 17.3598C7.55977 17.3998 7.54977 17.4698 7.56977 17.5198C7.59977 17.5898 7.67977 17.6398 7.75977 17.6198C7.85977 17.5998 8.00975 17.6198 8.14975 17.6598C8.31975 17.6998 8.45975 17.8198 8.51975 17.9898C9.37975 20.3898 10.2098 22.9998 10.8098 26.4298C9.78976 24.7298 7.17976 23.6198 5.43976 23.6098C5.39976 23.6098 5.36976 23.6398 5.36976 23.6798C5.36976 23.7098 5.38976 23.7298 5.40976 23.7398C6.34976 24.1498 9.46977 25.6198 10.8798 27.4798C10.9598 27.5898 11.0098 27.7098 11.0298 27.8498C11.0398 27.9398 11.0598 28.0298 11.0698 28.1198C11.0698 28.2098 11.1598 28.2698 11.2498 28.2698C11.2598 28.2698 11.2698 28.2698 11.2798 28.2698C11.2898 28.2698 11.2998 28.2498 11.3098 28.2498C11.3598 28.2198 11.3997 28.1598 11.3897 28.0998C11.3897 28.0698 11.3798 28.0398 11.3698 27.9998C11.5498 25.9998 12.6898 24.0098 13.1598 23.2898L13.1498 23.2698Z" fill="#009257"/>
<path d="M9.35969 14.9601C9.29969 14.9901 9.2297 14.9901 9.1797 14.9501C8.9497 14.7701 8.60971 14.8701 8.37971 15.1201C8.31971 15.1801 8.2197 15.1901 8.1497 15.1401C8.0497 15.0501 7.92969 14.9901 7.79969 14.9701C7.79969 14.9701 7.65971 14.9401 7.53971 14.9801C7.39971 15.0301 7.3397 15.1201 7.3397 15.1201C7.3097 15.1501 7.28969 15.1901 7.26969 15.2301C7.22969 15.3101 7.19969 15.3801 7.16969 15.4601C7.13969 15.5401 7.05971 15.5801 6.97971 15.5601C6.57971 15.4701 6.1697 15.7101 6.1797 16.0301C6.1797 16.0801 6.14971 16.1101 6.09971 16.1201C5.65971 16.1801 5.3297 16.5301 5.5597 16.9101C5.8497 17.4001 6.10969 17.5401 6.54969 17.5201C6.74969 17.5201 7.12969 17.3601 7.41969 17.3601H7.43971L9.1497 16.8001C9.1497 16.8001 9.17968 16.7701 9.19968 16.7601C9.41968 16.5801 9.8097 16.4401 9.9697 16.3201C10.3097 16.0501 10.4097 15.7801 10.2897 15.2201C10.1997 14.8001 9.7397 14.7401 9.3697 14.9601H9.35969Z" fill="#783FAA"/>
<path d="M8.31958 12.5699C8.31958 12.5699 8.27959 12.5799 8.25959 12.5699C8.02959 12.3199 7.61956 12.4399 7.38956 12.7499C7.37956 12.7699 7.34956 12.7699 7.32956 12.7599C7.20956 12.6199 7.04957 12.5399 6.86957 12.5099C6.86957 12.5099 6.78957 12.5099 6.70957 12.5299C6.62957 12.5499 6.54956 12.5999 6.54956 12.5999C6.49956 12.6399 6.45957 12.6999 6.42957 12.7599C6.37957 12.8599 6.32956 12.9599 6.29956 13.0699C6.29956 13.0899 6.26958 13.0999 6.24958 13.0999C5.96958 12.9999 5.66959 13.0499 5.50959 13.2099C5.42959 13.2999 5.38957 13.4199 5.39957 13.5299C5.39957 13.5499 5.37956 13.5699 5.35956 13.5699C4.92956 13.6099 4.59957 13.9399 4.80957 14.2999C5.07957 14.7599 5.31958 14.8899 5.71958 14.8799C5.89958 14.8799 6.25959 14.7399 6.53959 14.7399C6.55959 14.7399 6.57957 14.7399 6.58957 14.7399L8.17957 14.2299C8.17957 14.2299 8.19957 14.2099 8.20957 14.2099C8.41957 14.0399 8.78957 13.9199 8.92957 13.8099C9.24957 13.5599 9.33957 13.3099 9.23957 12.7899C9.15957 12.3699 8.67958 12.3299 8.31958 12.5799V12.5699Z" fill="#783FAA"/>
<path d="M6.77953 9.86987C6.77953 9.86987 6.68953 9.90987 6.64953 9.86987C6.52953 9.75987 6.39953 9.65987 6.24953 9.57987C6.18953 9.54987 6.12953 9.51987 6.05953 9.50987C6.05953 9.50987 5.96953 9.48987 5.86953 9.50987C5.80953 9.51987 5.72953 9.57987 5.70953 9.58987C5.53953 9.72987 5.43952 9.92987 5.41952 10.1399C5.41952 10.1899 5.36953 10.2299 5.30953 10.2199C5.30953 10.2199 5.29954 10.2199 5.28954 10.2199C4.83954 10.0699 4.34953 10.2499 4.39953 10.7099C4.44953 11.2799 4.63952 11.5099 5.04952 11.6799C5.20952 11.7399 5.52954 11.7699 5.78954 11.8399L7.10952 11.4699C7.29952 11.3199 7.53952 11.1799 7.63952 11.0699C7.93952 10.7499 7.99952 10.4599 7.79952 9.91987C7.63952 9.47987 7.10952 9.51987 6.76952 9.84987L6.77953 9.86987Z" fill="#783FAA"/>
<path d="M4.07975 5.77974C4.20975 5.82974 4.33976 5.86974 4.46976 5.88974C4.46976 5.88974 4.46975 5.88974 4.45975 5.88974L5.96976 5.79974C6.10976 5.71974 6.24977 5.63974 6.31977 5.57974C6.59977 5.31974 6.66977 5.07974 6.53977 4.59974C6.43977 4.23974 6.03977 4.20974 5.72977 4.40974C5.69977 4.42974 5.66975 4.41974 5.64975 4.38974C5.62975 4.33974 5.59976 4.28974 5.55976 4.23974C5.58976 4.18974 5.61975 4.13974 5.64975 4.08974C5.79975 3.73974 5.74974 3.48974 5.41974 3.10974C5.11974 2.75974 4.63977 3.03974 4.50977 3.48974C4.45977 3.67974 4.50976 4.01974 4.58976 4.32974C4.58976 4.35974 4.58975 4.39974 4.57975 4.42974C4.55975 4.45974 4.54976 4.48974 4.52976 4.52974C4.51976 4.55974 4.47974 4.56974 4.44974 4.55974C4.05974 4.36974 3.58977 4.48974 3.59977 4.89974C3.59977 5.39974 3.74976 5.60974 4.08976 5.78974L4.07975 5.77974Z" fill="#783FAA"/>
<path d="M6.06963 6.83992C6.06963 6.83992 5.96962 6.86992 5.93962 6.83992C5.81962 6.70992 5.66961 6.58992 5.51961 6.49992C5.49961 6.48992 5.47962 6.47992 5.46962 6.46992C5.46962 6.46992 5.36961 6.41992 5.26961 6.41992C5.16961 6.41992 5.04961 6.44992 5.04961 6.44992C4.84961 6.53992 4.69961 6.74992 4.64961 7.00992C4.64961 7.05992 4.58963 7.08992 4.53963 7.07992C4.10963 6.94992 3.66962 7.11992 3.68962 7.55992C3.70962 8.14992 3.87963 8.39992 4.28963 8.59992C4.40963 8.65992 4.62963 8.69992 4.84963 8.74992L6.45961 8.41992C6.63961 8.30992 6.8296 8.20992 6.9196 8.11992C7.2496 7.80992 7.32962 7.51992 7.15962 6.94992C7.01962 6.47992 6.45962 6.49992 6.08962 6.82992L6.06963 6.83992Z" fill="#783FAA"/>
<path d="M9.21933 22.8396C9.21933 22.8396 9.28934 22.8796 9.31934 22.8496C9.33934 22.8296 9.34933 22.7996 9.34933 22.7696C8.00933 17.7996 1.94932 17.3396 0.369324 17.3096C0.329324 17.3096 0.299316 17.3396 0.299316 17.3796C0.299316 17.4096 0.319325 17.4396 0.339325 17.4496C1.77933 18.0296 7.27933 20.3496 9.21933 22.8396Z" fill="#009257"/>
<path d="M3.95953 15.0594C3.95953 15.0594 4.03953 15.0394 4.04953 15.0094C4.04953 14.9794 4.04953 14.9494 4.01953 14.9394C2.15953 13.7194 0.859535 11.5194 0.429535 10.6894C0.409535 10.6594 0.369529 10.6394 0.329529 10.6594C0.299529 10.6694 0.289551 10.6994 0.289551 10.7294C0.399551 11.7094 0.989534 14.3694 3.95953 15.0594Z" fill="#009257"/>
<path d="M9.88971 12.3502C11.6197 10.7602 10.8597 8.7302 10.4897 7.9902C10.4697 7.9602 10.4297 7.9402 10.3897 7.9602C10.3597 7.9702 10.3497 8.0002 10.3497 8.0302C10.3897 8.7702 10.4097 10.6502 9.76972 12.2802C9.75972 12.3202 9.76973 12.3602 9.80973 12.3702C9.83973 12.3702 9.85973 12.3702 9.87973 12.3602L9.88971 12.3502Z" fill="#009257"/>
<path d="M20.4197 23.4602C18.1797 24.2602 18.0598 26.4102 18.0998 27.2302C18.0998 27.2702 18.1398 27.3002 18.1798 27.3002C18.2098 27.3002 18.2298 27.2802 18.2398 27.2502C18.4998 26.5502 19.2498 24.8202 20.4898 23.5702C20.5198 23.5402 20.5198 23.5002 20.4898 23.4702C20.4698 23.4502 20.4397 23.4502 20.4197 23.4502V23.4602Z" fill="#009257"/>
<path d="M10.2695 20.6595C10.2695 20.6595 10.2895 20.7295 10.3295 20.7395C10.3595 20.7395 10.3795 20.7395 10.3995 20.7095C13.7495 16.4895 12.8595 12.7995 12.2995 11.3795C12.2895 11.3395 12.2395 11.3295 12.2095 11.3395C12.1795 11.3495 12.1595 11.3895 12.1695 11.4195C12.4495 12.9995 12.2595 14.8295 11.5295 16.3795C10.7695 17.9695 10.3995 19.9495 10.2795 20.6595H10.2695Z" fill="#009257"/>
<path d="M28.0994 23.0902C27.4094 23.0402 25.4594 23.0802 24.2494 24.7902C24.9994 22.2002 25.4094 19.9902 25.7194 17.9002C25.7394 17.7402 25.8494 17.6002 25.9994 17.5202C26.1294 17.4602 26.2794 17.3902 26.3894 17.3902C26.4794 17.3902 26.5494 17.3202 26.5594 17.2302C26.5594 17.1902 26.5494 17.1602 26.5194 17.1302C26.5494 17.1302 26.5794 17.1202 26.6094 17.1102C26.8894 17.0502 27.3094 17.1102 27.4994 17.0702C27.9294 16.9802 28.1494 16.7802 28.3094 16.2402C28.4294 15.8302 28.0494 15.5702 27.6094 15.6002C27.5394 15.6002 27.4794 15.5602 27.4494 15.5002C27.3294 15.2402 26.9794 15.1702 26.6594 15.2902C26.5794 15.3202 26.4894 15.2902 26.4494 15.2002C26.3894 15.0602 26.2894 14.9302 26.1594 14.8502C26.3094 14.7302 26.4894 14.6702 26.6794 14.6802C26.7694 14.6802 26.8494 14.6102 26.8494 14.5202C26.8494 14.5202 26.8494 14.5002 26.8494 14.4902C26.8494 14.4702 26.8394 14.4402 26.8194 14.4302C26.8594 14.4302 26.8894 14.4102 26.9294 14.4102C27.1994 14.3502 27.5794 14.4102 27.7594 14.3802C28.1594 14.3002 28.3694 14.1202 28.5294 13.6202C28.6594 13.2102 28.2494 12.9602 27.8194 13.0202C27.7994 13.0202 27.7794 13.0102 27.7694 12.9902C27.6794 12.6602 27.2594 12.5902 26.9094 12.7602C26.8894 12.7702 26.8694 12.7602 26.8494 12.7402C26.8094 12.5702 26.7094 12.4102 26.5594 12.3102C26.5794 12.2202 26.5894 12.1402 26.6094 12.0502C26.6294 12.0402 26.6594 12.0302 26.6794 12.0102C26.8394 11.8902 27.0494 11.8302 27.2494 11.8402C27.3394 11.8402 27.4194 11.7802 27.4294 11.7002C27.4394 11.6102 27.3794 11.5302 27.2894 11.5202C27.2894 11.5202 27.2894 11.5202 27.2794 11.5202H27.2394C27.4894 11.4702 27.7894 11.4502 27.9394 11.4002C28.3594 11.2502 28.5494 11.0202 28.6294 10.4602C28.6994 10.0002 28.2094 9.79024 27.7494 9.94024C27.6994 9.96024 27.6494 9.94024 27.6294 9.88024C27.5794 9.72024 27.5094 9.58024 27.4194 9.44024C27.3794 9.37024 27.3194 9.31024 27.2494 9.27024C27.2694 9.18024 27.2994 9.08024 27.3294 8.99024C27.3594 8.99024 27.3794 8.97024 27.3994 8.95024C27.5494 8.84024 27.7894 8.79024 28.0194 8.82024C28.1094 8.82024 28.1894 8.76024 28.1994 8.67024C28.1994 8.60024 28.1694 8.54024 28.1094 8.51024C28.3394 8.49024 28.5694 8.49024 28.6994 8.45024C29.1394 8.32024 29.3494 8.10024 29.4694 7.52024C29.5694 7.04024 29.0594 6.80024 28.5794 6.93024C28.5294 6.94024 28.4794 6.91024 28.4694 6.87024C28.4294 6.70024 28.3494 6.53024 28.2494 6.38024C28.2394 6.36024 28.2194 6.34024 28.1994 6.32024V6.29024C28.1994 6.29024 28.2394 6.29024 28.2494 6.28024C28.4194 6.20024 28.6094 6.19024 28.7894 6.24024C28.8794 6.26024 28.9694 6.21024 28.9894 6.13024C28.9894 6.13024 28.9894 6.11024 28.9894 6.10024C28.9894 6.06024 28.9794 6.01024 28.9494 5.98024C29.1194 5.97024 29.2894 5.97024 29.3794 5.94024C29.7494 5.84024 29.9294 5.65024 30.0394 5.17024C30.1194 4.81024 29.7894 4.60024 29.4094 4.64024C29.3794 4.64024 29.3494 4.62024 29.3394 4.59024C29.3394 4.59024 29.3394 4.59024 29.3394 4.58024C29.3394 4.52024 29.3394 4.46024 29.3394 4.40024C29.3894 4.37024 29.4394 4.34024 29.4894 4.30024C29.7894 4.05024 29.8694 3.81024 29.7594 3.32024C29.6594 2.88024 29.0994 2.90024 28.7694 3.24024C28.6294 3.38024 28.5194 3.72024 28.4394 4.03024C28.4394 4.06024 28.4094 4.09024 28.3794 4.11024C28.3494 4.13024 28.3194 4.15024 28.2894 4.17024C28.2694 4.19024 28.2294 4.19024 28.2094 4.17024C27.9594 3.82024 27.4794 3.72024 27.2894 4.09024C27.0594 4.54024 27.0794 4.79024 27.2994 5.10024C27.3894 5.20024 27.4894 5.29024 27.5894 5.38024C27.5294 5.38024 27.4694 5.41024 27.4394 5.46024C27.3994 5.54024 27.4294 5.63024 27.4994 5.68024C27.6494 5.78024 27.7694 5.93024 27.8194 6.10024C27.8194 6.11024 27.8194 6.13024 27.8294 6.14024C27.6194 6.13024 27.3794 6.25024 27.2094 6.46024C27.1794 6.50024 27.1194 6.51024 27.0794 6.47024C26.7594 6.16024 26.2894 6.11024 26.0894 6.51024C25.8294 7.04024 25.8594 7.35024 26.1294 7.71024C26.2094 7.82024 26.3994 7.96024 26.5694 8.11024C26.4994 8.11024 26.4294 8.15024 26.3994 8.22024C26.3694 8.30024 26.4194 8.39024 26.4994 8.43024C26.6994 8.52024 26.8694 8.69024 26.9394 8.86024C26.9494 8.89024 26.9694 8.92024 26.9994 8.95024C26.9694 9.05024 26.9394 9.15024 26.9194 9.25024C26.7094 9.30024 26.5194 9.43024 26.3994 9.61024C26.3694 9.65024 26.3094 9.66024 26.2694 9.63024C26.2694 9.63024 26.2594 9.63024 26.2494 9.62024C25.9194 9.28024 25.3994 9.22024 25.2194 9.65024C24.9994 10.1802 25.0494 10.4702 25.3294 10.8002C25.4394 10.9302 25.7294 11.1002 25.9194 11.2902L25.8694 11.2702C25.7894 11.2402 25.6894 11.2802 25.6594 11.3602C25.6394 11.4402 25.6794 11.5302 25.7694 11.5602C25.9594 11.6302 26.1194 11.7702 26.2194 11.9402C26.2394 11.9702 26.2594 12.0002 26.2794 12.0202L26.2295 12.2702C26.1595 12.2802 26.0994 12.3102 26.0394 12.3502C25.9494 12.4102 25.8594 12.4902 25.7794 12.5702C25.7594 12.5902 25.7394 12.5902 25.7194 12.5702C25.5194 12.3602 25.2294 12.2602 25.0094 12.3402C24.8994 12.3902 24.8094 12.4702 24.7594 12.5802C24.7594 12.6002 24.7294 12.6102 24.6994 12.6002C24.2994 12.4402 23.8494 12.5802 23.8594 13.0002C23.8794 13.5302 24.0294 13.7602 24.3894 13.9302C24.5494 14.0102 24.9394 14.0502 25.1794 14.1702C25.1994 14.1702 25.2194 14.1902 25.2394 14.2002C25.2094 14.2202 25.1894 14.2502 25.1794 14.2802C25.1594 14.3702 25.2094 14.4502 25.2894 14.4802C25.4694 14.5402 25.6094 14.6602 25.7094 14.8102C25.7094 14.8202 25.7294 14.8402 25.7394 14.8502C25.6894 14.8702 25.6494 14.8902 25.6094 14.9202C25.5394 14.9702 25.4694 15.0202 25.4094 15.0802C25.3494 15.1302 25.2494 15.1402 25.1894 15.0802C24.8794 14.8202 24.3994 14.8402 24.2494 15.1302C24.2294 15.1702 24.1794 15.1902 24.1294 15.1702C23.7094 15.0302 23.2494 15.1902 23.2694 15.6302C23.2994 16.1902 23.4594 16.4402 23.8594 16.6202C24.0394 16.7002 24.4494 16.7402 24.7094 16.8702C24.7594 16.8902 24.8094 16.9202 24.8494 16.9402C24.7894 16.9602 24.7494 17.0102 24.7494 17.0702C24.7494 17.1502 24.7894 17.2202 24.8694 17.2502C24.9694 17.2802 25.0894 17.3702 25.1994 17.4602C25.3294 17.5702 25.3994 17.7502 25.3694 17.9202C24.9894 20.4402 24.4794 23.1402 23.3794 26.4602C23.2894 24.4902 21.4994 22.3102 19.9494 21.5202C19.9194 21.5002 19.8694 21.5202 19.8594 21.5502C19.8494 21.5702 19.8594 21.6002 19.8594 21.6202C20.4994 22.4102 22.5694 25.1302 22.9394 27.4302C22.9594 27.5602 22.9394 27.7002 22.8994 27.8302C22.8694 27.9202 22.8394 28.0002 22.7994 28.0902C22.7594 28.1702 22.7994 28.2702 22.8894 28.3002C22.8994 28.3002 22.9094 28.3002 22.9194 28.3002C22.9994 28.3202 23.0794 28.2702 23.1094 28.2002C23.4294 27.3202 23.7194 26.4902 23.9694 25.6802C25.3794 24.3302 26.2894 24.0502 28.0994 23.2602C28.1394 23.2502 28.1594 23.2102 28.1394 23.1702C28.1294 23.1402 28.0994 23.1202 28.0694 23.1202L28.0994 23.0902Z" fill="#009257"/>
<path d="M27.6094 15.5894C27.5394 15.5894 27.4794 15.5494 27.4494 15.4894C27.3294 15.2294 26.9794 15.1594 26.6594 15.2794C26.5794 15.3094 26.4894 15.2794 26.4494 15.1894C26.3994 15.0694 26.3194 14.9594 26.2194 14.8794C26.2194 14.8794 26.0995 14.7894 25.9795 14.7694C25.8295 14.7494 25.7394 14.7994 25.7394 14.7994C25.6994 14.8194 25.6594 14.8394 25.6194 14.8594C25.5494 14.9094 25.4794 14.9594 25.4194 15.0194C25.3594 15.0694 25.2594 15.0794 25.1994 15.0194C24.8894 14.7594 24.4094 14.7794 24.2594 15.0694C24.2394 15.1094 24.1894 15.1294 24.1394 15.1094C23.7194 14.9694 23.2594 15.1294 23.2794 15.5694C23.3094 16.1294 23.4694 16.3794 23.8694 16.5594C24.0494 16.6394 24.4594 16.6794 24.7194 16.8094C24.7194 16.8094 24.7294 16.8094 24.7394 16.8194L26.5294 17.0994C26.5294 17.0994 26.5694 17.0894 26.5894 17.0794C26.8694 17.0194 27.2895 17.0794 27.4795 17.0394C27.9095 16.9494 28.1294 16.7494 28.2894 16.2094C28.4094 15.7994 28.0294 15.5394 27.5894 15.5694L27.6094 15.5894Z" fill="#783FAA"/>
<path d="M27.8295 12.9896C27.8295 12.9896 27.7896 12.9796 27.7796 12.9596C27.6896 12.6296 27.2695 12.5596 26.9195 12.7296C26.8995 12.7396 26.8795 12.7296 26.8595 12.7096C26.8195 12.5396 26.7196 12.3796 26.5696 12.2796C26.5696 12.2796 26.4995 12.2396 26.4195 12.2296C26.3295 12.2096 26.2496 12.2296 26.2496 12.2296C26.1796 12.2396 26.1196 12.2696 26.0596 12.3096C25.9696 12.3696 25.8795 12.4496 25.7995 12.5296C25.7795 12.5496 25.7595 12.5496 25.7395 12.5296C25.5395 12.3196 25.2496 12.2196 25.0296 12.2996C24.9196 12.3496 24.8296 12.4296 24.7796 12.5396C24.7796 12.5596 24.7496 12.5696 24.7196 12.5596C24.3196 12.3996 23.8696 12.5396 23.8796 12.9596C23.8996 13.4896 24.0496 13.7196 24.4096 13.8896C24.5696 13.9696 24.9595 14.0096 25.1995 14.1296C25.2195 14.1296 25.2296 14.1496 25.2496 14.1596L26.8995 14.4196C26.8995 14.4196 26.9296 14.4196 26.9396 14.4196C27.2096 14.3596 27.5895 14.4196 27.7695 14.3896C28.1695 14.3096 28.3796 14.1296 28.5396 13.6296C28.6696 13.2196 28.2595 12.9696 27.8295 13.0296V12.9896Z" fill="#783FAA"/>
<path d="M27.7393 9.88948C27.7393 9.88948 27.6393 9.88948 27.6193 9.82948C27.5693 9.66948 27.4993 9.52948 27.4093 9.38948C27.3793 9.32948 27.3293 9.28948 27.2793 9.24948C27.2793 9.24948 27.2093 9.19948 27.1093 9.16948C27.0493 9.15948 26.9493 9.16948 26.9193 9.16948C26.7093 9.21948 26.5193 9.34948 26.3993 9.52948C26.3693 9.56948 26.3093 9.57948 26.2693 9.54948C26.2693 9.54948 26.2593 9.54948 26.2493 9.53948C25.9193 9.19948 25.3993 9.13948 25.2193 9.56948C24.9993 10.0995 25.0493 10.3895 25.3293 10.7195C25.4393 10.8495 25.7193 11.0195 25.9093 11.1995L27.2593 11.4695C27.5093 11.4195 27.7793 11.4095 27.9193 11.3595C28.3393 11.2095 28.5293 10.9795 28.6093 10.4195C28.6793 9.95948 28.1893 9.74948 27.7293 9.89948L27.7393 9.88948Z" fill="#783FAA"/>
<path d="M27.2897 5.03969C27.3797 5.13969 27.4796 5.22969 27.5796 5.31969C27.5796 5.31969 27.5797 5.31969 27.5697 5.31969L28.9496 5.91969C29.1096 5.91969 29.2697 5.90969 29.3697 5.87969C29.7397 5.77969 29.9197 5.58969 30.0297 5.10969C30.1097 4.74969 29.7797 4.53969 29.3997 4.57969C29.3697 4.57969 29.3396 4.55969 29.3296 4.52969C29.3296 4.52969 29.3296 4.52969 29.3296 4.51969C29.3296 4.45969 29.3296 4.39969 29.3296 4.33969C29.3796 4.30969 29.4297 4.27969 29.4797 4.23969C29.7797 3.98969 29.8597 3.74969 29.7497 3.25969C29.6497 2.81969 29.0897 2.83969 28.7597 3.17969C28.6197 3.31969 28.5096 3.65969 28.4296 3.96969C28.4296 3.99969 28.3997 4.02969 28.3697 4.04969C28.3397 4.06969 28.3097 4.08969 28.2797 4.10969C28.2597 4.12969 28.2196 4.12969 28.1996 4.10969C27.9496 3.75969 27.4697 3.65969 27.2797 4.02969C27.0497 4.47969 27.0697 4.72969 27.2897 5.03969Z" fill="#783FAA"/>
<path d="M28.5593 6.88945C28.5593 6.88945 28.4593 6.86945 28.4493 6.82945C28.4093 6.65945 28.3293 6.48945 28.2293 6.33945C28.2193 6.31945 28.2093 6.30945 28.1893 6.28945C28.1893 6.28945 28.1293 6.20945 28.0393 6.15945C27.9493 6.10945 27.8293 6.08945 27.8293 6.08945C27.6193 6.07945 27.3793 6.19945 27.2093 6.40945C27.1793 6.44945 27.1193 6.45945 27.0793 6.41945C26.7593 6.10945 26.2893 6.05945 26.0893 6.45945C25.8293 6.98945 25.8593 7.29945 26.1293 7.65945C26.2093 7.75945 26.3893 7.89945 26.5593 8.04945L28.1393 8.48945C28.3493 8.46945 28.5693 8.46945 28.6893 8.42945C29.1293 8.29945 29.3393 8.07945 29.4593 7.49945C29.5593 7.01945 29.0493 6.77945 28.5693 6.90945L28.5593 6.88945Z" fill="#783FAA"/>
<path d="M29.6296 13.6502C31.9196 13.0202 32.2096 10.8802 32.2296 10.0602C32.2296 10.0202 32.1996 9.99023 32.1596 9.99023C32.1296 9.99023 32.0996 10.0102 32.0896 10.0302C31.7696 10.7002 30.8996 12.3802 29.5596 13.5302C29.5296 13.5602 29.5296 13.6002 29.5596 13.6302C29.5796 13.6502 29.6096 13.6602 29.6296 13.6502Z" fill="#009257"/>
<path d="M26.0095 21.18C26.0095 21.18 25.9895 21.26 26.0195 21.28C26.0395 21.3 26.0695 21.3 26.0895 21.28C31.0695 19.05 32.0295 15.38 32.2095 13.87C32.2095 13.83 32.1895 13.8 32.1495 13.79C32.1195 13.79 32.0795 13.81 32.0695 13.84C31.5695 15.37 30.5295 16.91 29.1395 17.94C27.7095 19 26.4395 20.6 25.9995 21.17L26.0095 21.18Z" fill="#009257"/>
</svg>
