<svg width="32" height="32" viewBox="0 0 32 32" fill="none" xmlns="http://www.w3.org/2000/svg">
<path d="M14.5906 22.5552C14.8612 22.5552 15.0806 22.3358 15.0806 22.0652C15.0806 21.7946 14.8612 21.5752 14.5906 21.5752C14.32 21.5752 14.1006 21.7946 14.1006 22.0652C14.1006 22.3358 14.32 22.5552 14.5906 22.5552Z" fill="#009257"/>
<path d="M14.5906 25.4751C14.8612 25.4751 15.0806 25.2557 15.0806 24.9851C15.0806 24.7145 14.8612 24.4951 14.5906 24.4951C14.32 24.4951 14.1006 24.7145 14.1006 24.9851C14.1006 25.2557 14.32 25.4751 14.5906 25.4751Z" fill="#009257"/>
<path d="M21.4207 22.5552C21.6913 22.5552 21.9107 22.3358 21.9107 22.0652C21.9107 21.7946 21.6913 21.5752 21.4207 21.5752C21.15 21.5752 20.9307 21.7946 20.9307 22.0652C20.9307 22.3358 21.15 22.5552 21.4207 22.5552Z" fill="#009257"/>
<path d="M21.4207 25.4751C21.6913 25.4751 21.9107 25.2557 21.9107 24.9851C21.9107 24.7145 21.6913 24.4951 21.4207 24.4951C21.15 24.4951 20.9307 24.7145 20.9307 24.9851C20.9307 25.2557 21.15 25.4751 21.4207 25.4751Z" fill="#009257"/>
<path d="M7.29065 25.4746C5.68065 25.4746 4.37061 26.7846 4.37061 28.3946C4.37061 30.0046 5.68065 31.3146 7.29065 31.3146C8.90065 31.3146 10.2106 30.0046 10.2106 28.3946C10.2106 26.7846 8.90065 25.4746 7.29065 25.4746ZM8.3006 28.7246C8.4906 28.9146 8.4906 29.2246 8.3006 29.4146C8.1106 29.6046 7.8006 29.6046 7.6106 29.4146L7.28064 29.0846C7.02064 29.3046 6.9206 29.5546 6.6106 29.5546C6.3406 29.5546 6.12061 29.3346 6.12061 29.0646C6.12061 28.9346 6.17062 28.8146 6.26062 28.7246L6.59064 28.3946L6.26062 28.0646C6.07062 27.8746 6.07062 27.5646 6.26062 27.3746C6.45062 27.1846 6.76062 27.1846 6.95062 27.3746L7.28064 27.7046L7.6106 27.3746C7.8006 27.1846 8.1106 27.1846 8.3006 27.3746C8.4906 27.5646 8.4906 27.8746 8.3006 28.0646L7.97064 28.3946L8.3006 28.7246Z" fill="#009257"/>
<path d="M12.1608 14.7543C12.1108 12.3543 12.2708 12.2243 12.0208 11.9743L11.1908 11.1443V10.3743C11.1908 10.1043 10.9708 9.88429 10.7008 9.88429C10.4308 9.88429 10.2108 10.1043 10.2108 10.3743V11.1443L9.3808 11.9743C9.2908 12.0643 9.24078 12.3143 9.24078 12.3143C9.20078 11.4643 9.33083 11.2243 9.10083 10.9943L8.27081 10.1643V9.39429C8.27081 9.12429 8.05082 8.9043 7.78082 8.9043C7.51082 8.9043 7.29083 9.12429 7.29083 9.39429V10.1643C6.56083 10.9443 6.3208 11.0043 6.3208 11.3443V14.7543H12.1708H12.1608Z" fill="#783FAA"/>
<path d="M30.1807 13.785H28.7207C28.5707 13.785 28.4207 13.855 28.3307 13.975L27.0107 15.725H25.7907V8.90504C25.7907 8.63504 25.5707 8.41504 25.3007 8.41504C25.0307 8.41504 24.8107 8.63504 24.8107 8.90504V15.725H3.37067V8.90504C3.37067 8.63504 3.15068 8.41504 2.88068 8.41504C2.61068 8.41504 2.39069 8.63504 2.39069 8.90504V15.725H0.930664C0.660664 15.725 0.440674 15.945 0.440674 16.215V17.675C0.440674 18.215 0.880706 18.645 1.41071 18.645V20.595H7.26068C7.53068 20.595 7.75067 20.815 7.75067 21.085C7.75067 21.355 7.53068 21.575 7.26068 21.575H1.41071V22.545H7.26068C7.53068 22.545 7.75067 22.765 7.75067 23.035C7.75067 23.305 7.53068 23.525 7.26068 23.525H1.41071V27.905H0.920654C0.650654 27.905 0.430664 28.125 0.430664 28.395C0.430664 28.665 0.650654 28.885 0.920654 28.885H3.39069C3.12069 26.745 4.63069 24.805 6.77069 24.535C8.91069 24.265 10.8507 25.775 11.1207 27.915C11.1607 28.235 11.1607 28.565 11.1207 28.895H24.0707L25.8707 31.145C26.0407 31.355 26.3407 31.385 26.5507 31.225C26.7607 31.055 26.7907 30.755 26.6307 30.545L25.3107 28.905H27.2207C27.4907 28.905 27.7107 28.685 27.7107 28.415C27.7107 28.145 27.4907 27.925 27.2207 27.925H26.7307V18.665C27.2707 18.665 27.7007 18.225 27.7007 17.695V16.395L28.9207 14.775H30.1407C30.4107 14.775 30.6307 14.995 30.6307 15.265C30.6307 15.535 30.4107 15.755 30.1407 15.755H29.6507C29.3807 15.755 29.1607 15.975 29.1607 16.245C29.1607 16.515 29.3807 16.735 29.6507 16.735H30.1407C30.9507 16.735 31.6007 16.085 31.6007 15.275C31.6007 14.465 30.9507 13.815 30.1407 13.815L30.1807 13.785ZM23.8507 21.575H23.3607C23.0907 21.575 22.8707 21.795 22.8707 22.065C22.8707 22.335 23.0907 22.555 23.3607 22.555H23.8507V24.505H23.3607C23.0907 24.505 22.8707 24.725 22.8707 24.995C22.8707 25.265 23.0907 25.485 23.3607 25.485H23.8507V25.725C23.8507 26.395 23.3007 26.945 22.6307 26.945H13.3707C12.7007 26.945 12.1507 26.395 12.1507 25.725V25.485H12.6407C12.9107 25.485 13.1307 25.265 13.1307 24.995C13.1307 24.725 12.9107 24.505 12.6407 24.505H12.1507V22.555H12.6407C12.9107 22.555 13.1307 22.335 13.1307 22.065C13.1307 21.795 12.9107 21.575 12.6407 21.575H12.1507V20.845C12.1507 20.175 12.7007 19.625 13.3707 19.625H22.6307C23.3007 19.625 23.8507 20.175 23.8507 20.845V21.575Z" fill="#009257"/>
<path d="M21.9008 14.7552V12.8052C21.9008 12.5352 21.6808 12.3152 21.4108 12.3152H18.9708V10.8552C18.9708 10.5852 18.7508 10.3652 18.4808 10.3652H15.5608C15.2908 10.3652 15.0708 10.5852 15.0708 10.8552V14.7552H21.8908H21.9008Z" fill="#783FAA"/>
<path d="M25.2407 0.364761C25.1507 0.224761 24.9907 0.134766 24.8307 0.134766H23.1807L24.7808 3.32477C24.9008 3.56477 24.8107 3.85476 24.5707 3.98476C24.3307 4.10476 24.0408 4.01477 23.9108 3.77477L22.1008 0.14476H20.6707L21.8807 3.38477C21.9707 3.63477 21.8508 3.91477 21.5908 4.01477C21.3408 4.10477 21.0608 3.98476 20.9608 3.72476L19.6207 0.14476H18.1508L18.9708 3.43477C19.0408 3.69477 18.8807 3.96477 18.6207 4.02477C18.3607 4.09476 18.0908 3.93476 18.0308 3.67476L17.1508 0.14476H15.6508L16.0707 3.49477C16.1007 3.76477 15.9108 4.00476 15.6508 4.03476C15.3808 4.06476 15.1407 3.87476 15.1107 3.61476L14.6807 0.14476H13.5908L13.1608 3.61476C13.1308 3.88476 12.8907 4.07477 12.6207 4.04477C12.3507 4.01477 12.1607 3.77476 12.1907 3.50476L12.6107 0.15477H11.1107L10.2308 3.68477C10.1708 3.94477 9.90075 4.10477 9.64075 4.04477C9.38075 3.98477 9.22076 3.71476 9.28076 3.45476L10.1008 0.164764H8.63074L7.29077 3.74477C7.20077 3.99477 6.92072 4.12476 6.67072 4.03476C6.42072 3.94476 6.29074 3.66476 6.38074 3.41476C6.38074 3.41476 6.38074 3.41477 6.38074 3.40477L7.59076 0.164764H6.16077L4.35077 3.79477C4.23077 4.03477 3.94074 4.13477 3.70074 4.01477C3.46074 3.89477 3.36077 3.60476 3.48077 3.36476L5.08075 0.174759H3.43073C3.26073 0.174759 3.11075 0.26477 3.02075 0.40477C3.02075 0.40477 0.510742 4.47476 0.510742 4.56476V6.02477C0.510742 7.11477 1.18073 7.54476 2.00073 7.52477C2.79073 7.50477 3.44073 7.12476 3.44073 6.06476V6.02477C3.44073 7.11477 4.11073 7.54476 4.93073 7.52477C5.72073 7.50477 6.37073 7.12476 6.37073 6.06476V6.02477C6.37073 7.11477 7.04072 7.54476 7.86072 7.52477C8.65072 7.50477 9.30072 7.12476 9.30072 6.06476V6.02477C9.30072 7.11477 9.97077 7.54476 10.7908 7.52477C11.5808 7.50477 12.2308 7.12476 12.2308 6.06476V6.02477C12.2308 7.11477 13.1208 7.54476 14.2108 7.52477C15.2708 7.50477 16.1307 7.12476 16.1307 6.06476V6.02477C16.1307 7.11477 16.8007 7.54476 17.6207 7.52477C18.4107 7.50477 19.0607 7.12476 19.0607 6.06476V6.02477C19.0607 7.11477 19.7307 7.54476 20.5507 7.52477C21.3407 7.50477 21.9907 7.12476 21.9907 6.06476V6.02477C21.9907 7.11477 22.6608 7.54476 23.4808 7.52477C24.2708 7.50477 24.9207 7.12476 24.9207 6.06476V6.02477C24.9207 7.11477 25.5908 7.54476 26.4108 7.52477C27.2008 7.50477 27.8508 7.12476 27.8508 6.06476V4.56476C27.8508 4.47476 25.3408 0.40477 25.3408 0.40477L25.2407 0.364761Z" fill="#009257"/>
</svg>
