<svg width="60" height="60" viewBox="0 0 60 60" fill="none" xmlns="http://www.w3.org/2000/svg">
<path d="M19.0551 44.5V15.1018H30.6536C32.8834 15.1018 34.783 15.5276 36.3524 16.3793C37.9218 17.2215 39.1181 18.3938 39.9411 19.8962C40.7736 21.3891 41.1899 23.1116 41.1899 25.0639C41.1899 27.0161 40.7688 28.7387 39.9267 30.2315C39.0846 31.7244 37.8644 32.8871 36.2663 33.7197C34.6777 34.5523 32.7542 34.9685 30.4957 34.9685H23.1031V29.9875H29.4909C30.6871 29.9875 31.6728 29.7818 32.448 29.3703C33.2327 28.9492 33.8164 28.3702 34.1992 27.6333C34.5916 26.8869 34.7878 26.0304 34.7878 25.0639C34.7878 24.0878 34.5916 23.2361 34.1992 22.5088C33.8164 21.7719 33.2327 21.2025 32.448 20.8006C31.6632 20.3891 30.668 20.1833 29.4622 20.1833H25.2707V44.5H19.0551Z" fill="black"/>
</svg>
