<svg width="35" height="35" viewBox="0 0 35 35" fill="none" xmlns="http://www.w3.org/2000/svg">
<g clip-path="url(#clip0_386_226)">
<path d="M34.5163 21.5888C36.7742 12.1912 30.9863 2.74264 21.5888 0.484753C12.1912 -1.77313 2.74263 4.0147 0.484748 13.4122C-1.77314 22.8098 4.0147 32.2584 13.4122 34.5163C22.8098 36.7742 32.2584 30.9863 34.5163 21.5888Z" fill="#006A4E"/>
<path d="M31.908 20.9459C33.814 12.9885 28.9084 4.99261 20.951 3.08661C12.9936 1.18061 4.99774 6.08624 3.09174 14.0436C1.18574 22.001 6.09137 29.9969 14.0488 31.9029C22.0062 33.8089 30.002 28.9033 31.908 20.9459Z" fill="#006A4E"/>
<path d="M15.7709 24.8648H18.5321V17.9527H20.456L20.6597 15.6395H18.5276V14.3223C18.5276 13.7746 18.6362 13.5618 19.1659 13.5618H20.6597V11.1627H18.7494C16.6943 11.1627 15.7709 12.068 15.7709 13.7972V15.6441H14.3359V17.9889H15.7709V24.8694V24.8648Z" fill="white"/>
</g>
<defs>
<clipPath id="clip0_386_226">
<rect width="35" height="35" fill="white"/>
</clipPath>
</defs>
</svg>
