<svg width="286" height="155" viewBox="0 0 286 155" fill="none" xmlns="http://www.w3.org/2000/svg">
<path d="M34.8597 147.445V153.645H28.9997V147.395C28.9997 140.175 24.2197 136.085 13.9897 136.085H8.35968V153.655H2.67969V113.855H8.35968V131.815L27.4097 113.855H33.8297V125.795H28.2597V119.595L15.5297 131.475H16.8897C27.5197 131.475 34.8497 137.385 34.8497 147.455L34.8597 147.445Z" fill="#009257"/>
<path d="M75.4003 145.225V153.635H42.8203V128.735C42.8203 119.695 49.4103 113.275 58.7403 113.275C67.5503 113.275 73.5203 117.935 73.5203 124.875C73.5203 128.565 71.3603 131.695 68.1203 133.235C72.6103 134.945 75.4003 139.375 75.4003 145.235V145.225ZM48.5003 129.195V134.595C50.8903 132.605 54.6403 131.415 59.2403 131.245C64.4703 131.075 67.7103 128.745 67.7103 125.105C67.7103 121.065 64.3603 118.625 58.7803 118.625C52.4103 118.625 48.4903 122.605 48.4903 129.195H48.5003ZM69.7103 144.485C69.7103 139.535 65.3303 136.075 59.1403 136.075C52.9503 136.075 48.5103 139.205 48.5103 143.355V148.415H69.7203V144.495L69.7103 144.485Z" fill="#009257"/>
<path d="M88.7601 113.845V153.645H83.0801V113.845H88.7601Z" fill="#009257"/>
<path d="M134.24 127.485H128.78V119.295H117.75V153.635H112.07V119.295H101.04V132.035H95.5801V113.845H134.24V127.485Z" fill="#009257"/>
<path d="M137.08 133.735C137.08 122.195 146.12 113.265 157.83 113.265C169.54 113.265 178.58 122.195 178.58 133.735C178.58 145.275 169.54 154.205 157.83 154.205C146.12 154.205 137.08 145.275 137.08 133.735ZM172.62 133.735C172.62 125.265 166.2 118.725 157.84 118.725C149.48 118.725 143.06 125.265 143.06 133.735C143.06 142.205 149.48 148.745 157.84 148.745C166.2 148.745 172.62 142.205 172.62 133.735Z" fill="#009257"/>
<path d="M215.259 153.635L200.759 126.295L185.469 153.635H178.879L197.749 120.605L194.169 113.845H200.989L222.079 153.645H215.259V153.635Z" fill="#009257"/>
<path d="M260.971 113.275C269.781 113.275 277.171 118.675 279.791 126.915H273.481C271.211 122.025 266.941 118.725 260.971 118.725C252.781 118.725 246.531 125.265 246.531 133.735C246.531 142.205 252.781 148.745 260.971 148.745C266.941 148.745 271.201 145.445 273.481 140.555H279.791C277.171 148.795 269.781 154.195 260.971 154.195C249.431 154.195 240.561 145.265 240.561 133.725C240.561 122.185 249.431 113.255 260.971 113.255V113.275Z" fill="#009257"/>
<path d="M282.32 43.9351C282.52 43.6251 282.71 43.315 282.87 42.975C283.79 41.045 284.06 38.705 283.62 36.405C283.18 34.105 282.08 32.025 280.51 30.575C280.23 30.315 279.94 30.0951 279.65 29.8851C280.09 28.2051 279.99 26.2651 279.22 24.3551C278.33 22.1351 276.75 20.515 274.96 19.705C274.94 19.525 274.93 19.3451 274.9 19.1651C274.63 17.5851 273.84 15.945 272.66 14.545C271.48 13.145 270 12.0951 268.49 11.5851C268.07 11.4451 267.65 11.345 267.24 11.285C267.19 11.285 267.15 11.255 267.12 11.205C266.42 9.99505 265.37 8.79505 263.89 7.94505C261.9 6.79505 260.26 6.55504 258.41 6.37504C258.38 6.37504 258.35 6.36505 258.33 6.34505C257.54 5.69505 256.47 4.85505 254.93 4.28505C252.9 3.53505 251.35 3.52505 250.18 3.61505C250.15 3.61505 250.13 3.61505 250.1 3.59505C249.43 3.25505 248.16 2.42504 246.28 2.07504C244.8 1.79504 243.53 1.82505 242.4 1.88505C242.38 1.88505 242.36 1.88505 242.34 1.88505C241.62 1.62505 238.18 0.945054 235.6 1.02505C235.6 1.02505 240.31 7.34504 240.49 7.43504C240.52 7.45504 240.69 7.54505 240.96 7.59505C241.26 7.64505 242.05 7.66505 242.05 7.66505C242.95 7.46505 244.13 7.48505 244.93 7.66505C246.46 8.02505 246.83 8.59504 247.28 8.82504C247.28 8.82504 248.05 9.17506 248.32 9.24506C248.63 9.31506 249.57 9.33505 249.57 9.33505C249.97 9.24505 251.52 9.21505 252.66 9.66505C254.17 10.2551 254.94 11.305 255.25 11.565C255.57 11.835 256.35 12.1751 256.76 12.2751C257.24 12.3851 258.73 12.315 258.73 12.315C259.58 12.395 260.2 12.595 260.73 12.935C261.78 13.605 262.14 14.1051 262.26 14.3351C262.26 14.3351 263.18 15.8451 263.64 16.1951C264.28 16.6851 265.69 16.9251 266.39 17.1351C266.83 17.2651 267.41 17.4751 268.18 18.3851C268.95 19.2951 269.03 20.1451 269.12 20.3651C269.2 20.5751 269.68 22.2551 270 22.7451C270.46 23.4551 272.45 24.8551 272.45 24.8551C272.7 25.0351 273.29 25.525 273.78 26.575C274.53 28.175 273.89 31.155 273.89 31.905C273.89 33.705 275.65 33.955 276.53 34.925C277.12 35.565 277.68 36.445 277.85 37.515C278.05 38.755 277.82 39.705 277.58 40.405C277.4 40.915 276.61 43.155 276.48 44.265C276.39 45.025 276.99 46.375 277.45 46.855C278.81 48.295 280.2 49.835 279.79 52.855C279.38 55.865 277.66 57.3851 275.6 58.2851C275.1 58.5051 274.01 59.0051 273.75 59.4951C273.42 60.1351 273.6 61.6951 273.85 62.3651C274.97 65.4551 275.63 69.195 273.27 72.955C270.91 76.715 267.6 77.5551 264.67 77.5651C264.07 77.5651 262.76 77.445 262.06 77.675C261.85 77.745 261.69 77.925 261.64 78.135C260.2 83.885 260.76 84.705 258.5 87.915C256.55 90.695 253.42 92.905 249.69 94.135C245.96 95.365 242.15 95.4551 238.94 94.3751C236.78 93.6451 234.85 92.3551 233.78 90.8351C233.75 90.7951 233.74 90.7351 233.75 90.6851C234.89 83.9451 237.49 80.1051 242.47 73.4951L245.48 69.8451L245.61 69.6851C246.82 68.0851 248 66.665 248.98 65.255C249 65.215 249.04 65.195 249.08 65.195C251.79 64.875 256.55 64.075 260.89 62.265C263.71 61.085 266.6 56.4651 268.71 54.6851C269.46 54.0551 273.07 50.815 274.14 49.855C274.25 49.755 274.19 49.5651 274.04 49.5551C271.52 49.4751 267.99 51.275 265.88 53.135L265.58 52.9951C265.76 49.7151 266.02 45.3851 266.13 43.5851C266.48 37.9051 267.68 35.275 268.38 34.205C268.49 34.045 268.29 33.8651 268.13 33.9751C264 36.8451 261.74 49.335 261.48 50.825C261.04 53.355 260.82 54.8851 260.75 56.6551C260.4 56.8151 260.05 56.9651 259.68 57.0951C257.56 57.8351 255.23 58.365 253.14 58.725C253.01 58.745 252.91 58.615 252.97 58.485C254.06 56.145 254.86 53.715 255.42 50.8951C256.01 47.9051 256.32 44.485 256.41 40.265C256.41 40.245 256.41 40.2251 256.42 40.2151C256.54 39.8951 256.66 39.5751 256.79 39.2151C257.31 37.7951 260.66 26.635 259.73 21.535C259.7 21.345 259.42 21.345 259.39 21.535C259.17 22.865 258.48 25.725 256.38 30.595C256.11 31.215 255.66 32.1551 255.12 33.2251C255.04 33.2151 254.99 33.135 254.93 33.075C251.99 29.965 250.27 24.5551 248.68 21.0851C248.07 19.7651 246.03 15.955 245.05 14.145C244.96 13.965 244.69 14.065 244.72 14.255C244.99 15.695 245.33 17.4951 245.71 19.7251C246.19 22.4951 246.98 25.4151 247.06 25.9151C247.66 29.5251 248.39 32.7451 250.36 35.8851C250.37 35.9051 250.38 35.935 250.39 35.955C250.53 37.245 250.59 38.565 250.57 39.935C250.48 45.195 250.04 48.965 249.12 52.175V52.195C247.51 55.975 245.81 59.565 243.72 62.575C241.58 65.665 239.46 67.9251 237.45 70.4351C237.45 70.4351 237.44 70.445 237.43 70.455C234.54 74.325 232.36 77.495 230.77 80.825C229.31 83.885 228.35 87.0851 227.8 91.0951V91.195C227.45 93.625 227.27 96.3551 227.21 99.5351C227.19 100.535 227.24 102.485 227.24 102.485V153.555H233.09V102.485L233.06 99.6451C233.07 99.0651 233.1 98.675 233.17 98.385C233.2 98.265 233.34 98.2151 233.44 98.2851C234.57 99.0151 235.73 99.5251 237.13 99.9951C239.22 100.695 241.47 101.045 243.78 101.045C246.34 101.045 248.98 100.615 251.56 99.765C256.47 98.145 260.65 95.1451 263.33 91.3351C265.1 88.8151 266.09 86.125 266.27 83.455C266.31 83.455 266.35 83.455 266.39 83.455C270.7 83.455 275.36 80.765 278.28 76.105C281.09 71.625 281.58 66.4651 279.97 62.5851C279.94 62.5151 279.97 62.435 280.03 62.385C282.61 60.715 285.12 57.475 285.65 53.635C286.19 49.705 284.51 46.215 282.37 43.915L282.32 43.9351Z" fill="#009257"/>
<path d="M228.96 2.71515L226.84 0.765137L224.76 2.74515C224.45 3.04515 217.29 9.92515 214.19 19.7151C215.99 20.8651 217.77 22.2251 219.48 23.8151L219.54 23.5451C220.96 17.4551 224.67 12.2851 226.9 9.59514C230.19 13.5851 235.42 21.6151 235.23 32.1851C235.04 42.7151 233.44 47.0251 229.08 53.2451C227.6 44.3751 225.46 39.0651 216.94 30.1551C204.82 17.4751 188.1 18.0751 187.4 18.1051L184.62 18.2351L184.46 21.0351C184.43 21.4951 183.88 32.0052 188.59 40.8152C190.68 40.3152 192.91 39.9751 195.26 39.8551C191.77 34.8651 190.88 28.2351 190.67 24.4551C195.83 24.9251 205.22 26.8751 212.5 34.4851C219.71 42.0251 221.58 46.1251 222.86 53.4451C215.92 48.5351 210.58 46.2951 198.5 46.0751C198.28 46.0751 198.05 46.0751 197.83 46.0751C180.7 46.0751 169.62 58.1152 169.16 58.6252L167.23 60.7551L169.19 62.8551C169.5 63.1851 176.56 70.6451 186.51 73.6751C187.66 71.8551 189.03 70.0651 190.63 68.3251L189.62 68.0751C183.67 66.6151 178.62 62.9151 175.99 60.7051C179.94 57.4051 187.9 52.1251 198.37 52.2951C208.88 52.4851 213.19 54.1451 219.48 58.6651C210.99 60.1351 205.58 62.3651 196.84 70.8651C184.22 83.1451 184.86 99.9551 184.89 100.665L185.02 103.545L187.9 103.625C187.96 103.625 188.12 103.625 188.35 103.625C190.87 103.625 199.48 103.275 207.46 99.0451C206.99 96.9551 206.68 94.7252 206.58 92.3752L206.33 92.5352C201.03 95.9052 194.7 96.9351 191.2 97.2551C191.68 92.0751 193.63 82.6351 201.13 75.3351C208.63 68.0451 212.74 66.1451 220.09 64.8551C215.2 71.8651 212.97 77.2651 212.76 89.4551C212.58 99.2851 216.37 107.205 219.58 112.125L219.72 112.325C220.21 112.955 220.72 113.515 221.24 114.015L221.41 114.175V102.355C219.7 98.1551 218.86 93.8652 218.94 89.5652C219.17 76.8952 221.43 73.2551 227.94 64.6151L230.94 61.1552L231.07 60.9951C238.36 51.3151 241.14 46.3251 241.39 32.2951C241.71 14.6251 229.47 3.18514 228.95 2.70514L228.96 2.71515Z" fill="#783FAA"/>
<path d="M1.78592 103.645V97.285H2.97392L5.70992 101.989H5.22992L8.03792 97.285H9.11792V103.645H8.07392V98.581L8.26592 98.689L5.69792 102.925H5.19392L2.61392 98.605L2.84192 98.557V103.645H1.78592ZM11.3601 103.645V97.285H12.5121V103.645H11.3601ZM11.9361 96.061C11.7121 96.061 11.5241 95.989 11.3721 95.845C11.2281 95.701 11.1561 95.525 11.1561 95.317C11.1561 95.101 11.2281 94.921 11.3721 94.777C11.5241 94.633 11.7121 94.561 11.9361 94.561C12.1601 94.561 12.3441 94.633 12.4881 94.777C12.6401 94.913 12.7161 95.085 12.7161 95.293C12.7161 95.509 12.6441 95.693 12.5001 95.845C12.3561 95.989 12.1681 96.061 11.9361 96.061ZM17.5306 103.717C16.8826 103.717 16.3026 103.577 15.7906 103.297C15.2866 103.017 14.8906 102.633 14.6026 102.145C14.3146 101.657 14.1706 101.097 14.1706 100.465C14.1706 99.833 14.3146 99.273 14.6026 98.785C14.8906 98.297 15.2866 97.917 15.7906 97.645C16.3026 97.365 16.8826 97.225 17.5306 97.225C18.1066 97.225 18.6186 97.341 19.0666 97.573C19.5226 97.797 19.8746 98.133 20.1226 98.581L19.2466 99.145C19.0386 98.833 18.7826 98.605 18.4786 98.461C18.1826 98.309 17.8626 98.233 17.5186 98.233C17.1026 98.233 16.7306 98.325 16.4026 98.509C16.0746 98.693 15.8146 98.953 15.6226 99.289C15.4306 99.617 15.3346 100.009 15.3346 100.465C15.3346 100.921 15.4306 101.317 15.6226 101.653C15.8146 101.989 16.0746 102.249 16.4026 102.433C16.7306 102.617 17.1026 102.709 17.5186 102.709C17.8626 102.709 18.1826 102.637 18.4786 102.493C18.7826 102.341 19.0386 102.109 19.2466 101.797L20.1226 102.349C19.8746 102.789 19.5226 103.129 19.0666 103.369C18.6186 103.601 18.1066 103.717 17.5306 103.717ZM21.614 103.645V97.285H22.766V102.637H26.246V97.285H27.398V103.645H21.614ZM27.314 105.121V103.585L27.602 103.645H26.246V102.637H28.406V105.121H27.314ZM32.7312 103.717C32.0512 103.717 31.4512 103.577 30.9312 103.297C30.4192 103.017 30.0192 102.633 29.7312 102.145C29.4512 101.657 29.3112 101.097 29.3112 100.465C29.3112 99.833 29.4472 99.273 29.7192 98.785C29.9992 98.297 30.3792 97.917 30.8592 97.645C31.3472 97.365 31.8952 97.225 32.5032 97.225C33.1192 97.225 33.6632 97.361 34.1352 97.633C34.6072 97.905 34.9752 98.289 35.2392 98.785C35.5112 99.273 35.6472 99.845 35.6472 100.501C35.6472 100.549 35.6432 100.605 35.6352 100.669C35.6352 100.733 35.6312 100.793 35.6232 100.849H30.2112V100.021H35.0232L34.5552 100.309C34.5632 99.901 34.4792 99.537 34.3032 99.217C34.1272 98.897 33.8832 98.649 33.5712 98.473C33.2672 98.289 32.9112 98.197 32.5032 98.197C32.1032 98.197 31.7472 98.289 31.4352 98.473C31.1232 98.649 30.8792 98.901 30.7032 99.229C30.5272 99.549 30.4392 99.917 30.4392 100.333V100.525C30.4392 100.949 30.5352 101.329 30.7272 101.665C30.9272 101.993 31.2032 102.249 31.5552 102.433C31.9072 102.617 32.3112 102.709 32.7672 102.709C33.1432 102.709 33.4832 102.645 33.7872 102.517C34.0992 102.389 34.3712 102.197 34.6032 101.941L35.2392 102.685C34.9512 103.021 34.5912 103.277 34.1592 103.453C33.7352 103.629 33.2592 103.717 32.7312 103.717ZM41.917 103.645V97.993L42.205 98.293H39.589V97.285H45.397V98.293H42.793L43.069 97.993V103.645H41.917ZM46.575 103.645V97.285H49.527C50.271 97.285 50.855 97.429 51.279 97.717C51.711 97.997 51.927 98.397 51.927 98.917C51.927 99.437 51.723 99.841 51.315 100.129C50.915 100.409 50.383 100.549 49.719 100.549L49.899 100.237C50.659 100.237 51.223 100.377 51.591 100.657C51.959 100.937 52.143 101.349 52.143 101.893C52.143 102.445 51.935 102.877 51.519 103.189C51.111 103.493 50.483 103.645 49.635 103.645H46.575ZM47.703 102.757H49.551C50.031 102.757 50.391 102.685 50.631 102.541C50.871 102.389 50.991 102.149 50.991 101.821C50.991 101.485 50.879 101.241 50.655 101.089C50.439 100.929 50.095 100.849 49.623 100.849H47.703V102.757ZM47.703 100.021H49.431C49.871 100.021 50.203 99.941 50.427 99.781C50.659 99.613 50.775 99.381 50.775 99.085C50.775 98.781 50.659 98.553 50.427 98.401C50.203 98.249 49.871 98.173 49.431 98.173H47.703V100.021ZM56.6701 103.717C56.0301 103.717 55.4621 103.577 54.9661 103.297C54.4701 103.017 54.0781 102.633 53.7901 102.145C53.5021 101.649 53.3581 101.089 53.3581 100.465C53.3581 99.833 53.5021 99.273 53.7901 98.785C54.0781 98.297 54.4701 97.917 54.9661 97.645C55.4621 97.365 56.0301 97.225 56.6701 97.225C57.3021 97.225 57.8661 97.365 58.3621 97.645C58.8661 97.917 59.2581 98.297 59.5381 98.785C59.8261 99.265 59.9701 99.825 59.9701 100.465C59.9701 101.097 59.8261 101.657 59.5381 102.145C59.2581 102.633 58.8661 103.017 58.3621 103.297C57.8661 103.577 57.3021 103.717 56.6701 103.717ZM56.6701 102.709C57.0781 102.709 57.4421 102.617 57.7621 102.433C58.0901 102.249 58.3461 101.989 58.5301 101.653C58.7141 101.309 58.8061 100.913 58.8061 100.465C58.8061 100.009 58.7141 99.617 58.5301 99.289C58.3461 98.953 58.0901 98.693 57.7621 98.509C57.4421 98.325 57.0781 98.233 56.6701 98.233C56.2621 98.233 55.8981 98.325 55.5781 98.509C55.2581 98.693 55.0021 98.953 54.8101 99.289C54.6181 99.617 54.5221 100.009 54.5221 100.465C54.5221 100.913 54.6181 101.309 54.8101 101.653C55.0021 101.989 55.2581 102.249 55.5781 102.433C55.8981 102.617 56.2621 102.709 56.6701 102.709ZM65.3296 100.081V100.945H61.7536V100.081H65.3296ZM64.4776 103.717C63.8136 103.717 63.2216 103.581 62.7016 103.309C62.1896 103.029 61.7856 102.641 61.4896 102.145C61.1936 101.649 61.0456 101.089 61.0456 100.465C61.0456 99.833 61.1936 99.273 61.4896 98.785C61.7856 98.297 62.1896 97.913 62.7016 97.633C63.2216 97.345 63.8136 97.201 64.4776 97.201C65.0296 97.201 65.5336 97.289 65.9896 97.465C66.4456 97.641 66.8296 97.901 67.1416 98.245L66.4696 98.905C66.2056 98.649 65.9096 98.461 65.5816 98.341C65.2536 98.213 64.8976 98.149 64.5136 98.149C64.0576 98.149 63.6456 98.249 63.2776 98.449C62.9176 98.649 62.6336 98.925 62.4256 99.277C62.2176 99.621 62.1136 100.017 62.1136 100.465C62.1136 100.913 62.2176 101.313 62.4256 101.665C62.6336 102.017 62.9176 102.293 63.2776 102.493C63.6456 102.685 64.0576 102.781 64.5136 102.781C64.8976 102.781 65.2536 102.721 65.5816 102.601C65.9096 102.473 66.2056 102.277 66.4696 102.013L67.1416 102.685C66.8296 103.021 66.4456 103.277 65.9896 103.453C65.5336 103.629 65.0296 103.717 64.4776 103.717ZM68.5354 103.645V97.285H69.6874V103.645H68.5354ZM69.9634 96.145C69.7954 96.145 69.6554 96.089 69.5434 95.977C69.4314 95.857 69.3754 95.713 69.3754 95.545C69.3754 95.369 69.4314 95.225 69.5434 95.113C69.6554 94.993 69.7954 94.933 69.9634 94.933C70.1314 94.933 70.2714 94.993 70.3834 95.113C70.5034 95.225 70.5634 95.369 70.5634 95.545C70.5634 95.713 70.5034 95.857 70.3834 95.977C70.2714 96.089 70.1314 96.145 69.9634 96.145ZM68.2594 96.145C68.0914 96.145 67.9474 96.089 67.8274 95.977C67.7154 95.857 67.6594 95.713 67.6594 95.545C67.6594 95.369 67.7154 95.225 67.8274 95.113C67.9474 94.993 68.0914 94.933 68.2594 94.933C68.4274 94.933 68.5674 94.993 68.6794 95.113C68.7914 95.225 68.8474 95.369 68.8474 95.545C68.8474 95.713 68.7914 95.857 68.6794 95.977C68.5674 96.089 68.4274 96.145 68.2594 96.145ZM77.9056 103.717C77.2576 103.717 76.6776 103.577 76.1656 103.297C75.6616 103.017 75.2656 102.633 74.9776 102.145C74.6896 101.657 74.5456 101.097 74.5456 100.465C74.5456 99.833 74.6896 99.273 74.9776 98.785C75.2656 98.297 75.6616 97.917 76.1656 97.645C76.6776 97.365 77.2576 97.225 77.9056 97.225C78.4816 97.225 78.9936 97.341 79.4416 97.573C79.8976 97.797 80.2496 98.133 80.4976 98.581L79.6216 99.145C79.4136 98.833 79.1576 98.605 78.8536 98.461C78.5576 98.309 78.2376 98.233 77.8936 98.233C77.4776 98.233 77.1056 98.325 76.7776 98.509C76.4496 98.693 76.1896 98.953 75.9976 99.289C75.8056 99.617 75.7096 100.009 75.7096 100.465C75.7096 100.921 75.8056 101.317 75.9976 101.653C76.1896 101.989 76.4496 102.249 76.7776 102.433C77.1056 102.617 77.4776 102.709 77.8936 102.709C78.2376 102.709 78.5576 102.637 78.8536 102.493C79.1576 102.341 79.4136 102.109 79.6216 101.797L80.4976 102.349C80.2496 102.789 79.8976 103.129 79.4416 103.369C78.9936 103.601 78.4816 103.717 77.9056 103.717ZM81.989 103.645V97.285H83.141V101.917L87.041 97.285H88.085V103.645H86.933V99.013L83.045 103.645H81.989ZM89.2651 103.633L89.3371 102.661C89.3931 102.669 89.4451 102.677 89.4931 102.685C89.5411 102.693 89.5851 102.697 89.6251 102.697C89.8811 102.697 90.0811 102.609 90.2251 102.433C90.3771 102.257 90.4891 102.025 90.5611 101.737C90.6331 101.441 90.6851 101.109 90.7171 100.741C90.7491 100.373 90.7731 100.005 90.7891 99.637L90.8971 97.285H95.7811V103.645H94.6291V97.957L94.9051 98.293H91.6411L91.9051 97.945L91.8211 99.709C91.7971 100.269 91.7531 100.793 91.6891 101.281C91.6251 101.769 91.5251 102.197 91.3891 102.565C91.2611 102.933 91.0811 103.221 90.8491 103.429C90.6251 103.637 90.3331 103.741 89.9731 103.741C89.8691 103.741 89.7571 103.729 89.6371 103.705C89.5251 103.689 89.4011 103.665 89.2651 103.633ZM98.0086 103.645V97.285H99.1606V101.917L103.061 97.285H104.105V103.645H102.953V99.013L99.0646 103.645H98.0086Z" fill="#783FAA"/>
</svg>
