<svg width="378" height="206" viewBox="0 0 378 206" fill="none" xmlns="http://www.w3.org/2000/svg">
<path d="M43.1528 196.357V204.616H35.3466V196.291C35.3466 186.673 28.979 181.224 15.3514 181.224H7.8516V204.63H0.285156V151.611H7.8516V175.536L33.2285 151.611H41.7807V167.517H34.3608V159.258L17.4029 175.083H19.2146C33.375 175.083 43.1395 182.956 43.1395 196.371L43.1528 196.357Z" fill="#006A4E"/>
<path d="M97.1584 193.401V204.604H53.7578V171.434C53.7578 159.392 62.5365 150.84 74.9652 150.84C86.7012 150.84 94.654 157.047 94.654 166.292C94.654 171.208 91.7765 175.378 87.4605 177.429C93.4417 179.707 97.1584 185.608 97.1584 193.414V193.401ZM61.3376 172.047V179.241C64.5214 176.59 69.5168 175.005 75.6446 174.778C82.6116 174.552 86.9276 171.448 86.9276 166.599C86.9276 161.217 82.465 157.967 75.0318 157.967C66.5462 157.967 61.3243 163.269 61.3243 172.047H61.3376ZM89.5786 192.415C89.5786 185.821 83.7439 181.212 75.498 181.212C67.2522 181.212 61.3376 185.382 61.3376 190.91V197.651H89.5919V192.429L89.5786 192.415Z" fill="#006A4E"/>
<path d="M114.955 151.599V204.617H107.389V151.599H114.955Z" fill="#006A4E"/>
<path d="M175.539 169.769H168.265V158.859H153.572V204.604H146.006V158.859H131.312V175.83H124.039V151.599H175.539V169.769Z" fill="#006A4E"/>
<path d="M179.336 178.108C179.336 162.736 191.378 150.84 206.977 150.84C222.577 150.84 234.619 162.736 234.619 178.108C234.619 193.481 222.577 205.377 206.977 205.377C191.378 205.377 179.336 193.481 179.336 178.108ZM226.666 178.108C226.666 166.825 218.114 158.113 206.977 158.113C195.841 158.113 187.289 166.825 187.289 178.108C187.289 189.391 195.841 198.103 206.977 198.103C218.114 198.103 226.666 189.391 226.666 178.108Z" fill="#006A4E"/>
<path d="M283.466 204.604L264.151 168.184L243.783 204.604H235.004L260.141 160.604L255.372 151.599H264.457L292.552 204.617H283.466V204.604Z" fill="#006A4E"/>
<path d="M344.361 150.839C356.097 150.839 365.941 158.033 369.431 169.009H361.025C358.001 162.495 352.313 158.099 344.361 158.099C333.45 158.099 325.125 166.811 325.125 178.094C325.125 189.377 333.45 198.09 344.361 198.09C352.313 198.09 357.988 193.694 361.025 187.179H369.431C365.941 198.156 356.097 205.35 344.361 205.35C328.988 205.35 317.172 193.454 317.172 178.081C317.172 162.708 328.988 150.812 344.361 150.812V150.839Z" fill="#006A4E"/>
<path d="M372.8 58.4835C373.067 58.0705 373.32 57.6575 373.533 57.2046C374.759 54.6336 375.118 51.5165 374.532 48.4526C373.946 45.3887 372.481 42.6179 370.389 40.6863C370.016 40.34 369.63 40.0469 369.244 39.7672C369.83 37.5292 369.697 34.9449 368.671 32.4005C367.485 29.4432 365.38 27.2852 362.996 26.2062C362.969 25.9664 362.956 25.7266 362.916 25.4868C362.556 23.3821 361.504 21.1974 359.932 19.3324C358.36 17.4674 356.389 16.0687 354.377 15.3893C353.818 15.2028 353.258 15.0696 352.712 14.9897C352.645 14.9897 352.592 14.9497 352.552 14.8831C351.62 13.2713 350.221 11.6727 348.249 10.5404C345.598 9.00847 343.414 8.68875 340.949 8.44897C340.909 8.44897 340.869 8.43565 340.843 8.40901C339.79 7.54313 338.365 6.42415 336.314 5.66484C333.609 4.66575 331.545 4.65243 329.986 4.77232C329.946 4.77232 329.919 4.77232 329.879 4.74568C328.987 4.29275 327.295 3.18709 324.791 2.72085C322.819 2.34785 321.127 2.38783 319.622 2.46776C319.595 2.46776 319.569 2.46776 319.542 2.46776C318.583 2.12141 314.001 1.21556 310.564 1.32213C310.564 1.32213 316.838 9.74113 317.078 9.86102C317.118 9.88766 317.344 10.0076 317.704 10.0742C318.103 10.1408 319.156 10.1674 319.156 10.1674C320.355 9.901 321.927 9.92764 322.992 10.1674C325.03 10.647 325.523 11.4063 326.123 11.7127C326.123 11.7127 327.149 12.1789 327.508 12.2722C327.921 12.3654 329.173 12.3921 329.173 12.3921C329.706 12.2722 331.771 12.2322 333.29 12.8317C335.301 13.6176 336.327 15.0163 336.74 15.3627C337.166 15.7224 338.205 16.1753 338.751 16.3085C339.391 16.455 341.376 16.3618 341.376 16.3618C342.508 16.4683 343.334 16.7348 344.04 17.1877C345.439 18.0802 345.918 18.7463 346.078 19.0527C346.078 19.0527 347.304 21.0642 347.916 21.5304C348.769 22.1832 350.647 22.5029 351.58 22.7826C352.166 22.9558 352.938 23.2355 353.964 24.4478C354.99 25.66 355.096 26.7923 355.216 27.0854C355.323 27.3651 355.962 29.6031 356.389 30.2558C357.001 31.2016 359.652 33.0666 359.652 33.0666C359.985 33.3064 360.771 33.9591 361.424 35.3578C362.423 37.4892 361.571 41.4589 361.571 42.458C361.571 44.8559 363.915 45.1889 365.087 46.481C365.873 47.3336 366.619 48.5059 366.846 49.9313C367.112 51.5831 366.806 52.8486 366.486 53.7811C366.246 54.4604 365.194 57.4444 365.021 58.9231C364.901 59.9355 365.7 61.7338 366.313 62.3733C368.125 64.2915 369.976 66.343 369.43 70.366C368.884 74.3757 366.593 76.4005 363.849 77.5994C363.182 77.8925 361.73 78.5585 361.384 79.2113C360.944 80.0638 361.184 82.1419 361.517 83.0344C363.009 87.1507 363.888 92.1329 360.745 97.1416C357.601 102.15 353.191 103.269 349.288 103.283C348.489 103.283 346.744 103.123 345.812 103.429C345.532 103.523 345.319 103.762 345.252 104.042C343.334 111.702 344.08 112.794 341.069 117.07C338.472 120.773 334.302 123.717 329.333 125.356C324.364 126.994 319.289 127.114 315.013 125.676C312.136 124.703 309.565 122.985 308.139 120.96C308.099 120.907 308.086 120.827 308.099 120.76C309.618 111.782 313.081 106.666 319.715 97.861L323.725 92.9987L323.898 92.7856C325.51 90.6542 327.082 88.7626 328.387 86.8843C328.414 86.831 328.467 86.8044 328.521 86.8044C332.131 86.3781 338.472 85.3124 344.253 82.9013C348.01 81.3294 351.859 75.1749 354.67 72.8038C355.669 71.9645 360.478 67.6485 361.904 66.3696C362.05 66.2364 361.97 65.9833 361.77 65.97C358.413 65.8634 353.711 68.2612 350.9 70.739L350.501 70.5525C350.74 66.1831 351.087 60.415 351.233 58.0172C351.7 50.4508 353.298 46.9473 354.231 45.5219C354.377 45.3088 354.111 45.069 353.898 45.2155C348.396 49.0387 345.385 65.6769 345.039 67.6618C344.453 71.0321 344.16 73.0702 344.066 75.428C343.6 75.6412 343.134 75.841 342.641 76.0142C339.817 76.9999 336.713 77.706 333.929 78.1855C333.756 78.2122 333.623 78.039 333.703 77.8658C335.155 74.7487 336.22 71.5116 336.966 67.755C337.752 63.772 338.165 59.2161 338.285 53.5946C338.285 53.5679 338.285 53.5413 338.298 53.528C338.458 53.1017 338.618 52.6754 338.791 52.1958C339.484 50.3042 343.947 35.4378 342.708 28.6439C342.668 28.3908 342.295 28.3908 342.255 28.6439C341.962 30.4157 341.043 34.2255 338.245 40.713C337.885 41.5389 337.286 42.7911 336.567 44.2164C336.46 44.2031 336.393 44.0965 336.314 44.0166C332.397 39.8737 330.106 32.667 327.988 28.0445C327.175 26.2861 324.458 21.2107 323.152 18.7996C323.032 18.5598 322.673 18.693 322.713 18.9461C323.072 20.8644 323.525 23.2622 324.031 26.2328C324.671 29.9228 325.723 33.8126 325.83 34.4786C326.629 39.2876 327.601 43.577 330.226 47.7599C330.239 47.7865 330.252 47.8265 330.266 47.8531C330.452 49.5716 330.532 51.33 330.505 53.155C330.386 60.1619 329.799 65.1841 328.574 69.4602V69.4868C326.429 74.5222 324.165 79.3045 321.38 83.3142C318.596 87.3239 315.706 90.441 313.028 93.7847C313.028 93.7847 313.015 93.798 313.001 93.8113C309.152 98.9667 306.248 103.189 304.129 107.625C302.185 111.702 300.906 115.965 300.173 121.306V121.44C299.707 124.677 299.467 128.313 299.387 132.549C299.361 133.882 299.427 136.479 299.427 136.479V204.511H307.22V136.479L307.18 132.696C307.193 131.923 307.233 131.404 307.327 131.017C307.367 130.858 307.553 130.791 307.686 130.884C309.192 131.857 310.737 132.536 312.602 133.162C315.386 134.095 318.383 134.561 321.46 134.561C324.871 134.561 328.387 133.988 331.824 132.856C338.365 130.698 343.933 126.701 347.503 121.626C349.861 118.269 351.18 114.686 351.42 111.129C351.473 111.129 351.526 111.129 351.58 111.129C357.321 111.129 363.529 107.546 367.419 101.338C371.162 95.3699 371.815 88.4961 369.67 83.3275C369.63 83.2343 369.67 83.1277 369.75 83.0611C373.187 80.8365 376.53 76.5204 377.236 71.405C377.956 66.1698 375.718 61.5207 372.867 58.4568L372.8 58.4835Z" fill="#006A4E"/>
<path d="M301.718 3.56052L298.894 0.962891L296.123 3.60049C295.71 4.00012 286.172 13.1651 282.043 26.2066C284.441 27.7385 286.812 29.5502 289.09 31.6683L289.17 31.3086C291.061 23.196 296.003 16.3089 298.974 12.7255C303.357 18.0407 310.324 28.7376 310.071 42.8181C309.817 56.8454 307.686 62.5869 301.878 70.8726C299.907 59.0567 297.056 51.9831 285.706 40.1139C269.561 23.2226 247.288 24.0219 246.355 24.0619L242.652 24.2351L242.439 27.965C242.399 28.5778 241.666 42.5784 247.94 54.3143C250.725 53.6483 253.695 53.1954 256.826 53.0355C252.177 46.3882 250.991 37.5563 250.711 32.5209C257.585 33.147 270.094 35.7446 279.791 45.882C289.396 55.9262 291.887 61.3879 293.592 71.139C284.347 64.5983 277.234 61.6144 261.142 61.3213C260.849 61.3213 260.542 61.3213 260.249 61.3213C237.43 61.3213 222.67 77.36 222.057 78.0394L219.486 80.8769L222.097 83.6743C222.51 84.1139 231.915 94.0516 245.17 98.0879C246.702 95.6634 248.527 93.2789 250.658 90.961L249.313 90.628C241.386 88.6831 234.659 83.7543 231.156 80.8103C236.418 76.4143 247.021 69.3807 260.969 69.6071C274.969 69.8602 280.711 72.0715 289.09 78.0927C277.78 80.0509 270.573 83.0216 258.93 94.3446C242.119 110.703 242.972 133.096 243.012 134.042L243.185 137.878L247.021 137.985C247.101 137.985 247.314 137.985 247.621 137.985C250.978 137.985 262.447 137.519 273.078 131.884C272.451 129.1 272.039 126.129 271.905 122.999L271.572 123.212C264.512 127.701 256.08 129.073 251.417 129.499C252.057 122.599 254.654 110.024 264.645 100.299C274.636 90.588 280.111 88.057 289.902 86.3386C283.388 95.6767 280.418 102.87 280.138 119.109C279.898 132.204 284.947 142.754 289.223 149.308L289.409 149.574C290.062 150.414 290.742 151.16 291.434 151.826L291.661 152.039V136.293C289.383 130.698 288.264 124.983 288.37 119.255C288.677 102.377 291.687 97.5284 300.359 86.0189L304.356 81.4097L304.529 81.1966C314.24 68.3017 317.943 61.6543 318.276 42.9647C318.703 19.4261 302.398 4.18663 301.705 3.54721L301.718 3.56052Z" fill="#783FAA"/>
<path d="M0.152344 138.026V123.532H2.85655L9.09087 134.242H7.99852L14.3927 123.532H16.8571V138.026H14.4726V126.49L14.9122 126.743L9.06424 136.401H7.91859L2.04393 126.556L2.56348 126.45V138.039H0.152344V138.026Z" fill="#783FAA"/>
<path d="M23.2893 120.747C22.7831 120.747 22.3568 120.587 22.0238 120.254C21.6908 119.921 21.5176 119.522 21.5176 119.055C21.5176 118.589 21.6908 118.15 22.0238 117.83C22.3568 117.497 22.7831 117.337 23.2893 117.337C23.7955 117.337 24.2218 117.497 24.5549 117.816C24.8879 118.136 25.061 118.536 25.061 119.002C25.061 119.468 24.9012 119.908 24.5681 120.241C24.2351 120.574 23.8089 120.747 23.2893 120.747ZM21.9705 138.025V123.531H24.5948V138.025H21.9705Z" fill="#783FAA"/>
<path d="M36.0269 138.184C34.5482 138.184 33.2294 137.864 32.0705 137.225C30.9115 136.585 30.0057 135.706 29.3529 134.601C28.7002 133.495 28.3672 132.216 28.3672 130.777C28.3672 129.339 28.7002 128.06 29.3529 126.954C30.0057 125.849 30.9115 124.969 32.0705 124.343C33.2294 123.717 34.5482 123.397 36.0269 123.397C37.3457 123.397 38.5047 123.651 39.5437 124.17C40.5694 124.69 41.3687 125.462 41.9415 126.475L39.9433 127.753C39.4638 127.047 38.891 126.515 38.2116 126.182C37.5322 125.849 36.7995 125.675 36.0136 125.675C35.0677 125.675 34.2152 125.889 33.4692 126.301C32.7232 126.728 32.1238 127.314 31.6975 128.06C31.2579 128.819 31.0448 129.712 31.0448 130.751C31.0448 131.79 31.2579 132.696 31.6975 133.455C32.1371 134.214 32.7232 134.814 33.4692 135.227C34.2152 135.64 35.0677 135.853 36.0136 135.853C36.7995 135.853 37.5322 135.68 38.2116 135.347C38.891 135.014 39.4771 134.481 39.9433 133.775L41.9415 135.027C41.382 136.026 40.5828 136.799 39.5437 137.331C38.518 137.864 37.3457 138.144 36.0269 138.144V138.184Z" fill="#783FAA"/>
<path d="M45.3242 138.026V123.532H47.9485V135.721H55.8746V123.532H58.4989V138.026H45.3242ZM58.3124 141.383V137.879L58.9651 138.012H55.8746V135.721H60.7901V141.383H58.2991H58.3124Z" fill="#783FAA"/>
<path d="M70.6347 138.184C69.0895 138.184 67.7174 137.864 66.5451 137.225C65.3728 136.585 64.4536 135.706 63.8142 134.601C63.1615 133.495 62.8418 132.216 62.8418 130.777C62.8418 129.339 63.1615 128.06 63.7876 126.954C64.4137 125.849 65.2796 124.969 66.3852 124.343C67.4909 123.717 68.7298 123.397 70.1152 123.397C71.5006 123.397 72.7528 123.704 73.8318 124.33C74.9108 124.956 75.75 125.822 76.3628 126.941C76.9756 128.06 77.282 129.365 77.282 130.871C77.282 130.977 77.282 131.11 77.2687 131.257C77.2687 131.404 77.242 131.537 77.2287 131.67H64.8933V129.778H75.8566L74.7909 130.431C74.8042 129.499 74.6178 128.673 74.2181 127.94C73.8185 127.207 73.259 126.648 72.5663 126.235C71.8602 125.822 71.0477 125.622 70.1152 125.622C69.1827 125.622 68.3968 125.822 67.6774 126.235C66.9581 126.648 66.4119 127.221 66.0123 127.953C65.6126 128.686 65.4128 129.539 65.4128 130.484V130.924C65.4128 131.896 65.6392 132.749 66.0788 133.508C66.5184 134.268 67.1445 134.854 67.9571 135.267C68.7697 135.68 69.6756 135.893 70.7146 135.893C71.5672 135.893 72.3531 135.746 73.0459 135.453C73.7386 135.16 74.3646 134.72 74.8975 134.134L76.3495 135.826C75.6967 136.599 74.8708 137.172 73.8984 137.571C72.9259 137.971 71.8336 138.171 70.6347 138.171V138.184Z" fill="#783FAA"/>
<path d="M91.5772 138.026V125.144L92.23 125.823H86.2754V123.532H99.5033V125.823H93.5754L94.2015 125.144V138.026H91.5772Z" fill="#783FAA"/>
<path d="M102.191 138.026V123.532H108.919C110.61 123.532 111.943 123.852 112.928 124.505C113.901 125.157 114.394 126.063 114.394 127.249C114.394 128.434 113.927 129.354 113.008 129.993C112.089 130.646 110.877 130.965 109.358 130.965L109.771 130.259C111.503 130.259 112.782 130.579 113.621 131.219C114.46 131.858 114.873 132.79 114.873 134.029C114.873 135.268 114.407 136.267 113.461 136.973C112.529 137.679 111.09 138.026 109.158 138.026H102.191ZM104.762 129.767H108.705C109.705 129.767 110.464 129.58 110.983 129.207C111.503 128.834 111.756 128.315 111.756 127.635C111.756 126.956 111.503 126.423 110.983 126.077C110.464 125.73 109.705 125.557 108.705 125.557H104.762V129.767ZM104.762 136.001H108.972C110.064 136.001 110.89 135.828 111.436 135.495C111.982 135.162 112.262 134.615 112.262 133.869C112.262 133.123 112.009 132.537 111.516 132.191C111.01 131.831 110.224 131.658 109.145 131.658H104.776V136.001H104.762Z" fill="#783FAA"/>
<path d="M125.184 138.184C123.732 138.184 122.427 137.864 121.308 137.225C120.176 136.585 119.283 135.706 118.63 134.587C117.978 133.468 117.645 132.189 117.645 130.777C117.645 129.365 117.978 128.06 118.63 126.954C119.283 125.849 120.176 124.969 121.308 124.343C122.44 123.717 123.732 123.397 125.184 123.397C126.636 123.397 127.915 123.717 129.047 124.343C130.18 124.969 131.086 125.835 131.725 126.941C132.378 128.047 132.698 129.325 132.698 130.777C132.698 132.229 132.378 133.495 131.725 134.601C131.072 135.706 130.18 136.585 129.047 137.225C127.902 137.864 126.623 138.184 125.184 138.184ZM125.184 135.893C126.117 135.893 126.943 135.68 127.689 135.267C128.435 134.854 129.008 134.254 129.42 133.482C129.833 132.709 130.047 131.816 130.047 130.791C130.047 129.765 129.833 128.859 129.42 128.1C129.008 127.341 128.421 126.754 127.689 126.341C126.956 125.928 126.117 125.715 125.184 125.715C124.252 125.715 123.426 125.928 122.693 126.341C121.961 126.768 121.374 127.354 120.948 128.1C120.509 128.859 120.295 129.752 120.295 130.791C120.295 131.83 120.509 132.709 120.948 133.482C121.388 134.254 121.974 134.854 122.693 135.267C123.426 135.68 124.252 135.893 125.184 135.893Z" fill="#783FAA"/>
<path d="M142.982 138.185C141.463 138.185 140.131 137.865 138.945 137.239C137.773 136.613 136.841 135.733 136.174 134.601C135.495 133.469 135.162 132.19 135.162 130.778C135.162 129.366 135.495 128.06 136.174 126.955C136.854 125.849 137.773 124.957 138.945 124.317C140.118 123.664 141.463 123.345 142.982 123.345C144.234 123.345 145.393 123.545 146.432 123.944C147.471 124.344 148.35 124.943 149.056 125.716L147.524 127.221C146.925 126.635 146.245 126.209 145.499 125.929C144.753 125.649 143.941 125.503 143.062 125.503C142.023 125.503 141.09 125.729 140.264 126.182C139.438 126.635 138.785 127.261 138.306 128.06C137.826 128.846 137.6 129.766 137.6 130.778C137.6 131.79 137.84 132.71 138.306 133.509C138.785 134.308 139.425 134.934 140.264 135.387C141.09 135.827 142.023 136.053 143.062 136.053C143.941 136.053 144.753 135.907 145.499 135.627C146.245 135.347 146.925 134.908 147.524 134.295L149.056 135.827C148.35 136.599 147.471 137.172 146.432 137.572C145.393 137.971 144.247 138.171 142.982 138.171V138.185ZM144.927 129.899V131.87H136.774V129.899H144.927Z" fill="#783FAA"/>
<path d="M151.601 120.934C151.214 120.934 150.895 120.801 150.628 120.534C150.362 120.268 150.229 119.948 150.229 119.562C150.229 119.175 150.362 118.829 150.628 118.563C150.895 118.296 151.214 118.163 151.601 118.163C151.987 118.163 152.307 118.296 152.56 118.563C152.813 118.829 152.946 119.162 152.946 119.562C152.946 119.961 152.813 120.268 152.56 120.534C152.307 120.801 151.987 120.934 151.601 120.934ZM152.227 138.025V123.532H154.851V138.025H152.227ZM155.477 120.934C155.091 120.934 154.771 120.801 154.518 120.534C154.265 120.268 154.132 119.948 154.132 119.562C154.132 119.175 154.265 118.829 154.518 118.563C154.771 118.296 155.091 118.163 155.477 118.163C155.863 118.163 156.183 118.296 156.45 118.563C156.716 118.829 156.849 119.162 156.849 119.562C156.849 119.961 156.716 120.268 156.45 120.534C156.183 120.801 155.863 120.934 155.477 120.934Z" fill="#783FAA"/>
<path d="M173.58 138.184C172.101 138.184 170.782 137.864 169.623 137.225C168.464 136.585 167.558 135.706 166.906 134.601C166.253 133.495 165.92 132.216 165.92 130.777C165.92 129.339 166.253 128.06 166.906 126.954C167.558 125.849 168.464 124.969 169.623 124.343C170.782 123.717 172.101 123.397 173.58 123.397C174.898 123.397 176.057 123.651 177.096 124.17C178.122 124.69 178.921 125.462 179.494 126.475L177.496 127.753C177.016 127.047 176.444 126.515 175.764 126.182C175.085 125.849 174.352 125.675 173.566 125.675C172.62 125.675 171.768 125.889 171.022 126.301C170.276 126.728 169.677 127.314 169.25 128.06C168.811 128.819 168.597 129.712 168.597 130.751C168.597 131.79 168.811 132.696 169.25 133.455C169.69 134.214 170.276 134.814 171.022 135.227C171.768 135.64 172.62 135.853 173.566 135.853C174.352 135.853 175.085 135.68 175.764 135.347C176.444 135.014 177.03 134.481 177.496 133.775L179.494 135.027C178.935 136.026 178.135 136.799 177.096 137.331C176.071 137.864 174.898 138.144 173.58 138.144V138.184Z" fill="#783FAA"/>
<path d="M182.879 138.026V123.532H185.503V134.083L194.388 123.532H196.773V138.026H194.149V127.475L185.29 138.026H182.879Z" fill="#783FAA"/>
<path d="M199.438 137.998L199.597 135.787C199.731 135.8 199.837 135.827 199.957 135.84C200.064 135.854 200.17 135.867 200.263 135.867C200.85 135.867 201.302 135.667 201.649 135.268C201.982 134.868 202.235 134.335 202.395 133.669C202.555 133.003 202.675 132.257 202.754 131.418C202.821 130.579 202.888 129.739 202.914 128.9L203.154 123.545H214.277V138.038H211.653V125.077L212.279 125.836H204.846L205.445 125.05L205.259 129.073C205.206 130.352 205.099 131.538 204.952 132.657C204.806 133.762 204.579 134.748 204.286 135.587C203.98 136.427 203.58 137.079 203.061 137.559C202.541 138.038 201.875 138.265 201.049 138.265C200.81 138.265 200.556 138.238 200.303 138.198C200.05 138.158 199.757 138.092 199.438 138.025V137.998Z" fill="#783FAA"/>
<path d="M219.381 138.026V123.532H222.005V134.083L230.89 123.532H233.275V138.026H230.651V127.475L221.792 138.026H219.381Z" fill="#783FAA"/>
</svg>
