<svg width="378" height="206" viewBox="0 0 378 206" fill="none" xmlns="http://www.w3.org/2000/svg">
<path d="M43.2466 196.212V204.471H35.4403V196.145C35.4403 186.527 29.0728 181.079 15.4452 181.079H7.94535V204.484H0.378906V151.466H7.94535V175.391L33.3222 151.466H41.8745V167.371H34.4546V159.112L17.4966 174.938H19.3083C33.4688 174.938 43.2332 182.811 43.2332 196.225L43.2466 196.212Z" fill="white"/>
<path d="M97.2521 193.256V204.459H53.8516V171.289C53.8516 159.247 62.6303 150.694 75.059 150.694C86.7949 150.694 94.7477 156.902 94.7477 166.147C94.7477 171.062 91.8703 175.232 87.5542 177.283C93.5354 179.561 97.2521 185.463 97.2521 193.269V193.256ZM61.4313 171.902V179.095C64.6151 176.444 69.6106 174.859 75.7383 174.633C82.7053 174.406 87.0214 171.302 87.0214 166.453C87.0214 161.072 82.5588 157.821 75.1255 157.821C66.6399 157.821 61.418 163.123 61.418 171.902H61.4313ZM89.6723 192.27C89.6723 185.676 83.8376 181.067 75.5918 181.067C67.346 181.067 61.4313 185.236 61.4313 190.765V197.505H89.6856V192.283L89.6723 192.27Z" fill="white"/>
<path d="M115.049 151.453V204.472H107.482V151.453H115.049Z" fill="white"/>
<path d="M175.633 169.623H168.359V158.713H153.666V204.458H146.099V158.713H131.406V175.684H124.133V151.453H175.633V169.623Z" fill="white"/>
<path d="M179.43 177.963C179.43 162.59 191.472 150.694 207.071 150.694C222.67 150.694 234.713 162.59 234.713 177.963C234.713 193.336 222.67 205.231 207.071 205.231C191.472 205.231 179.43 193.336 179.43 177.963ZM226.76 177.963C226.76 166.68 218.208 157.968 207.071 157.968C195.935 157.968 187.382 166.68 187.382 177.963C187.382 189.246 195.935 197.958 207.071 197.958C218.208 197.958 226.76 189.246 226.76 177.963Z" fill="white"/>
<path d="M283.56 204.458L264.244 168.038L243.876 204.458H235.098L260.235 160.458L255.466 151.453H264.551L292.645 204.472H283.56V204.458Z" fill="white"/>
<path d="M344.454 150.694C356.19 150.694 366.035 157.887 369.525 168.864H361.119C358.095 162.35 352.407 157.954 344.454 157.954C333.544 157.954 325.218 166.666 325.218 177.949C325.218 189.232 333.544 197.944 344.454 197.944C352.407 197.944 358.082 193.548 361.119 187.034H369.525C366.035 198.011 356.19 205.204 344.454 205.204C329.082 205.204 317.266 193.308 317.266 177.936C317.266 162.563 329.082 150.667 344.454 150.667V150.694Z" fill="white"/>
<path d="M372.894 58.3379C373.161 57.925 373.414 57.512 373.627 57.0591C374.852 54.4881 375.212 51.371 374.626 48.3071C374.04 45.2432 372.574 42.4724 370.483 40.5408C370.11 40.1945 369.724 39.9014 369.337 39.6217C369.923 37.3837 369.79 34.7994 368.765 32.255C367.579 29.2977 365.474 27.1397 363.09 26.0606C363.063 25.8209 363.05 25.5811 363.01 25.3413C362.65 23.2366 361.598 21.0519 360.026 19.1869C358.454 17.3219 356.482 15.9232 354.471 15.2438C353.911 15.0573 353.352 14.9241 352.806 14.8442C352.739 14.8442 352.686 14.8042 352.646 14.7376C351.713 13.1257 350.315 11.5272 348.343 10.3949C345.692 8.86297 343.508 8.54325 341.043 8.30346C341.003 8.30346 340.963 8.29014 340.937 8.2635C339.884 7.39762 338.459 6.27864 336.407 5.51934C333.703 4.52024 331.638 4.50693 330.08 4.62682C330.04 4.62682 330.013 4.62681 329.973 4.60017C329.081 4.14725 327.389 3.04158 324.884 2.57534C322.913 2.20234 321.221 2.24232 319.716 2.32225C319.689 2.32225 319.663 2.32225 319.636 2.32225C318.677 1.9759 314.094 1.07006 310.657 1.17663C310.657 1.17663 316.932 9.59562 317.171 9.71551C317.211 9.74215 317.438 9.86205 317.798 9.92865C318.197 9.99526 319.25 10.0219 319.25 10.0219C320.448 9.75549 322.02 9.78213 323.086 10.0219C325.124 10.5015 325.617 11.2608 326.217 11.5672C326.217 11.5672 327.242 12.0334 327.602 12.1267C328.015 12.2199 329.267 12.2466 329.267 12.2466C329.8 12.1267 331.865 12.0867 333.383 12.6862C335.395 13.4721 336.421 14.8708 336.834 15.2172C337.26 15.5769 338.299 16.0298 338.845 16.163C339.484 16.3095 341.469 16.2163 341.469 16.2163C342.602 16.3228 343.428 16.5893 344.134 17.0422C345.532 17.9347 346.012 18.6008 346.172 18.9072C346.172 18.9072 347.397 20.9187 348.01 21.3849C348.863 22.0376 350.741 22.3574 351.673 22.6371C352.26 22.8103 353.032 23.09 354.058 24.3023C355.084 25.5145 355.19 26.6468 355.31 26.9399C355.417 27.2196 356.056 29.4576 356.482 30.1103C357.095 31.0561 359.746 32.9211 359.746 32.9211C360.079 33.1609 360.865 33.8136 361.518 35.2123C362.517 37.3437 361.664 41.3134 361.664 42.3125C361.664 44.7103 364.009 45.0434 365.181 46.3355C365.967 47.1881 366.713 48.3604 366.94 49.7857C367.206 51.4376 366.9 52.7031 366.58 53.6356C366.34 54.3149 365.288 57.2989 365.114 58.7776C364.995 59.79 365.794 61.5883 366.407 62.2278C368.218 64.146 370.07 66.1975 369.524 70.2205C368.978 74.2302 366.686 76.255 363.942 77.4539C363.276 77.747 361.824 78.413 361.478 79.0658C361.038 79.9183 361.278 81.9964 361.611 82.8889C363.103 87.0052 363.982 91.9874 360.838 96.9961C357.695 102.005 353.285 103.124 349.382 103.137C348.583 103.137 346.838 102.977 345.905 103.284C345.626 103.377 345.412 103.617 345.346 103.897C343.428 111.556 344.174 112.649 341.163 116.925C338.565 120.628 334.396 123.572 329.427 125.21C324.458 126.849 319.383 126.969 315.107 125.53C312.229 124.558 309.658 122.839 308.233 120.814C308.193 120.761 308.18 120.681 308.193 120.615C309.712 111.636 313.175 106.521 319.809 97.7155L323.819 92.8532L323.992 92.6401C325.604 90.5087 327.176 88.6171 328.481 86.7388C328.508 86.6855 328.561 86.6589 328.614 86.6589C332.224 86.2326 338.565 85.1669 344.347 82.7558C348.103 81.1839 351.953 75.0294 354.764 72.6583C355.763 71.819 360.572 67.503 361.997 66.2241C362.144 66.0909 362.064 65.8378 361.864 65.8245C358.507 65.7179 353.805 68.1157 350.994 70.5935L350.594 70.407C350.834 66.0376 351.181 60.2695 351.327 57.8717C351.793 50.3052 353.392 46.8018 354.324 45.3764C354.471 45.1633 354.204 44.9235 353.991 45.07C348.49 48.8932 345.479 65.5314 345.133 67.5163C344.547 70.8865 344.253 72.9247 344.16 75.2825C343.694 75.4957 343.228 75.6955 342.735 75.8687C339.911 76.8544 336.807 77.5605 334.023 78.04C333.85 78.0667 333.716 77.8935 333.796 77.7203C335.248 74.6032 336.314 71.3661 337.06 67.6095C337.846 63.6265 338.259 59.0706 338.379 53.4491C338.379 53.4224 338.379 53.3958 338.392 53.3825C338.552 52.9562 338.712 52.5299 338.885 52.0503C339.578 50.1587 344.04 35.2923 342.801 28.4984C342.761 28.2453 342.389 28.2453 342.349 28.4984C342.055 30.2702 341.136 34.08 338.339 40.5674C337.979 41.3934 337.38 42.6456 336.66 44.0709C336.554 44.0576 336.487 43.951 336.407 43.8711C332.491 39.7282 330.2 32.5214 328.082 27.899C327.269 26.1406 324.551 21.0652 323.246 18.6541C323.126 18.4143 322.766 18.5475 322.806 18.8006C323.166 20.7188 323.619 23.1167 324.125 26.0873C324.765 29.7773 325.817 33.6671 325.923 34.3331C326.723 39.1421 327.695 43.4315 330.319 47.6144C330.333 47.641 330.346 47.681 330.359 47.7076C330.546 49.4261 330.626 51.1845 330.599 53.0095C330.479 60.0164 329.893 65.0385 328.668 69.3147V69.3413C326.523 74.3767 324.258 79.159 321.474 83.1687C318.69 87.1784 315.799 90.2955 313.122 93.6392C313.122 93.6392 313.108 93.6525 313.095 93.6658C309.245 98.8211 306.341 103.044 304.223 107.48C302.278 111.556 301 115.819 300.267 121.161V121.294C299.801 124.531 299.561 128.168 299.481 132.404C299.454 133.736 299.521 136.334 299.521 136.334V204.365H307.314V136.334L307.274 132.55C307.287 131.778 307.327 131.258 307.42 130.872C307.46 130.712 307.647 130.646 307.78 130.739C309.285 131.711 310.831 132.391 312.696 133.017C315.48 133.949 318.477 134.415 321.554 134.415C324.964 134.415 328.481 133.843 331.918 132.71C338.459 130.552 344.027 126.556 347.597 121.48C349.955 118.124 351.274 114.54 351.514 110.983C351.567 110.983 351.62 110.983 351.673 110.983C357.415 110.983 363.623 107.4 367.512 101.192C371.256 95.2244 371.908 88.3506 369.764 83.182C369.724 83.0888 369.764 82.9822 369.844 82.9156C373.28 80.691 376.624 76.3749 377.33 71.2595C378.049 66.0243 375.811 61.3752 372.961 58.3113L372.894 58.3379Z" fill="white"/>
<path d="M301.812 3.41502L298.988 0.817383L296.217 3.45498C295.804 3.85461 286.266 13.0196 282.136 26.0611C284.534 27.593 286.905 29.4047 289.183 31.5228L289.263 31.1631C291.155 23.0505 296.097 16.1634 299.068 12.58C303.45 17.8952 310.417 28.5921 310.164 42.6726C309.911 56.6999 307.78 62.4413 301.972 70.7271C300 58.9112 297.15 51.8376 285.8 39.9684C269.655 23.0771 247.381 23.8764 246.449 23.9164L242.746 24.0895L242.533 27.8195C242.493 28.4323 241.76 42.4328 248.034 54.1688C250.818 53.5028 253.789 53.0499 256.919 52.89C252.27 46.2427 251.085 37.4108 250.805 32.3753C257.679 33.0014 270.187 35.5991 279.885 45.7365C289.49 55.7807 291.981 61.2424 293.686 70.9935C284.441 64.4528 277.328 61.4689 261.236 61.1758C260.942 61.1758 260.636 61.1758 260.343 61.1758C237.524 61.1758 222.764 77.2145 222.151 77.8939L219.58 80.7313L222.191 83.5288C222.604 83.9684 232.009 93.906 245.263 97.9424C246.795 95.5179 248.62 93.1334 250.752 90.8155L249.406 90.4825C241.48 88.5376 234.753 83.6087 231.249 80.6648C236.511 76.2688 247.115 69.2351 261.062 69.4616C275.063 69.7147 280.804 71.926 289.183 77.9472C277.874 79.9054 270.667 82.8761 259.024 94.1991C242.213 110.558 243.065 132.951 243.105 133.896L243.279 137.733L247.115 137.839C247.195 137.839 247.408 137.839 247.714 137.839C251.071 137.839 262.541 137.373 273.171 131.738C272.545 128.954 272.132 125.984 271.999 122.853L271.666 123.066C264.606 127.555 256.173 128.928 251.511 129.354C252.15 122.453 254.748 109.878 264.739 100.154C274.73 90.4425 280.205 87.9115 289.996 86.1931C283.482 95.5312 280.511 102.725 280.232 118.963C279.992 132.058 285.041 142.608 289.317 149.162L289.503 149.429C290.156 150.268 290.835 151.014 291.528 151.68L291.754 151.893V136.148C289.476 130.553 288.357 124.838 288.464 119.11C288.77 102.232 291.781 97.3829 300.453 85.8734L304.45 81.2642L304.623 81.0511C314.334 68.1561 318.037 61.5088 318.37 42.8192C318.796 19.2806 302.491 4.04112 301.799 3.4017L301.812 3.41502Z" fill="white"/>
<path d="M0.246094 137.88V123.387H2.9503L9.18462 134.097H8.09227L14.4865 123.387H16.9509V137.88H14.5664V126.344L15.006 126.597L9.15799 136.255H8.01234L2.13768 126.411L2.65723 126.304V137.894H0.246094V137.88Z" fill="white"/>
<path d="M23.3831 120.602C22.8769 120.602 22.4506 120.442 22.1175 120.109C21.7845 119.776 21.6113 119.376 21.6113 118.91C21.6113 118.444 21.7845 118.004 22.1175 117.684C22.4506 117.351 22.8769 117.191 23.3831 117.191C23.8893 117.191 24.3156 117.351 24.6486 117.671C24.9816 117.991 25.1548 118.39 25.1548 118.857C25.1548 119.323 24.9949 119.762 24.6619 120.095C24.3289 120.428 23.9026 120.602 23.3831 120.602ZM22.0643 137.879V123.386H24.6886V137.879H22.0643Z" fill="white"/>
<path d="M36.1206 138.039C34.642 138.039 33.3232 137.719 32.1642 137.079C31.0053 136.44 30.0994 135.561 29.4467 134.455C28.794 133.349 28.4609 132.071 28.4609 130.632C28.4609 129.193 28.794 127.914 29.4467 126.809C30.0994 125.703 31.0053 124.824 32.1642 124.198C33.3232 123.572 34.642 123.252 36.1206 123.252C37.4394 123.252 38.5984 123.505 39.6375 124.025C40.6632 124.544 41.4624 125.317 42.0353 126.329L40.0371 127.608C39.5575 126.902 38.9847 126.369 38.3053 126.036C37.626 125.703 36.8933 125.53 36.1073 125.53C35.1615 125.53 34.3089 125.743 33.5629 126.156C32.817 126.582 32.2175 127.168 31.7912 127.914C31.3516 128.674 31.1385 129.566 31.1385 130.605C31.1385 131.644 31.3516 132.55 31.7912 133.309C32.2308 134.069 32.817 134.668 33.5629 135.081C34.3089 135.494 35.1615 135.707 36.1073 135.707C36.8933 135.707 37.626 135.534 38.3053 135.201C38.9847 134.868 39.5708 134.335 40.0371 133.629L42.0353 134.881C41.4758 135.88 40.6765 136.653 39.6375 137.186C38.6117 137.719 37.4394 137.999 36.1206 137.999V138.039Z" fill="white"/>
<path d="M45.418 137.88V123.387H48.0422V135.576H55.9683V123.387H58.5926V137.88H45.418ZM58.4062 141.237V137.734L59.0589 137.867H55.9683V135.576H60.8839V141.237H58.3928H58.4062Z" fill="white"/>
<path d="M70.7285 138.039C69.1832 138.039 67.8111 137.719 66.6388 137.079C65.4666 136.44 64.5474 135.561 63.908 134.455C63.2552 133.349 62.9355 132.071 62.9355 130.632C62.9355 129.193 63.2552 127.914 63.8813 126.809C64.5074 125.703 65.3733 124.824 66.479 124.198C67.5847 123.572 68.8235 123.252 70.2089 123.252C71.5943 123.252 72.8465 123.558 73.9255 124.184C75.0046 124.811 75.8438 125.676 76.4566 126.795C77.0693 127.914 77.3757 129.22 77.3757 130.725C77.3757 130.832 77.3757 130.965 77.3624 131.111C77.3624 131.258 77.3358 131.391 77.3224 131.524H64.987V129.633H75.9504L74.8847 130.286C74.898 129.353 74.7115 128.527 74.3119 127.794C73.9122 127.062 73.3527 126.502 72.66 126.089C71.954 125.676 71.1414 125.477 70.2089 125.477C69.2764 125.477 68.4905 125.676 67.7712 126.089C67.0518 126.502 66.5056 127.075 66.106 127.808C65.7064 128.54 65.5065 129.393 65.5065 130.339V130.778C65.5065 131.751 65.733 132.603 66.1726 133.363C66.6122 134.122 67.2383 134.708 68.0509 135.121C68.8635 135.534 69.7693 135.747 70.8084 135.747C71.6609 135.747 72.4469 135.601 73.1396 135.308C73.8323 135.015 74.4584 134.575 74.9912 133.989L76.4432 135.681C75.7905 136.453 74.9646 137.026 73.9921 137.426C73.0197 137.825 71.9274 138.025 70.7285 138.025V138.039Z" fill="white"/>
<path d="M91.671 137.88V124.999L92.3237 125.678H86.3691V123.387H99.5971V125.678H93.6692L94.2953 124.999V137.88H91.671Z" fill="white"/>
<path d="M102.285 137.88V123.387H109.012C110.704 123.387 112.036 123.706 113.022 124.359C113.995 125.012 114.487 125.918 114.487 127.103C114.487 128.289 114.021 129.208 113.102 129.847C112.183 130.5 110.971 130.82 109.452 130.82L109.865 130.114C111.597 130.114 112.876 130.434 113.715 131.073C114.554 131.712 114.967 132.645 114.967 133.884C114.967 135.123 114.501 136.122 113.555 136.828C112.622 137.534 111.184 137.88 109.252 137.88H102.285ZM104.856 129.621H108.799C109.798 129.621 110.558 129.435 111.077 129.062C111.597 128.689 111.85 128.169 111.85 127.49C111.85 126.81 111.597 126.277 111.077 125.931C110.558 125.585 109.798 125.412 108.799 125.412H104.856V129.621ZM104.856 135.855H109.066C110.158 135.855 110.984 135.682 111.53 135.349C112.076 135.016 112.356 134.47 112.356 133.724C112.356 132.978 112.103 132.392 111.61 132.046C111.104 131.686 110.318 131.513 109.239 131.513H104.869V135.855H104.856Z" fill="white"/>
<path d="M125.278 138.039C123.826 138.039 122.521 137.719 121.402 137.079C120.269 136.44 119.377 135.561 118.724 134.442C118.071 133.323 117.738 132.044 117.738 130.632C117.738 129.22 118.071 127.914 118.724 126.809C119.377 125.703 120.269 124.824 121.402 124.198C122.534 123.572 123.826 123.252 125.278 123.252C126.73 123.252 128.009 123.572 129.141 124.198C130.274 124.824 131.179 125.69 131.819 126.795C132.472 127.901 132.791 129.18 132.791 130.632C132.791 132.084 132.472 133.349 131.819 134.455C131.166 135.561 130.274 136.44 129.141 137.079C127.996 137.719 126.717 138.039 125.278 138.039ZM125.278 135.747C126.211 135.747 127.037 135.534 127.782 135.121C128.528 134.708 129.101 134.109 129.514 133.336C129.927 132.563 130.14 131.671 130.14 130.645C130.14 129.619 129.927 128.714 129.514 127.954C129.101 127.195 128.515 126.609 127.782 126.196C127.05 125.783 126.211 125.57 125.278 125.57C124.346 125.57 123.52 125.783 122.787 126.196C122.054 126.622 121.468 127.208 121.042 127.954C120.602 128.714 120.389 129.606 120.389 130.645C120.389 131.684 120.602 132.563 121.042 133.336C121.482 134.109 122.068 134.708 122.787 135.121C123.52 135.534 124.346 135.747 125.278 135.747Z" fill="white"/>
<path d="M143.075 138.039C141.557 138.039 140.225 137.719 139.039 137.093C137.867 136.467 136.934 135.588 136.268 134.456C135.589 133.323 135.256 132.045 135.256 130.632C135.256 129.22 135.589 127.915 136.268 126.809C136.948 125.704 137.867 124.811 139.039 124.172C140.211 123.519 141.557 123.199 143.075 123.199C144.328 123.199 145.487 123.399 146.526 123.799C147.565 124.198 148.444 124.798 149.15 125.57L147.618 127.076C147.018 126.49 146.339 126.063 145.593 125.784C144.847 125.504 144.035 125.357 143.155 125.357C142.116 125.357 141.184 125.584 140.358 126.037C139.532 126.49 138.879 127.116 138.4 127.915C137.92 128.701 137.694 129.62 137.694 130.632C137.694 131.645 137.933 132.564 138.4 133.363C138.879 134.163 139.519 134.789 140.358 135.242C141.184 135.681 142.116 135.908 143.155 135.908C144.035 135.908 144.847 135.761 145.593 135.481C146.339 135.202 147.018 134.762 147.618 134.149L149.15 135.681C148.444 136.454 147.565 137.027 146.526 137.426C145.487 137.826 144.341 138.026 143.075 138.026V138.039ZM145.02 129.753V131.725H136.868V129.753H145.02Z" fill="white"/>
<path d="M151.694 120.788C151.308 120.788 150.988 120.655 150.722 120.389C150.455 120.122 150.322 119.803 150.322 119.416C150.322 119.03 150.455 118.684 150.722 118.417C150.988 118.151 151.308 118.018 151.694 118.018C152.081 118.018 152.4 118.151 152.653 118.417C152.907 118.684 153.04 119.017 153.04 119.416C153.04 119.816 152.907 120.122 152.653 120.389C152.4 120.655 152.081 120.788 151.694 120.788ZM152.32 137.879V123.386H154.945V137.879H152.32ZM155.571 120.788C155.185 120.788 154.865 120.655 154.612 120.389C154.359 120.122 154.225 119.803 154.225 119.416C154.225 119.03 154.359 118.684 154.612 118.417C154.865 118.151 155.185 118.018 155.571 118.018C155.957 118.018 156.277 118.151 156.543 118.417C156.81 118.684 156.943 119.017 156.943 119.416C156.943 119.816 156.81 120.122 156.543 120.389C156.277 120.655 155.957 120.788 155.571 120.788Z" fill="white"/>
<path d="M173.673 138.039C172.195 138.039 170.876 137.719 169.717 137.079C168.558 136.44 167.652 135.561 166.999 134.455C166.347 133.349 166.014 132.071 166.014 130.632C166.014 129.193 166.347 127.914 166.999 126.809C167.652 125.703 168.558 124.824 169.717 124.198C170.876 123.572 172.195 123.252 173.673 123.252C174.992 123.252 176.151 123.505 177.19 124.025C178.216 124.544 179.015 125.317 179.588 126.329L177.59 127.608C177.11 126.902 176.537 126.369 175.858 126.036C175.179 125.703 174.446 125.53 173.66 125.53C172.714 125.53 171.862 125.743 171.116 126.156C170.37 126.582 169.77 127.168 169.344 127.914C168.904 128.674 168.691 129.566 168.691 130.605C168.691 131.644 168.904 132.55 169.344 133.309C169.784 134.069 170.37 134.668 171.116 135.081C171.862 135.494 172.714 135.707 173.66 135.707C174.446 135.707 175.179 135.534 175.858 135.201C176.537 134.868 177.124 134.335 177.59 133.629L179.588 134.881C179.029 135.88 178.229 136.653 177.19 137.186C176.164 137.719 174.992 137.999 173.673 137.999V138.039Z" fill="white"/>
<path d="M182.973 137.88V123.387H185.597V133.937L194.482 123.387H196.867V137.88H194.242V127.33L185.384 137.88H182.973Z" fill="white"/>
<path d="M199.531 137.853L199.691 135.642C199.824 135.655 199.931 135.682 200.051 135.695C200.157 135.708 200.264 135.722 200.357 135.722C200.943 135.722 201.396 135.522 201.743 135.122C202.076 134.722 202.329 134.19 202.489 133.524C202.648 132.857 202.768 132.111 202.848 131.272C202.915 130.433 202.981 129.594 203.008 128.755L203.248 123.399H214.371V137.893H211.747V124.931L212.373 125.691H204.94L205.539 124.905L205.353 128.928C205.299 130.207 205.193 131.392 205.046 132.511C204.9 133.617 204.673 134.603 204.38 135.442C204.074 136.281 203.674 136.934 203.155 137.413C202.635 137.893 201.969 138.119 201.143 138.119C200.903 138.119 200.65 138.093 200.397 138.053C200.144 138.013 199.851 137.946 199.531 137.88V137.853Z" fill="white"/>
<path d="M219.475 137.88V123.387H222.099V133.937L230.984 123.387H233.369V137.88H230.744V127.33L221.886 137.88H219.475Z" fill="white"/>
</svg>
