<svg width="71" height="63" viewBox="0 0 71 63" fill="none" xmlns="http://www.w3.org/2000/svg">
<path d="M2.6825 49.8257H56.2787C56.7594 49.8257 57.224 49.6575 57.5924 49.351C58.1072 48.9199 69.8501 38.818 70.5661 17.0117H13.005C12.2917 36.8059 1.477 46.1098 1.36461 46.2026C0.705732 46.7594 0.463318 47.6687 0.759738 48.4779C1.05411 49.285 1.82127 49.8257 2.6825 49.8257Z" fill="white"/>
<path d="M68.5835 4.70624H58.3292V2.65537C58.3292 1.50688 57.4268 0.604492 56.2783 0.604492C55.1298 0.604492 54.2274 1.50688 54.2274 2.65537V4.70624H43.8363V2.65537C43.8363 1.50688 42.934 0.604492 41.7855 0.604492C40.637 0.604492 39.7346 1.50688 39.7346 2.65537V4.70624H29.4802V2.65537C29.4802 1.50688 28.5778 0.604492 27.4294 0.604492C26.2809 0.604492 25.3785 1.50688 25.3785 2.65537V4.70624H15.1241C13.9756 4.70624 13.0732 5.60862 13.0732 6.75711V12.9097H70.6344V6.75711C70.6344 5.60862 69.732 4.70624 68.5835 4.70624Z" fill="white"/>
<path d="M60.2258 52.4949C59.1122 53.4222 57.7143 53.927 56.2783 53.927H13.0732V60.0796C13.0732 61.2132 13.9905 62.1305 15.1241 62.1305H68.5835C69.7171 62.1305 70.6344 61.2132 70.6344 60.0796V37.0898C66.6803 46.7906 61.1627 51.7108 60.2258 52.4949Z" fill="white"/>
</svg>
