<svg width="66" height="66" viewBox="0 0 66 66" fill="none" xmlns="http://www.w3.org/2000/svg">
<path d="M32.562 0.919922C14.6406 0.919922 0.0605469 15.5 0.0605469 33.4214C0.0605469 51.3428 14.6406 65.9229 32.562 65.9229C50.4834 65.9229 65.0635 51.3428 65.0635 33.4214C65.0635 15.5 50.4834 0.919922 32.562 0.919922ZM47.3021 37.9075H31.9211C31.8901 37.9075 31.8602 37.9038 31.8296 37.9029C31.799 37.9041 31.769 37.9075 31.738 37.9075C30.2211 37.9075 28.9914 36.6778 28.9914 35.1608V12.8219C28.9914 11.305 30.2211 10.0753 31.738 10.0753C33.255 10.0753 34.4847 11.305 34.4847 12.8219V32.4143H47.3022C48.8191 32.4143 50.0488 33.6441 50.0488 35.161C50.0488 36.6779 48.819 37.9075 47.3021 37.9075Z" fill="white"/>
</svg>
