<svg width="70" height="71" viewBox="0 0 70 71" fill="none" xmlns="http://www.w3.org/2000/svg">
<path d="M32.5037 28.9203C33.2934 28.1192 34.5731 28.1192 35.3627 28.9203C36.1045 29.6733 36.1487 30.8653 35.4954 31.6712H43.5366C44.839 31.6712 46.1098 31.9126 47.3143 32.389C47.5027 32.4637 47.6891 32.5433 47.8723 32.6287C48.0502 32.546 48.2308 32.4685 48.414 32.3954C49.6237 31.9147 50.8966 31.6712 52.1974 31.6712H63.0234C63.0381 31.6712 63.0529 31.6723 63.0671 31.6723L67.5144 27.1605C70.0244 24.6147 69.9675 20.5361 67.5144 18.0474L52.2042 2.51537C49.6942 -0.0310119 45.6744 0.0261323 43.2213 2.51537L35.566 10.2811C34.99 10.8654 34.5489 11.5351 34.2409 12.2502L38.425 16.4943C39.2141 17.2954 39.2141 18.5937 38.425 19.3948C37.6353 20.1954 36.3556 20.1954 35.566 19.3948L31.3824 15.1506C31.3824 15.1506 31.3824 15.1506 31.3824 15.1501L31.3793 15.1474C30.666 15.4652 30.0095 15.9181 29.4415 16.4943L14.4814 31.6712H29.7921L32.5037 28.9203ZM41.6899 22.707C42.4795 21.9059 43.7593 21.9059 44.5489 22.707L47.6106 25.8136C48.4003 26.6142 48.4003 27.913 47.6106 28.7136C46.8215 29.5147 45.5418 29.5147 44.7521 28.7136L41.6899 25.6075C40.9008 24.8064 40.9008 23.5081 41.6899 22.707Z" fill="#006A4E"/>
<path d="M32.5037 28.9203C33.2934 28.1192 34.5731 28.1192 35.3627 28.9203C36.1045 29.6733 36.1487 30.8653 35.4954 31.6712H43.5366C44.839 31.6712 46.1098 31.9126 47.3143 32.389C47.5027 32.4637 47.6891 32.5433 47.8723 32.6287C48.0502 32.546 48.2308 32.4685 48.414 32.3954C49.6237 31.9147 50.8966 31.6712 52.1974 31.6712H63.0234C63.0381 31.6712 63.0529 31.6723 63.0671 31.6723L67.5144 27.1605C70.0244 24.6147 69.9675 20.5361 67.5144 18.0474L52.2042 2.51537C49.6942 -0.0310119 45.6744 0.0261323 43.2213 2.51537L35.566 10.2811C34.99 10.8654 34.5489 11.5351 34.2409 12.2502L38.425 16.4943C39.2141 17.2954 39.2141 18.5937 38.425 19.3948C37.6353 20.1954 36.3556 20.1954 35.566 19.3948L31.3824 15.1506C31.3824 15.1506 31.3824 15.1506 31.3824 15.1501L31.3793 15.1474C30.666 15.4652 30.0095 15.9181 29.4415 16.4943L14.4814 31.6712H29.7921L32.5037 28.9203ZM41.6899 22.707C42.4795 21.9059 43.7593 21.9059 44.5489 22.707L47.6106 25.8136C48.4003 26.6142 48.4003 27.913 47.6106 28.7136C46.8215 29.5147 45.5418 29.5147 44.7521 28.7136L41.6899 25.6075C40.9008 24.8064 40.9008 23.5081 41.6899 22.707Z" fill="#006A4E"/>
<path d="M63.0241 35.7734H52.1976C51.3837 35.7734 50.6051 35.9305 49.8887 36.2151V42.2174C49.8887 43.3501 48.9837 44.2682 47.8672 44.2682C46.7511 44.2682 45.8457 43.3501 45.8457 42.2174V36.2108C45.8457 36.2108 45.8462 36.2108 45.8462 36.2114C45.1197 35.924 44.3401 35.7734 43.5368 35.7734H6.72786C3.17868 35.7734 0.375977 38.6979 0.375977 42.2174V64.1837C0.375977 67.7843 3.2587 70.6276 6.72786 70.6276H43.5368C44.3401 70.6276 45.1203 70.477 45.8462 70.1897V64.1837C45.8462 63.051 46.7511 62.1329 47.8677 62.1329C48.9837 62.1329 49.8892 63.051 49.8892 64.1837V70.1854C50.6051 70.4701 51.3837 70.6276 52.1981 70.6276H63.0241C66.5733 70.6276 69.376 67.7031 69.376 64.1837V42.2174C69.376 38.6168 66.4933 35.7734 63.0241 35.7734ZM24.05 59.6447H11.0583C9.94223 59.6447 9.03677 58.7262 9.03677 57.594C9.03677 56.4612 9.94223 55.5432 11.0583 55.5432H24.05C25.166 55.5432 26.0715 56.4612 26.0715 57.594C26.0715 58.7262 25.166 59.6447 24.05 59.6447ZM37.0412 50.8579H11.0583C9.9417 50.8579 9.03677 49.9398 9.03677 48.8071C9.03677 47.6749 9.9417 46.7563 11.0583 46.7563H37.0412C38.1577 46.7563 39.0627 47.6749 39.0627 48.8071C39.0627 49.9398 38.1577 50.8579 37.0412 50.8579ZM49.8887 55.3969C49.8887 56.5296 48.9837 57.4476 47.8672 57.4476C46.7511 57.4476 45.8457 56.5296 45.8457 55.3969V51.0037C45.8457 49.8715 46.7511 48.9529 47.8672 48.9529C48.9837 48.9529 49.8887 49.8715 49.8887 51.0037V55.3969Z" fill="#006A4E"/>
<path d="M63.0241 35.7734H52.1976C51.3837 35.7734 50.6051 35.9305 49.8887 36.2151V42.2174C49.8887 43.3501 48.9837 44.2682 47.8672 44.2682C46.7511 44.2682 45.8457 43.3501 45.8457 42.2174V36.2108C45.8457 36.2108 45.8462 36.2108 45.8462 36.2114C45.1197 35.924 44.3401 35.7734 43.5368 35.7734H6.72786C3.17868 35.7734 0.375977 38.6979 0.375977 42.2174V64.1837C0.375977 67.7843 3.2587 70.6276 6.72786 70.6276H43.5368C44.3401 70.6276 45.1203 70.477 45.8462 70.1897V64.1837C45.8462 63.051 46.7511 62.1329 47.8677 62.1329C48.9837 62.1329 49.8892 63.051 49.8892 64.1837V70.1854C50.6051 70.4701 51.3837 70.6276 52.1981 70.6276H63.0241C66.5733 70.6276 69.376 67.7031 69.376 64.1837V42.2174C69.376 38.6168 66.4933 35.7734 63.0241 35.7734ZM24.05 59.6447H11.0583C9.94223 59.6447 9.03677 58.7262 9.03677 57.594C9.03677 56.4612 9.94223 55.5432 11.0583 55.5432H24.05C25.166 55.5432 26.0715 56.4612 26.0715 57.594C26.0715 58.7262 25.166 59.6447 24.05 59.6447ZM37.0412 50.8579H11.0583C9.9417 50.8579 9.03677 49.9398 9.03677 48.8071C9.03677 47.6749 9.9417 46.7563 11.0583 46.7563H37.0412C38.1577 46.7563 39.0627 47.6749 39.0627 48.8071C39.0627 49.9398 38.1577 50.8579 37.0412 50.8579ZM49.8887 55.3969C49.8887 56.5296 48.9837 57.4476 47.8672 57.4476C46.7511 57.4476 45.8457 56.5296 45.8457 55.3969V51.0037C45.8457 49.8715 46.7511 48.9529 47.8672 48.9529C48.9837 48.9529 49.8887 49.8715 49.8887 51.0037V55.3969Z" fill="#006A4E"/>
</svg>
