<svg width="1591" height="814" viewBox="0 0 1591 814" fill="none" xmlns="http://www.w3.org/2000/svg">
<path d="M344.372 406.231L434.083 567.861L388.508 580.841L352.85 590.067L340.633 587.561L267.541 467.659C267.541 467.659 274.417 458.893 290.521 439.543C306.307 420.576 344.372 406.231 344.372 406.231Z" fill="#4C7AFF" stroke="#B2B2B2"/>
<path d="M434.078 568.035L344.378 406.276L390.431 380.83C390.431 380.83 431.475 404.131 433.398 404.558C435.322 404.986 486.932 392.793 486.932 392.793L562.152 515.594L486.843 545.837L434.078 568.035Z" fill="#009257" stroke="#B2B2B2"/>
<path d="M632.32 495.577C616.418 501.864 577.352 514.414 562.263 516.189L486.975 392.961L501.479 368.339L582.428 318.757C582.428 318.757 564.09 370.354 588.499 378.12C612.907 385.886 621.89 368.339 621.89 368.339L651.572 425.003L645.838 463.791L632.32 495.577Z" fill="#E75481" stroke="#B2B2B2"/>
<path d="M687.412 445.95C677.03 461.057 654.887 492.192 649.37 495.871L610.196 540.601L640.086 553.055L742.21 540.601V513.202L764.627 503.238H906.604L897.098 369.721L742.21 387.415L723.529 445.95H687.412Z" fill="#009257" stroke="#B2B2B2"/>
<path d="M906.657 503.486L898.612 390.409L897.051 369.832L1014.42 374.01L1022.96 514.832L906.657 503.486Z" fill="#E75481"/>
<path d="M1166.18 370.216C1118.55 373.167 1019.73 374.71 1014.67 373.698L1018.52 446.099L1023.08 514.704L1102.95 535.885H1139.12V516.627H1160.41L1166.18 370.216Z" fill="white" stroke="#B2B2B2"/>
<path d="M1271.98 389.081C1254.64 387.041 1209.5 380.028 1166.65 370.234L1161.39 498.984C1182.8 498.984 1225.19 499.176 1229.69 499.176C1234.2 499.176 1241.66 462.179 1245.04 443.931H1271.98L1280.34 398.463L1271.98 389.081Z" fill="#783FAA" stroke="#B2B2B2"/>
<path d="M1159.65 535.884L1161.28 499.049H1229.97L1222.16 513.188L1192.76 535.884H1159.65Z" fill="#4C7AFF" stroke="#B2B2B2"/>
<path d="M1138.58 517.076V535.884H1159.65V517.076H1138.58Z" fill="#9C51B6" stroke="#B2B2B2"/>
<path d="M904.796 477.381L906.757 504.69L949.002 508.311L946.437 474.665L904.796 477.381Z" fill="#4C7AFF" stroke="#B2B2B2"/>
<path d="M328.518 597.221C349.889 594.846 410.744 578.113 435.479 570.692L558.659 520.233L634.348 497.971L757.529 506.876H907.606L950.002 509.824" stroke="#A6A2A2" stroke-width="7"/>
<path d="M653.529 497.157L680.079 461.696L1015.28 450.017" stroke="#A5A1A1" stroke-width="2"/>
</svg>
