<svg width="1600" height="805" viewBox="0 0 1600 805" fill="none" xmlns="http://www.w3.org/2000/svg">
<g clip-path="url(#clip0_787_45)">
<path d="M1611.57 -14.7891H-9V821.273H1611.57V-14.7891Z" fill="#F4F2EF"/>
<path d="M86.0371 812.019L123.285 794.482C123.285 794.482 134.242 787.908 145.924 784.979C157.606 782.05 178.795 766.708 183.906 763.053C189.018 759.399 189.752 755.745 193.404 750.63C197.057 745.516 195.598 738.208 203.627 738.933C211.656 739.658 217.502 749.161 224.807 753.55C232.111 757.939 254.75 772.547 262.789 776.936C270.828 781.325 292.733 792.288 299.312 798.127C305.892 803.966 327.797 814.939 327.797 814.939L316.106 823.707L303.69 814.939C303.69 814.939 263.514 790.818 257.668 787.164C251.823 783.51 218.952 761.584 216.768 760.859C214.584 760.134 204.352 765.248 198.506 765.248C192.66 765.248 175.867 775.476 172.215 778.405C168.563 781.334 147.383 795.942 142.996 795.942C138.61 795.942 115.237 803.985 110.125 808.365C105.014 812.744 94.7818 815.673 94.7818 815.673L86.0181 812.019H86.0371Z" fill="#4C7AFF"/>
<path d="M428.613 818.592C428.613 818.592 487.775 779.855 496.539 778.395C505.302 776.935 541.091 776.935 559.353 783.509C577.615 790.083 620.708 796.667 630.206 797.392C639.704 798.117 669.648 800.311 680.605 803.966C691.562 807.62 715.669 817.848 726.626 817.123C737.583 816.398 752.917 813.469 758.038 806.895C763.159 800.321 795.286 741.117 804.059 731.624C812.833 722.13 900.479 586.186 908.509 575.958C916.538 565.73 930.423 541.61 933.341 538.69C936.259 535.77 936.259 524.808 943.563 523.338C950.868 521.869 959.632 519.684 963.284 524.073C966.936 528.462 998.348 539.425 1005.65 540.15C1012.96 540.875 1108.64 564.995 1116.68 567.19C1124.72 569.384 1158.32 580.347 1167.81 581.807C1177.31 583.267 1226.25 596.424 1236.47 597.884C1246.7 599.344 1260.58 600.079 1265.69 597.149C1270.8 594.22 1353.34 559.147 1361.38 556.227C1369.42 553.307 1402.28 537.955 1406.67 533.576C1411.05 529.197 1422.01 522.613 1430.04 509.456C1438.07 496.298 1459.98 444.413 1464.37 438.564C1468.76 432.715 1508.92 350.136 1514.77 345.747C1520.61 341.358 1542.53 304.09 1542.53 296.781C1542.53 289.472 1547.64 241.967 1547.64 233.933C1547.64 225.899 1543.25 197.39 1542.53 187.887C1541.8 178.384 1533.03 129.418 1532.3 117.73C1531.58 106.042 1530.85 68.0294 1530.85 62.9153C1530.85 57.8012 1526.87 48.2218 1526.87 48.2218C1526.87 48.2218 1528.74 -3.74946 1529.79 -13.1667C1530.84 -22.5839 1531.57 36.6101 1531.57 -28.4327C1531.57 -93.4754 1543.26 -45.9695 1543.26 -45.9695L1538.87 -22.5839C1538.87 -22.5839 1538.87 2.26153 1540.33 11.0299C1541.79 19.7984 1549.83 23.4527 1547.64 27.8416C1545.45 32.2306 1538.87 48.3076 1539.6 54.8816C1540.32 61.4555 1541.06 80.4617 1541.06 84.8411C1541.06 89.2206 1541.06 98.7237 1539.6 103.838C1538.14 108.952 1542.52 132.337 1545.45 138.186C1548.37 144.035 1552.75 187.152 1553.48 197.38C1554.22 207.608 1555.68 222.96 1555.68 226.615C1555.68 230.269 1552.03 245.611 1554.22 252.195C1556.41 258.778 1549.27 294.338 1552.19 297.258C1555.11 300.178 1569.23 311.141 1571.42 317.724C1573.61 324.308 1570.45 332.093 1568.99 340.137C1567.53 348.18 1570.7 371.804 1570.7 376.193C1570.7 380.582 1567.37 390.324 1567.37 399.827C1567.37 409.33 1569.56 422.478 1566.63 433.44C1563.71 444.403 1558.52 457.799 1557.78 463.648C1557.05 469.497 1554.56 473.705 1555.68 478.752C1559.49 496.05 1553.65 471.205 1555.84 464.621C1558.03 458.038 1556.81 455.118 1558.27 450.739C1559.73 446.359 1565.58 430.034 1565.58 420.531C1565.58 411.028 1563.14 393.73 1566.06 386.431C1568.98 379.132 1566.63 368.407 1566.63 361.099C1566.63 353.79 1563.72 343.562 1567.37 334.793C1571.02 326.025 1571.92 325.538 1567.53 316.035C1563.14 306.532 1549.27 303.613 1549.27 303.613C1549.27 303.613 1548.37 306.294 1540.34 321.636C1532.31 336.978 1517.7 357.444 1516.24 361.833C1514.77 366.222 1508.2 378.645 1504.54 386.679C1500.89 394.712 1493.59 402.031 1492.85 407.145C1492.12 412.259 1498.7 413.719 1489.94 421.762C1481.17 429.805 1477.52 429.805 1476.06 434.185C1474.6 438.564 1468.02 448.067 1465.1 453.916C1462.19 459.765 1449.03 482.416 1447.58 488.265C1446.12 494.113 1443.19 508.731 1438.81 514.57C1434.44 520.409 1421.28 531.381 1416.17 537.221C1411.06 543.06 1406.68 544.529 1399.37 548.184C1392.07 551.838 1409.59 555.492 1413.98 553.298C1418.37 551.103 1423.48 550.378 1429.32 554.032C1435.17 557.687 1449.04 567.915 1452.7 567.915C1456.35 567.915 1474.61 563.526 1474.61 563.526C1474.61 563.526 1478.26 562.066 1481.92 561.331C1485.57 560.597 1491.41 556.217 1498.72 556.943C1506.02 557.668 1510.41 560.597 1522.83 561.331C1535.24 562.066 1552.04 561.331 1556.42 561.331H1565.18C1565.18 561.331 1578.34 562.791 1580.53 563.526C1582.72 564.261 1585.32 564.986 1591.89 566.446C1598.46 567.905 1601.71 571.56 1601.71 571.56L1581.9 566.446C1581.9 566.446 1570.94 563.765 1567.29 563.765C1563.64 563.765 1543.67 562.791 1540.02 563.516C1536.37 564.242 1529.55 564.976 1521.52 563.516C1513.49 562.057 1509.1 561.322 1498.88 561.322C1488.66 561.322 1489.38 562.295 1482.08 565.224C1474.77 568.153 1460.9 571.56 1455.05 571.56C1449.21 571.56 1441.66 568.392 1436.55 564.013C1431.44 559.633 1430.06 559.872 1418.38 559.872C1406.69 559.872 1398.66 556.217 1390.62 557.677C1382.58 559.137 1383.31 562.066 1370.16 566.446C1357.01 570.825 1353.36 578.143 1335.1 578.868C1316.84 579.593 1306.61 589.097 1300.77 591.291C1294.92 593.486 1290.54 598.6 1280.31 600.794C1270.08 602.989 1268.62 607.368 1257.67 608.837C1246.73 610.307 1241.61 608.837 1233.57 606.643C1225.53 604.448 1160.52 587.646 1151.03 586.912C1141.54 586.177 1127.06 577.208 1121.81 576.683C1114.51 575.949 1077.26 562.801 1071.41 563.526C1065.57 564.251 1047.31 559.137 1042.2 556.952C1037.08 554.767 1020.28 552.563 1016.63 551.838C1012.98 551.113 1004.21 548.918 992.522 545.264C980.831 541.61 960.385 529.187 953.08 534.301C944.946 539.997 941.389 540.875 937.737 545.999C934.084 551.122 921.668 577.428 916.557 581.807C911.446 586.186 887.338 612.501 880.034 629.313C872.729 646.125 814.292 727.244 813.567 734.553C812.842 741.862 801.151 749.905 798.958 752.824C796.764 755.744 779.237 794.482 773.391 803.25C767.546 812.018 754.405 824.441 754.405 824.441L660.913 818.592C660.913 818.592 654.342 807.63 642.651 809.089C630.96 810.549 622.196 809.824 609.055 805.435C595.914 801.046 579.112 793.737 566.686 793.737C554.261 793.737 560.116 793.003 545.507 791.543C530.897 790.083 511.911 788.623 503.872 790.808C495.833 792.993 494.374 799.577 484.151 803.231C473.928 806.885 467.349 807.62 459.319 811.274C451.29 814.929 428.641 818.583 428.641 818.583L428.613 818.592Z" fill="#4C7AFF"/>
<mask id="mask0_787_45" style="mask-type:luminance" maskUnits="userSpaceOnUse" x="3" y="-8" width="1592" height="814">
<path d="M1594.23 -7.25098H3.35889V805.416H1594.23V-7.25098Z" fill="white"/>
</mask>
<g mask="url(#mask0_787_45)">
<path d="M-4.12701 94.0293L63.074 200.243L13.4004 238.245L-9.97266 236.289L-4.12701 94.0293Z" fill="#DADADA" stroke="#B2B2B2" stroke-linecap="round" stroke-linejoin="round"/>
<path d="M38.7285 446.77L78.6562 519.856L65.0196 604.63L0.746094 516.936L2.69146 500.372L39.7011 559.814C39.7011 559.814 55.2832 571.512 61.1288 565.663C66.9745 559.814 73.7928 519.865 73.7928 519.865L34.8377 453.601L38.738 446.779L38.7285 446.77Z" fill="#DADADA" stroke="#B2B2B2" stroke-linecap="round" stroke-linejoin="round"/>
<path d="M78.6562 608.524L231.558 495.488L247.14 516.927L95.211 629.963L78.6562 608.524Z" fill="#DADADA" stroke="#B2B2B2" stroke-linecap="round" stroke-linejoin="round"/>
<path d="M262.722 539.338L111.766 653.347L95.2109 629.961L247.14 516.926L262.722 539.338Z" fill="#DADADA" stroke="#B2B2B2" stroke-linecap="round" stroke-linejoin="round"/>
<path d="M295.832 587.084L144.875 700.12L128.32 677.707L281.222 564.672L295.832 587.084Z" fill="#DADADA" stroke="#B2B2B2" stroke-linecap="round" stroke-linejoin="round"/>
<path d="M311.414 614.372L161.439 725.451L144.875 700.119L295.832 587.084L311.414 614.372Z" fill="#DADADA" stroke="#B2B2B2" stroke-linecap="round" stroke-linejoin="round"/>
<path d="M131.248 234.343L215.976 194.394L241.295 242.138L233.504 244.084L210.131 296.704L189.676 302.553L164.357 297.678L131.248 234.343Z" fill="#DADADA" stroke="#B2B2B2" stroke-linecap="round" stroke-linejoin="round"/>
<path d="M159.484 405.848L167.275 398.053L113.711 307.43L106.893 315.225L159.484 405.848Z" fill="#DADADA" stroke="#B2B2B2" stroke-linecap="round" stroke-linejoin="round"/>
<path d="M89.3654 334.708L140.012 417.536L134.166 423.384L84.502 338.61L89.3654 334.708Z" fill="#DADADA" stroke="#B2B2B2" stroke-linecap="round" stroke-linejoin="round"/>
<path d="M79.6288 347.379L128.32 429.233L123.457 434.099L74.7559 352.255L79.6288 347.379Z" fill="#DADADA" stroke="#B2B2B2" stroke-linecap="round" stroke-linejoin="round"/>
<path d="M61.1193 364.915L108.848 442.867L102.029 447.743L55.2832 370.764L61.1193 364.915Z" fill="#DADADA" stroke="#B2B2B2" stroke-linecap="round" stroke-linejoin="round"/>
<path d="M88.3926 460.414L44.5646 382.452L38.7285 390.247L80.6016 468.209L88.3926 460.414Z" fill="#DADADA" stroke="#B2B2B2" stroke-linecap="round" stroke-linejoin="round"/>
<path d="M37.7461 220.699L106.893 303.527L100.084 312.295L29.9551 225.575L37.7461 220.699Z" fill="#DADADA" stroke="#B2B2B2" stroke-linecap="round" stroke-linejoin="round"/>
<path d="M94.2381 318.144L28.0097 231.424H22.1641L90.3378 321.064L94.2381 318.144Z" fill="#DADADA" stroke="#B2B2B2" stroke-linecap="round" stroke-linejoin="round"/>
<path d="M81.5741 330.815L14.373 244.085L6.58203 249.934L75.7284 334.708L81.5741 330.815Z" fill="#DADADA" stroke="#B2B2B2" stroke-linecap="round" stroke-linejoin="round"/>
<path d="M67.9376 346.405L75.7286 334.708L6.5822 249.934L1.71878 254.809L0.746094 260.658L67.9376 346.405Z" fill="#DADADA" stroke="#B2B2B2" stroke-linecap="round" stroke-linejoin="round"/>
<path d="M-1.2089 271.373L62.1014 350.298L56.2558 358.094L-4.12695 282.088L-1.2089 271.373Z" fill="#DADADA" stroke="#B2B2B2" stroke-linecap="round" stroke-linejoin="round"/>
<path d="M-5.09961 428.25L66.9649 537.392L65.0195 543.241L-5.09961 439.948V428.25Z" fill="#DADADA" stroke="#B2B2B2" stroke-linecap="round" stroke-linejoin="round"/>
<path d="M-2.18153 318.145L40.6738 374.657L34.8282 382.453L-6.07227 331.789L-2.18153 318.145Z" fill="#DADADA" stroke="#B2B2B2" stroke-linecap="round" stroke-linejoin="round"/>
<path d="M-5.09973 372.71L16.3279 402.918L17.3006 398.052L-9 362.969L-5.09973 372.71Z" fill="#DADADA" stroke="#B2B2B2" stroke-linecap="round" stroke-linejoin="round"/>
<path d="M-4.12693 396.096L8.53704 412.66L12.4278 407.794L-5.09961 382.452L-4.12693 396.096Z" fill="#DADADA" stroke="#B2B2B2" stroke-linecap="round" stroke-linejoin="round"/>
<path d="M-10.9453 571.492L-0.236249 522.775L0.745972 516.926L65.0194 604.629L177.994 764.436L143.902 787.821L58.2011 668.937L65.0194 663.088L-4.12699 572.465L-10.9453 571.492Z" fill="#DADADA" stroke="#B2B2B2" stroke-linecap="round" stroke-linejoin="round"/>
<path d="M0.746094 708.887L28.9825 693.297" stroke="#B2B2B2" stroke-linecap="round" stroke-linejoin="round"/>
<path d="M-1.20893 668.938L24.119 658.224L12.4277 634.838L-3.1543 641.65" fill="#DADADA"/>
<path d="M-1.20893 668.938L24.119 658.224L12.4277 634.838L-3.1543 641.65" stroke="#B2B2B2" stroke-linecap="round" stroke-linejoin="round"/>
<path d="M65.0194 747.863L97.1561 759.56L73.7831 738.121L65.0194 747.863L-1.20898 743.97Z" fill="#DADADA"/>
<path d="M65.0194 747.863L97.1561 759.56L73.7831 738.121L65.0194 747.863ZM65.0194 747.863L-1.20898 743.97" stroke="#B2B2B2" stroke-linecap="round" stroke-linejoin="round"/>
<path d="M213.049 726.433L329.924 639.703L355.242 678.679L275.386 739.094L239.349 723.504L213.049 726.433Z" fill="#DADADA" stroke="#B2B2B2" stroke-linecap="round" stroke-linejoin="round"/>
<path d="M219.543 732.845L237.404 730.326L283.177 750.792L383.488 752.739L402.961 746.89L435.097 792.688L426.334 800.483L391.279 808.278L356.215 813.154L344.533 811.207L219.543 732.845Z" fill="#DADADA" stroke="#B2B2B2" stroke-linecap="round" stroke-linejoin="round"/>
<path d="M355.242 678.68L397.286 741.127L382.515 745.917L287.068 743.971L275.386 739.095L355.242 678.68Z" fill="#DADADA" stroke="#B2B2B2" stroke-linecap="round" stroke-linejoin="round"/>
<path d="M474.349 819.749L300.265 545.145L131.448 277.26L-14.1523 23.9482" stroke="#979595" stroke-width="25" stroke-miterlimit="10"/>
<path d="M281.222 564.672L128.32 677.707L111.766 653.348L262.722 539.34L281.222 564.672Z" fill="#DADADA" stroke="#B2B2B2" stroke-linecap="round" stroke-linejoin="round"/>
<path d="M-7.04492 608.523L12.4278 634.838L24.1191 658.224L46.5195 683.556L28.9825 693.297L73.7832 738.122L108.848 740.069L117.611 752.74L107.875 770.276L44.5646 800.484L-3.15418 797.564L-7.04492 608.523Z" fill="#DADADA" stroke="#B2B2B2" stroke-linecap="round" stroke-linejoin="round"/>
<path d="M28.0098 46.2754L110.793 189.518L131.248 171.008L56.2558 50.1778L28.0098 46.2754Z" fill="#DADADA" stroke="#B2B2B2" stroke-linecap="round" stroke-linejoin="round"/>
<path d="M148.775 160.285L131.248 171.009L56.2559 50.1784L80.6016 47.2588L148.775 160.285Z" fill="#DADADA" stroke="#B2B2B2" stroke-linecap="round" stroke-linejoin="round"/>
<path d="M177.994 155.418L148.775 160.284L80.6016 47.2583L109.82 44.3291L177.994 155.418Z" fill="#DADADA" stroke="#B2B2B2" stroke-linecap="round" stroke-linejoin="round"/>
<path d="M200.394 137.872L132.221 32.6416L128.32 40.4368L109.82 44.3296L177.994 155.418L200.394 137.872Z" fill="#DADADA" stroke="#B2B2B2" stroke-linecap="round" stroke-linejoin="round"/>
<path d="M220.84 122.282L152.666 14.1221L138.066 19.9709L132.221 32.6417L200.394 137.872L220.84 122.282Z" fill="#DADADA" stroke="#B2B2B2" stroke-linecap="round" stroke-linejoin="round"/>
<path d="M250.058 119.362L220.84 122.282L152.666 14.1218L176.049 7.2998L250.058 119.362Z" fill="#DADADA" stroke="#B2B2B2" stroke-linecap="round" stroke-linejoin="round"/>
<path d="M286.095 132.033L250.058 119.362L176.048 7.30006L203.312 3.40723L286.095 132.033Z" fill="#DADADA" stroke="#B2B2B2" stroke-linecap="round" stroke-linejoin="round"/>
<path d="M319.205 141.774L286.096 132.032L203.312 3.40638L227.658 1.45996L319.205 141.774Z" fill="#DADADA" stroke="#B2B2B2" stroke-linecap="round" stroke-linejoin="round"/>
<path d="M343.551 139.828L319.205 141.774L227.658 1.46029L250.059 0.477539L343.551 139.828Z" fill="#DADADA" stroke="#B2B2B2" stroke-linecap="round" stroke-linejoin="round"/>
<path d="M358.16 120.335L343.551 139.828L250.059 0.477667L274.404 -1.46875L358.16 120.335Z" fill="#DADADA" stroke="#B2B2B2" stroke-linecap="round" stroke-linejoin="round"/>
<path d="M316.287 13.1485L383.488 106.691L358.16 120.335L274.404 -1.46875L316.287 13.1485Z" fill="#DADADA" stroke="#B2B2B2" stroke-linecap="round" stroke-linejoin="round"/>
<path d="M397.115 3.40723L403.933 65.7689C403.933 65.7689 401.988 75.5105 398.088 83.3057C394.187 91.1009 383.478 106.691 383.478 106.691L316.277 13.1488C316.277 13.1488 328.941 13.1489 337.705 19.9709C346.469 26.7928 356.205 39.4636 356.205 39.4636L372.76 11.2024L397.105 3.40723H397.115Z" fill="#DADADA" stroke="#B2B2B2" stroke-linecap="round" stroke-linejoin="round"/>
<path d="M446.874 -14.0538L533.548 93.6193L570.071 158.91L647.981 162.316L685.964 161.343L738.069 152.575L760.956 148.186C760.956 148.186 789.688 128.693 792.12 123.34C794.552 117.988 805.27 109.696 809.161 109.21C813.052 108.723 831.075 106.777 834.966 110.67C838.856 114.562 837.884 116.518 837.884 116.518L909.948 123.827L908.975 103.361L952.803 108.723C952.803 108.723 962.54 99.9547 968.385 99.9547C974.231 99.9547 1032.66 102.874 1032.66 102.874L1071.61 127.233L1096.45 122.358L1132 113.103L1244.48 148.672L1321.91 131.135C1321.91 131.135 1330.67 127.729 1331.64 132.595C1332.62 137.461 1328.73 145.266 1322.88 147.213C1317.04 149.159 1257.63 160.37 1257.63 160.37L1252.27 250.993L1259.57 289.969L1295.61 309.462L1329.2 321.159L1345.27 316.284L1369.62 291.925L1421.24 231.509L1468.47 193.993L1505.48 135.524L1518.63 137.957C1518.63 137.957 1539.08 231.5 1539.08 249.046C1539.08 266.593 1515.71 316.284 1515.71 316.284L1444.13 374.752L1477.73 390.829L1406.15 525.304C1406.15 525.304 1274.68 595.461 1262.98 595.461C1251.29 595.461 1198.71 583.763 1198.71 583.763L969.358 522.375C969.358 522.375 956.294 511.574 945.251 515.476C934.208 519.379 908.565 541.133 906.296 546.008C904.026 550.884 860.198 615.354 854.353 623.149C848.507 630.945 832.925 660.179 829.034 660.179C825.143 660.179 809.552 668.948 809.552 668.948C809.552 668.948 811.497 674.796 808.579 679.662C805.661 684.528 743.323 789.768 743.323 789.768L701.45 794.644H651.777L578.73 782.946L502.765 767.356L473.547 778.071L460.396 784.893L476.951 812.181L1609.59 814.127L1601.8 -20.9521L446.836 -14.0538H446.874Z" stroke="#B2B2B2" stroke-linecap="round" stroke-linejoin="round"/>
<path d="M706.419 -14.0537C706.419 -14.0537 759.983 23.4625 761.928 31.2577C761.928 31.2577 789.202 26.3821 796.01 30.2845C802.819 34.1869 809.161 36.1333 805.747 39.0529C802.333 41.9726 774.583 46.3615 774.583 46.3615C774.583 46.3615 740.005 57.0764 721.991 58.5457L718.091 94.1155L796.001 88.2667C796.001 88.2667 817.428 88.7533 813.528 73.6495C809.628 58.5457 823.751 57.5725 823.751 57.5725L905.075 76.5691L907.507 60.9787L901.661 58.0591L856.86 52.6969L841.278 26.8783L852.97 28.3381L889.493 15.1807L906.048 16.6405L909.452 2.99651L845.665 -11.6207L706.399 -14.0537H706.419Z" fill="#DADADA" stroke="#B2B2B2" stroke-linecap="round" stroke-linejoin="round"/>
<path d="M1493.73 127.157L1482.05 116.442L1448.93 115.459H1404.13L1394.39 111.566L1379.78 113.513L1374.92 123.264L1352.52 129.103L1338.88 135.925L1322.89 147.213L1257.64 160.37L1252.29 250.993L1259.59 289.969L1295.63 309.452L1329.22 321.15L1345.29 316.274L1369.5 292.869L1421.26 231.5L1468.49 193.984L1505.5 135.525L1493.73 127.157Z" fill="#DADADA" stroke="#B2B2B2" stroke-linecap="round" stroke-linejoin="round"/>
<path d="M1117.81 -12.1836L1149.94 59.9197L1173.32 94.0297L1191.83 -10.2372L1117.81 -12.1836Z" fill="#DADADA" stroke="#B2B2B2" stroke-linecap="round" stroke-linejoin="round"/>
<path d="M1247.34 -10.2373L1228.84 109.62L1173.32 94.0296L1191.83 -10.2373H1247.34Z" fill="#DADADA" stroke="#B2B2B2" stroke-linecap="round" stroke-linejoin="round"/>
<path d="M1299.93 -10.2373L1286.29 97.9224L1228.84 109.62L1247.34 -10.2373H1299.93Z" fill="#DADADA" stroke="#B2B2B2" stroke-linecap="round" stroke-linejoin="round"/>
<path d="M1351.55 -11.2109L1339.86 90.1267L1286.29 97.922L1299.93 -10.2377L1351.55 -11.2109Z" fill="#DADADA" stroke="#B2B2B2" stroke-linecap="round" stroke-linejoin="round"/>
<path d="M1416.79 -10.2377L1408.03 64.7947C1408.03 64.7947 1396.34 62.8483 1385.63 67.7143C1374.92 72.5804 1339.86 90.1267 1339.86 90.1267L1351.55 -11.2109L1416.8 -10.2377H1416.79Z" fill="#DADADA" stroke="#B2B2B2" stroke-linecap="round" stroke-linejoin="round"/>
<path d="M1529.77 -13.1572L1526.85 48.2312C1526.85 48.2312 1487.89 59.9288 1452.83 58.9461C1434.31 58.4308 1408.03 64.7948 1408.03 64.7948L1416.79 -10.2376L1529.77 -13.1572Z" fill="#DADADA" stroke="#B2B2B2" stroke-linecap="round" stroke-linejoin="round"/>
<path d="M1404.13 115.459L1441.57 214.831" stroke="#B2B2B2" stroke-linecap="round" stroke-linejoin="round"/>
<path d="M1394.39 111.566L1433.61 221.978" stroke="#B2B2B2" stroke-linecap="round" stroke-linejoin="round"/>
<path d="M1374.92 123.264L1421.26 231.5" stroke="#B2B2B2" stroke-linecap="round" stroke-linejoin="round"/>
<path d="M1357.97 127.624L1405.21 249.266" stroke="#B2B2B2" stroke-linecap="round" stroke-linejoin="round"/>
<path d="M1338.88 135.925L1389.71 268.024" stroke="#B2B2B2" stroke-linecap="round" stroke-linejoin="round"/>
<path d="M1327.19 144.693L1375.34 285.809" stroke="#B2B2B2" stroke-linecap="round" stroke-linejoin="round"/>
<path d="M1314.47 148.901L1361.95 298.957" stroke="#B2B2B2" stroke-linecap="round" stroke-linejoin="round"/>
<path d="M1299.14 152.069L1350.51 309.92" stroke="#B2B2B2" stroke-linecap="round" stroke-linejoin="round"/>
<path d="M1285.26 155.476L1277.53 278.195L1326.22 267.471L1336.63 318.45" fill="#DADADA"/>
<path d="M1285.26 155.476L1277.53 278.195L1326.22 267.471L1336.63 318.45" stroke="#B2B2B2" stroke-linecap="round" stroke-linejoin="round"/>
<path d="M834.403 810.234L836.349 773.204C836.349 773.204 839.267 758.587 848.04 759.56C856.813 760.533 899.659 768.329 899.659 768.329L897.714 810.224H834.413L834.403 810.234Z" fill="#DADADA" stroke="#B2B2B2" stroke-linecap="round" stroke-linejoin="round"/>
<path d="M907.44 809.25L912.313 738.12L991.196 641.648L1077.88 755.657L1031.13 770.274L907.44 809.25Z" fill="#DADADA" stroke="#B2B2B2" stroke-linecap="round" stroke-linejoin="round"/>
<path d="M1213.24 693.297L1166.5 635.811L1092.49 627.043L1006.78 628.989L1056.45 703.039L1092.49 749.82L1159.68 717.656L1213.24 693.297Z" fill="#DADADA" stroke="#B2B2B2" stroke-linecap="round" stroke-linejoin="round"/>
<path d="M879.204 704.995L911.341 725.452L985.36 632.882L957.114 593.906L879.204 704.995Z" fill="#DADADA" stroke="#B2B2B2" stroke-linecap="round" stroke-linejoin="round"/>
<path d="M911.341 759.561L928.868 753.713L957.114 745.917L980.487 738.122L999.969 732.273L1031.13 770.276" fill="#DADADA"/>
<path d="M911.341 759.561L928.868 753.713L957.114 745.917L980.487 738.122L999.969 732.273L1031.13 770.276" stroke="#B2B2B2" stroke-linecap="round" stroke-linejoin="round"/>
<path d="M961.987 678.68L971.724 689.404L987.306 712.79L999.97 732.273L1040.87 707.914" fill="#DADADA"/>
<path d="M961.987 678.68L971.724 689.404L987.306 712.79L999.97 732.273L1040.87 707.914" stroke="#B2B2B2" stroke-linecap="round" stroke-linejoin="round"/>
<path d="M963.198 660.408L928.144 635.076" stroke="#B2B2B2" stroke-linecap="round" stroke-linejoin="round"/>
<path d="M1077.88 628.016L1111.96 676.733L1135.33 702.065L1148.97 721.558" stroke="#B2B2B2" stroke-linecap="round" stroke-linejoin="round"/>
<path d="M999.969 819.975C999.969 819.975 996.069 805.358 1000.94 803.411C1005.81 801.465 1044.77 788.794 1055.48 783.919C1066.19 779.043 1134.36 753.711 1134.36 753.711L1159.68 789.767L1184.03 826.797L999.96 819.975H999.969Z" fill="#DADADA" stroke="#B2B2B2" stroke-linecap="round" stroke-linejoin="round"/>
<path d="M1315.51 821.922C1315.51 821.922 1326.22 796.59 1332.06 792.688C1337.91 788.785 1405.11 765.4 1405.11 765.4C1405.11 765.4 1454.79 751.756 1459.65 748.836C1464.51 745.916 1484.97 722.531 1484.97 722.531C1484.97 722.531 1483.99 719.611 1490.81 725.45C1497.63 731.29 1506.39 742.987 1510.3 742.987C1514.2 742.987 1602.81 738.112 1602.81 738.112L1599.9 810.215L1590.16 784.883L1449.92 819.966L1315.52 821.912L1315.51 821.922Z" fill="#DADADA" stroke="#B2B2B2" stroke-linecap="round" stroke-linejoin="round"/>
<path d="M1590.15 469.182L1567.75 459.44L1555.09 499.39L1577.49 512.051L1590.15 469.182Z" fill="#DADADA" stroke="#B2B2B2" stroke-linecap="round" stroke-linejoin="round"/>
<path d="M1600.86 525.694L1577.49 512.051L1590.15 469.182L1600.86 476.004V525.694Z" fill="#DADADA" stroke="#B2B2B2" stroke-linecap="round" stroke-linejoin="round"/>
<path d="M1599.89 355.174L1577.49 344.449L1576.51 380.506L1571.64 393.176L1572.62 418.508L1570.67 439.948L1600.86 452.618L1599.89 355.174Z" fill="#DADADA" stroke="#B2B2B2" stroke-linecap="round" stroke-linejoin="round"/>
<path d="M1499.58 615.344H1492.76L1520.03 667.964C1520.03 667.964 1517.11 674.786 1509.32 674.786C1501.53 674.786 1506.4 683.554 1510.29 684.527C1514.19 685.501 1518.09 687.447 1524.9 683.554C1531.72 679.661 1577.5 649.454 1577.5 649.454L1582.37 638.739L1561.91 608.531L1545.36 616.326L1537.57 604.629L1527.53 607.463L1499.59 615.344H1499.58Z" fill="#DADADA" stroke="#B2B2B2" stroke-linecap="round" stroke-linejoin="round"/>
<path d="M1546.32 640.678L1522.95 655.295L1499.58 615.346L1527.52 607.465L1546.32 640.678Z" fill="#DADADA" stroke="#B2B2B2" stroke-linecap="round" stroke-linejoin="round"/>
<path d="M1457.7 677.707L1473.29 724.478L1441.14 742.025L1423.61 685.502L1457.7 677.707Z" fill="#DADADA" stroke="#B2B2B2" stroke-linecap="round" stroke-linejoin="round"/>
<path d="M1419.72 673.812L1385.63 684.527L1403.16 744.943L1426.53 740.067L1438.22 731.299L1419.72 673.812Z" fill="#DADADA" stroke="#B2B2B2" stroke-linecap="round" stroke-linejoin="round"/>
<path d="M1513.21 704.021L1530.74 697.199L1552.17 680.635L1584.3 665.035L1598.91 688.43V730.326L1522.95 732.272L1513.21 704.021Z" fill="#DADADA" stroke="#B2B2B2" stroke-linecap="round" stroke-linejoin="round"/>
<path d="M1376.87 651.4L1409 641.648L1419.72 673.812L1385.63 684.527L1376.87 651.4Z" fill="#DADADA" stroke="#B2B2B2" stroke-linecap="round" stroke-linejoin="round"/>
<path d="M1334.98 662.116L1362.26 654.32L1379.78 699.145L1351.55 707.914L1334.98 662.116Z" fill="#DADADA" stroke="#B2B2B2" stroke-linecap="round" stroke-linejoin="round"/>
<path d="M1374.92 767.357L1381.74 764.438L1403.16 744.945L1376.87 651.402L1362.26 654.322L1379.78 699.147L1351.55 707.915L1374.92 767.357Z" fill="#DADADA" stroke="#B2B2B2" stroke-linecap="round" stroke-linejoin="round"/>
<path d="M1439.19 591.959L1446.98 615.345L1404.13 628.989L1396.34 598.781L1412.9 596.835L1439.19 591.959Z" fill="#DADADA" stroke="#B2B2B2" stroke-linecap="round" stroke-linejoin="round"/>
<path d="M1352.52 609.496L1367.13 642.633L1404.13 628.989L1396.34 598.781L1352.52 609.496Z" fill="#DADADA" stroke="#B2B2B2" stroke-linecap="round" stroke-linejoin="round"/>
<path d="M1316.48 618.265L1330.12 650.428L1367.13 642.633L1352.52 609.496L1316.48 618.265Z" fill="#DADADA" stroke="#B2B2B2" stroke-linecap="round" stroke-linejoin="round"/>
<path d="M1309.66 669.91L1348.62 769.301H1328.17L1295.06 674.786L1309.66 669.91Z" fill="#DADADA" stroke="#B2B2B2" stroke-linecap="round" stroke-linejoin="round"/>
<path d="M1266.81 716.683L1304.79 705.968L1295.06 674.787L1265.84 685.502L1266.81 716.683Z" fill="#DADADA" stroke="#B2B2B2" stroke-linecap="round" stroke-linejoin="round"/>
<path d="M1301.87 774.179L1328.17 769.304L1304.79 705.969L1266.81 716.684L1301.87 774.179Z" fill="#DADADA" stroke="#B2B2B2" stroke-linecap="round" stroke-linejoin="round"/>
<path d="M1309.66 669.911L1325.25 665.035L1363.23 765.409L1348.62 769.302L1309.66 669.911Z" fill="#DADADA" stroke="#B2B2B2" stroke-linecap="round" stroke-linejoin="round"/>
<path d="M1233.7 697.2L1254.15 691.352L1278.5 746.891L1258.05 752.74L1233.7 697.2Z" fill="#DADADA" stroke="#B2B2B2" stroke-linecap="round" stroke-linejoin="round"/>
<path d="M1215.2 704.021L1233.7 697.199L1258.05 752.739L1236.63 758.588L1215.2 704.021Z" fill="#DADADA" stroke="#B2B2B2" stroke-linecap="round" stroke-linejoin="round"/>
<path d="M1173.32 726.433L1188.9 761.517L1217.15 753.721L1221.05 761.517L1168.45 776.134C1168.45 776.134 1160.66 779.053 1148.97 756.641L1153.84 752.739L1144.11 740.068L1173.33 726.424L1173.32 726.433Z" fill="#DADADA" stroke="#B2B2B2" stroke-linecap="round" stroke-linejoin="round"/>
<path d="M1056.94 729.352L1016.78 753.119" stroke="#B2B2B2" stroke-linecap="round" stroke-linejoin="round"/>
<path d="M949.323 692.322L980.487 738.12L996.069 780.025" stroke="#B2B2B2" stroke-linecap="round" stroke-linejoin="round"/>
<path d="M933.741 712.789L957.114 745.916L969.778 788.795" stroke="#B2B2B2" stroke-linecap="round" stroke-linejoin="round"/>
<path d="M928.868 753.711L941.532 797.563" stroke="#B2B2B2" stroke-linecap="round" stroke-linejoin="round"/>
<path d="M947.397 679.795L911.341 659.195" stroke="#B2B2B2" stroke-linecap="round" stroke-linejoin="round"/>
<path d="M928.887 703.18L896.731 681.607" stroke="#B2B2B2" stroke-linecap="round" stroke-linejoin="round"/>
<path d="M836.349 779.043L862.726 782.506L898.696 787.229" fill="#DADADA"/>
<path d="M836.349 779.043L862.726 782.506L898.696 787.229" stroke="#B2B2B2" stroke-linecap="round" stroke-linejoin="round"/>
<path d="M860.208 809.737L861.829 782.354" stroke="#B2B2B2" stroke-linecap="round" stroke-linejoin="round"/>
<path d="M1025.31 686.865L987.306 712.789" stroke="#B2B2B2" stroke-linecap="round" stroke-linejoin="round"/>
<path d="M1009.71 666.018L971.723 689.403" stroke="#B2B2B2" stroke-linecap="round" stroke-linejoin="round"/>
<path d="M1056.45 703.037L1076.91 695.241L1097.35 683.553L1115.86 675.758L1178.29 650.521" stroke="#B2B2B2" stroke-linecap="round" stroke-linejoin="round"/>
<path d="M1129.49 729.352L1097.35 683.554L1079.83 663.088L1041.86 681.016" stroke="#B2B2B2" stroke-linecap="round" stroke-linejoin="round"/>
<path d="M1056.59 628.033L1064.48 641.897L1026.16 657.382" stroke="#B2B2B2" stroke-linecap="round" stroke-linejoin="round"/>
<path d="M1079.82 663.088L1064.24 641.648" stroke="#B2B2B2" stroke-linecap="round" stroke-linejoin="round"/>
<path d="M1076.91 695.242L1108.07 741.04" stroke="#B2B2B2" stroke-linecap="round" stroke-linejoin="round"/>
<path d="M1169.43 712.789L1135.33 667.964L1107.1 628.988" stroke="#B2B2B2" stroke-linecap="round" stroke-linejoin="round"/>
<path d="M1191.83 702.065L1158.56 658.566" stroke="#B2B2B2" stroke-linecap="round" stroke-linejoin="round"/>
<path d="M868.972 836.863L909.872 812.018C909.872 812.018 993.876 784.978 1005.56 784.978C1017.24 784.978 1057.41 771.095 1065.45 768.901C1073.49 766.706 1134.11 739.666 1141.42 734.552C1148.72 729.438 1212.27 698.009 1218.12 695.089C1223.96 692.17 1256.1 683.392 1263.4 679.738L1270.71 676.083C1270.71 676.083 1313.8 660.731 1321.11 659.272C1328.41 657.812 1332.8 656.352 1332.8 656.352C1332.8 656.352 1384.66 641.735 1394.89 639.54C1405.12 637.346 1451.86 623.463 1465.01 619.074C1478.16 614.685 1502.26 606.652 1516.87 602.263C1531.47 597.874 1576.03 583.991 1584.79 576.682C1593.55 569.374 1605.25 567.914 1605.25 567.914" stroke="#B2B2B2" stroke-width="3" stroke-linecap="round" stroke-linejoin="round"/>
</g>
<path d="M652.051 485.86C648.711 486.164 644.969 484.579 640.596 483.85L653.305 456.098L659.438 418.862L656.081 412.73L626.145 354.467C626.145 354.467 621.621 359.093 618.26 361.476C614.016 364.487 611.495 366.408 606.432 367.609C601.621 368.751 598.382 369.393 593.769 367.609C590.119 366.197 588.161 364.63 585.844 361.476C582.328 356.69 582.873 352.52 582.777 346.582C582.674 340.141 590.503 301.746 590.503 301.746C590.503 301.746 591.681 302.896 593.769 285.048C598.06 248.382 593.769 190.519 593.769 190.519L668.741 203.557L800.757 157.922L880.618 148.143L1037.08 135.104L1169.1 148.143L1242.44 272.01L1268.52 365.439L1170.4 355.128L1019.3 358.369L895.346 355.128L742.612 365.439L721.663 429.199L689.384 433.944L671.495 458.833L652.051 485.86Z" fill="#D9D9D9" stroke="#B2B2B2"/>
<path d="M437.046 389.662C434.078 389.662 425.712 387.246 415.569 380.814L392.999 367.573L293.389 418.732L267.508 457.553L202.109 345.875L235.003 304.115L255.339 216.671V167.865L373.286 204.47L485.286 291.913L498.644 345.875L485.286 379.272C470.443 382.735 440.015 389.662 437.046 389.662Z" fill="#D9D9D9" stroke="#B2B2B2"/>
<path d="M461.085 765.928L355.824 598.59L448.94 575.648L628.423 504.125L594.685 539.212L639.219 556.755L764.722 539.212V512.222L921.264 520.319L818.702 644.473L794.411 660.667V675.511L724.237 780.772H639.219L511.016 753.782L461.085 765.928Z" fill="#D9D9D9" stroke="#B2B2B2"/>
<path d="M886.533 630.781L885.159 632.7C884.886 632.558 884.614 632.471 884.344 632.441C884.07 632.409 883.805 632.429 883.546 632.5C883.287 632.571 883.042 632.692 882.81 632.861C882.58 633.028 882.373 633.24 882.189 633.497C881.857 633.962 881.683 634.449 881.667 634.959C881.648 635.467 881.79 635.972 882.092 636.476C882.391 636.978 882.852 637.451 883.474 637.896C884.114 638.354 884.72 638.644 885.291 638.766C885.864 638.884 886.385 638.851 886.854 638.665C887.323 638.479 887.719 638.16 888.043 637.707C888.225 637.453 888.36 637.194 888.448 636.929C888.537 636.662 888.578 636.398 888.571 636.136C888.561 635.873 888.502 635.619 888.395 635.374C888.289 635.126 888.132 634.895 887.924 634.679L889.307 632.766C889.683 633.111 889.992 633.519 890.232 633.992C890.472 634.459 890.623 634.967 890.685 635.516C890.747 636.059 890.701 636.623 890.548 637.207C890.395 637.786 890.112 638.364 889.7 638.939C889.127 639.74 888.433 640.326 887.62 640.697C886.808 641.066 885.928 641.188 884.98 641.061C884.034 640.932 883.073 640.519 882.097 639.82C881.119 639.12 880.418 638.34 879.995 637.48C879.572 636.621 879.406 635.747 879.499 634.859C879.588 633.968 879.915 633.129 880.48 632.34C880.852 631.82 881.27 631.39 881.734 631.051C882.2 630.708 882.696 630.465 883.224 630.321C883.748 630.175 884.289 630.138 884.847 630.21C885.407 630.28 885.969 630.47 886.533 630.781ZM887.8 630.214L886.332 629.163L890.698 623.063L892.166 624.113L890.614 626.283L895.877 630.05L894.603 631.829L889.34 628.062L887.8 630.214ZM900.375 624.043C899.888 624.723 899.322 625.209 898.677 625.498C898.032 625.783 897.353 625.873 896.64 625.77C895.925 625.664 895.223 625.365 894.533 624.871C893.838 624.374 893.326 623.804 892.999 623.163C892.668 622.52 892.535 621.849 892.599 621.148C892.663 620.442 892.938 619.749 893.425 619.068C893.912 618.387 894.479 617.905 895.124 617.62C895.769 617.33 896.449 617.238 897.164 617.344C897.877 617.447 898.58 617.748 899.276 618.246C899.965 618.739 900.475 619.307 900.806 619.95C901.133 620.591 901.266 621.265 901.202 621.97C901.138 622.671 900.862 623.362 900.375 624.043ZM898.935 622.999C899.157 622.689 899.254 622.368 899.228 622.035C899.198 621.7 899.067 621.37 898.836 621.045C898.606 620.718 898.296 620.414 897.904 620.134C897.513 619.853 897.125 619.658 896.741 619.546C896.359 619.432 896.005 619.415 895.678 619.494C895.351 619.574 895.077 619.769 894.855 620.079C894.632 620.391 894.533 620.718 894.558 621.059C894.586 621.397 894.714 621.729 894.944 622.057C895.175 622.382 895.487 622.684 895.878 622.965C896.27 623.245 896.656 623.442 897.038 623.556C897.423 623.668 897.779 623.682 898.108 623.599C898.436 623.512 898.712 623.311 898.935 622.999ZM897.697 613.285L900.935 613.734L899.488 610.783L900.858 608.868L902.828 613.227L907.627 613.633L906.263 615.539L902.985 615.201L904.378 618.173L902.998 620.101L901.062 615.694L896.317 615.213L897.697 613.285ZM908.383 612.577L901.652 607.759L902.988 605.892L909.719 610.71L908.383 612.577ZM901.455 606.2C901.257 606.478 900.994 606.65 900.668 606.717C900.341 606.779 900.048 606.717 899.788 606.531C899.53 606.347 899.38 606.091 899.336 605.763C899.291 605.431 899.368 605.126 899.567 604.848C899.765 604.571 900.028 604.401 900.355 604.339C900.682 604.272 900.973 604.331 901.23 604.515C901.49 604.701 901.643 604.96 901.688 605.293C901.731 605.62 901.654 605.923 901.455 606.2ZM912.385 611.152L908.932 608.68L909.302 608.163C909.315 607.947 909.252 607.721 909.112 607.484C908.975 607.244 908.788 606.996 908.552 606.738C908.319 606.478 908.053 606.217 907.754 605.955C907.455 605.688 907.15 605.423 906.839 605.161L904.764 603.411L908.459 598.249L913.709 602.006L914.455 600.963L917.909 603.435L916.635 605.214L914.663 603.802L911.718 607.917L913.69 609.329L912.385 611.152ZM910.632 606.305L912.448 603.768L908.635 601.039L907.337 602.853L908.049 603.469C908.732 604.033 909.292 604.542 909.727 604.995C910.16 605.446 910.462 605.883 910.632 606.305Z" fill="#5D5C5C"/>
<path d="M88.1631 213.322L88.1968 219.096L93.1798 216.18L88.1631 213.322ZM90.4358 217.206L90.0042 217.459L145.888 312.962L146.32 312.709L146.751 312.456L90.8673 216.954L90.4358 217.206Z" fill="white"/>
<path d="M110.825 247.971L112.461 243.857L112.15 243.344L109.129 245.182L108.217 243.683L115.305 239.373L116.216 240.872L113.385 242.593L113.568 242.894L117.83 243.526L118.964 245.391L113.995 244.625L111.955 249.829L110.825 247.971ZM113.516 252.63C113.189 252.092 113.02 251.558 113.01 251.027C113.004 250.496 113.141 250 113.423 249.538C113.707 249.075 114.121 248.678 114.666 248.347C115.215 248.013 115.759 247.827 116.299 247.789C116.841 247.751 117.345 247.857 117.81 248.108C118.279 248.36 118.677 248.754 119.004 249.292C119.331 249.829 119.498 250.363 119.504 250.893C119.514 251.424 119.377 251.922 119.094 252.385C118.812 252.847 118.397 253.245 117.848 253.579C117.303 253.91 116.76 254.095 116.218 254.134C115.678 254.171 115.174 254.064 114.704 253.812C114.239 253.561 113.843 253.167 113.516 252.63ZM114.662 251.942C114.811 252.187 115.004 252.349 115.242 252.428C115.482 252.506 115.749 252.513 116.042 252.449C116.336 252.387 116.638 252.262 116.947 252.074C117.256 251.886 117.506 251.676 117.696 251.443C117.888 251.213 118.004 250.973 118.045 250.724C118.086 250.474 118.032 250.227 117.884 249.983C117.734 249.736 117.537 249.571 117.294 249.488C117.052 249.408 116.784 249.398 116.49 249.46C116.197 249.525 115.896 249.651 115.587 249.839C115.278 250.027 115.028 250.236 114.836 250.466C114.646 250.699 114.531 250.941 114.491 251.193C114.455 251.445 114.512 251.695 114.662 251.942ZM115.794 256.141L121.109 252.909L122.487 255.175C122.886 255.83 123.076 256.424 123.059 256.956C123.041 257.489 122.803 257.894 122.343 258.173C122.055 258.349 121.75 258.387 121.428 258.289C121.106 258.191 120.796 257.972 120.497 257.632C120.668 257.965 120.76 258.28 120.774 258.578C120.791 258.877 120.74 259.144 120.62 259.378C120.502 259.614 120.326 259.803 120.093 259.945C119.791 260.129 119.482 260.206 119.167 260.176C118.853 260.149 118.545 260.016 118.242 259.777C117.94 259.54 117.654 259.2 117.385 258.757L115.794 256.141ZM117.733 256.844L118.488 258.086C118.613 258.291 118.759 258.422 118.926 258.479C119.097 258.536 119.268 258.513 119.439 258.409C119.628 258.294 119.741 258.144 119.778 257.961C119.816 257.78 119.773 257.586 119.648 257.381L118.892 256.139L117.733 256.844ZM119.757 255.612L120.319 256.536C120.409 256.684 120.506 256.797 120.611 256.876C120.719 256.955 120.831 256.998 120.945 257.004C121.061 257.013 121.174 256.984 121.285 256.916C121.449 256.817 121.537 256.673 121.549 256.485C121.561 256.298 121.498 256.09 121.359 255.861L120.816 254.969L119.757 255.612ZM120.577 264.241C120.245 263.695 120.069 263.157 120.051 262.627C120.036 262.099 120.169 261.605 120.448 261.144C120.729 260.682 121.151 260.281 121.711 259.94C122.258 259.607 122.802 259.422 123.344 259.383C123.886 259.344 124.39 259.447 124.855 259.692C125.321 259.939 125.713 260.323 126.03 260.845C126.243 261.195 126.385 261.556 126.456 261.927C126.531 262.299 126.525 262.666 126.438 263.028C126.354 263.393 126.18 263.742 125.918 264.075C125.658 264.406 125.303 264.71 124.85 264.985L124.445 265.231L121.716 260.743L122.629 260.187L124.515 263.288C124.727 263.159 124.887 262.998 124.995 262.806C125.103 262.614 125.153 262.409 125.146 262.189C125.142 261.97 125.075 261.753 124.944 261.538C124.808 261.314 124.636 261.148 124.427 261.038C124.221 260.929 124.003 260.878 123.771 260.887C123.541 260.894 123.321 260.96 123.109 261.085L122.241 261.613C121.978 261.773 121.78 261.96 121.647 262.173C121.516 262.389 121.453 262.618 121.459 262.861C121.465 263.105 121.543 263.35 121.693 263.596C121.792 263.76 121.907 263.896 122.035 264.004C122.164 264.112 122.304 264.187 122.456 264.227C122.607 264.268 122.765 264.273 122.929 264.243L123.669 265.661C123.299 265.791 122.927 265.823 122.552 265.757C122.18 265.692 121.824 265.533 121.483 265.279C121.146 265.025 120.844 264.68 120.577 264.241ZM122.561 267.269L123.726 266.55L123.833 266.727C123.909 266.851 124.004 266.94 124.119 266.994C124.237 267.048 124.384 267.063 124.559 267.039C124.734 267.015 124.946 266.951 125.196 266.846C125.447 266.741 125.745 266.591 126.089 266.398L128.495 265.053L130.953 269.095L125.637 272.328L124.783 270.923L128.939 268.395L128.141 267.084L126.468 267.988C126.01 268.238 125.594 268.416 125.22 268.524C124.848 268.633 124.512 268.675 124.214 268.647C123.919 268.618 123.657 268.526 123.43 268.371C123.203 268.215 123.003 267.995 122.83 267.711L122.561 267.269ZM130.576 272.155L131.542 273.744C131.97 274.447 132.136 275.099 132.039 275.698C131.944 276.296 131.617 276.766 131.056 277.107C130.691 277.328 130.317 277.435 129.932 277.425C129.549 277.415 129.179 277.289 128.821 277.048C128.465 276.807 128.145 276.451 127.86 275.983L126.332 273.471L131.648 270.238L132.504 271.647L128.348 274.174L129.02 275.278C129.17 275.525 129.355 275.69 129.577 275.773C129.798 275.857 130.007 275.841 130.202 275.725C130.406 275.598 130.524 275.416 130.556 275.178C130.591 274.939 130.533 274.696 130.383 274.449L129.417 272.86L130.576 272.155Z" fill="white"/>
</g>
<defs>
<clipPath id="clip0_787_45">
<rect width="1600" height="805" fill="white"/>
</clipPath>
</defs>
</svg>
