<svg width="1591" height="805" viewBox="0 0 1591 805" fill="none" xmlns="http://www.w3.org/2000/svg">
<g clip-path="url(#clip0_787_45)">
<path d="M344.777 398.231L434.488 559.861L388.912 572.841L353.255 582.067L341.038 579.561L267.946 459.66C267.946 459.66 274.822 450.894 290.926 431.544C306.712 412.576 344.777 398.231 344.777 398.231Z" fill="#A2A09D" stroke="#B2B2B2"/>
<path d="M434.483 560.036L344.783 398.276L390.836 372.831C390.836 372.831 431.879 396.132 433.803 396.559C435.727 396.987 487.337 384.794 487.337 384.794L562.556 507.595L487.248 537.838L434.483 560.036Z" fill="#9C51B6" stroke="#B2B2B2"/>
<path d="M632.725 487.578C616.823 493.865 577.757 506.415 562.668 508.19L487.38 384.961L501.884 360.339L582.833 310.758C582.833 310.758 564.495 362.354 588.904 370.12C613.312 377.887 622.295 360.339 622.295 360.339L651.977 417.003L646.243 455.791L632.725 487.578Z" fill="#E75481" stroke="#B2B2B2"/>
<path d="M687.817 437.951C677.435 453.058 655.292 484.193 649.774 487.872L610.601 532.602L640.491 545.056L742.615 532.602V505.203L765.032 495.239H907.009L899.536 361.98L742.615 379.416L723.933 437.951H687.817Z" fill="#00C676" stroke="#B2B2B2"/>
<path d="M1014.83 366.01L1023.37 506.832L949.354 499.611L946.843 466.665L905.204 469.38L899.017 382.409L897.456 361.832L1014.83 366.01ZM949.354 499.611L949.407 500.311L907.162 496.689L907.075 495.487L949.354 499.611ZM907.075 495.487L907.062 495.486L905.621 475.231L907.075 495.487ZM905.621 475.231L905.201 469.381L905.204 469.38L905.621 475.231Z" fill="#512789"/>
<path d="M1014.83 366.01L1015.33 365.979L1015.3 365.526L1014.84 365.51L1014.83 366.01ZM1023.37 506.832L1023.32 507.33L1023.9 507.387L1023.87 506.802L1023.37 506.832ZM946.843 466.665L947.341 466.627L947.304 466.134L946.81 466.166L946.843 466.665ZM899.017 382.409L899.515 382.374L899.515 382.371L899.017 382.409ZM897.456 361.832L897.474 361.332L896.915 361.312L896.957 361.87L897.456 361.832ZM949.407 500.311L949.365 500.809L949.951 500.859L949.906 500.272L949.407 500.311ZM907.162 496.689L906.663 496.726L906.694 497.151L907.119 497.188L907.162 496.689ZM907.062 495.486L906.564 495.522L906.594 495.952L907.024 495.985L907.062 495.486ZM905.201 469.381L905.043 468.907L904.675 469.029L904.702 469.417L905.201 469.381ZM1014.83 366.01L1014.33 366.04L1022.87 506.862L1023.37 506.832L1023.87 506.802L1015.33 365.979L1014.83 366.01ZM1023.37 506.832L1023.42 506.334L949.402 499.114L949.354 499.611L949.305 500.109L1023.32 507.33L1023.37 506.832ZM949.354 499.611L949.852 499.573L947.341 466.627L946.843 466.665L946.344 466.703L948.855 499.649L949.354 499.611ZM946.843 466.665L946.81 466.166L905.172 468.881L905.204 469.38L905.237 469.879L946.875 467.164L946.843 466.665ZM905.204 469.38L905.703 469.344L899.515 382.374L899.017 382.409L898.518 382.445L904.705 469.415L905.204 469.38ZM899.017 382.409L899.515 382.371L897.955 361.794L897.456 361.832L896.957 361.87L898.518 382.447L899.017 382.409ZM897.456 361.832L897.438 362.332L1014.81 366.509L1014.83 366.01L1014.84 365.51L897.474 361.332L897.456 361.832ZM949.354 499.611L948.855 499.65L948.909 500.349L949.407 500.311L949.906 500.272L949.852 499.573L949.354 499.611ZM949.407 500.311L949.45 499.812L907.205 496.191L907.162 496.689L907.119 497.188L949.365 500.809L949.407 500.311ZM907.162 496.689L907.661 496.653L907.574 495.451L907.075 495.487L906.576 495.523L906.663 496.726L907.162 496.689ZM907.075 495.487L907.027 495.985L949.305 500.109L949.354 499.611L949.402 499.114L907.124 494.99L907.075 495.487ZM907.075 495.487L907.114 494.989L907.101 494.988L907.062 495.486L907.024 495.985L907.037 495.986L907.075 495.487ZM907.062 495.486L907.561 495.451L906.12 475.196L905.621 475.231L905.122 475.267L906.564 495.522L907.062 495.486ZM905.621 475.231L905.122 475.267L906.576 495.523L907.075 495.487L907.574 495.452L906.12 475.196L905.621 475.231ZM905.621 475.231L906.12 475.196L905.7 469.345L905.201 469.381L904.702 469.417L905.122 475.267L905.621 475.231ZM905.201 469.381L905.359 469.855L905.362 469.854L905.204 469.38L905.046 468.906L905.043 468.907L905.201 469.381ZM905.204 469.38L904.705 469.415L905.122 475.267L905.621 475.231L906.12 475.196L905.703 469.344L905.204 469.38Z" fill="#B2B2B2"/>
<path d="M1166.59 362.217C1118.95 365.168 1019.88 366.757 1014.82 365.745L1018.61 437.904L1023.49 506.705L1103.35 527.886H1160.32L1166.59 362.217Z" fill="#009257" stroke="#B2B2B2"/>
<path d="M1272.39 381.081C1255.04 379.041 1208.94 371.591 1166.09 361.797L1160.42 491.177H1230.1C1234.61 491.177 1242.06 454.18 1245.44 435.932H1272.39L1280.75 390.463L1272.39 381.081Z" fill="#783FAA" stroke="#B2B2B2"/>
<path d="M1160.05 527.886V491.051H1230.38L1222.56 505.19L1193.17 527.886H1160.05Z" fill="#FB004D" stroke="#B2B2B2"/>
<path d="M1138.99 509.078V527.886H1160.05V509.078H1138.99Z" fill="#A2A09D" stroke="#B2B2B2"/>
<path d="M905.2 469.382L907.162 496.69L949.407 500.311L946.842 466.666L905.2 469.382Z" fill="#A2A09D" stroke="#B2B2B2"/>
<path d="M328.923 589.221C350.294 586.847 411.149 570.113 435.884 562.693L559.064 512.233L634.753 489.972L757.934 498.876H908.011L946.692 500.182" stroke="#979595" stroke-width="7" stroke-linecap="round"/>
<path d="M947.572 500.359C948.839 500.5 998.9 505.111 1023.77 507.398L1103.15 528.806H1161.25" stroke="#979595" stroke-width="3"/>
<path d="M653.934 489.158L680.484 453.696L1018.5 442" stroke="#979595" stroke-width="2"/>
<path d="M392.5 485.5L514 434.5L642 398" stroke="#979595" stroke-width="2"/>
</g>
<defs>
<clipPath id="clip0_787_45">
<rect width="1591" height="805" fill="white"/>
</clipPath>
</defs>
</svg>
