<svg width="1601" height="806" viewBox="0 0 1601 806" fill="none" xmlns="http://www.w3.org/2000/svg">
<g clip-path="url(#clip0_787_45)">
<path d="M1612.18 -14.2539H-8.38818V821.808H1612.18V-14.2539Z" fill="#F4F2EF"/>
<path d="M86.649 812.554L123.897 795.017C123.897 795.017 134.854 788.443 146.536 785.514C158.218 782.585 179.407 767.243 184.518 763.588C189.63 759.934 190.364 756.28 194.016 751.166C197.668 746.052 196.209 738.743 204.239 739.468C212.268 740.193 218.114 749.696 225.419 754.085C232.723 758.474 255.362 773.082 263.401 777.471C271.44 781.86 293.344 792.823 299.924 798.662C306.504 804.501 328.409 815.474 328.409 815.474L316.717 824.242L304.301 815.474C304.301 815.474 264.126 791.353 258.28 787.699C252.434 784.045 219.563 762.119 217.38 761.394C215.196 760.669 204.964 765.783 199.118 765.783C193.272 765.783 176.479 776.011 172.827 778.94C169.175 781.869 147.995 796.477 143.608 796.477C139.222 796.477 115.849 804.52 110.737 808.9C105.626 813.279 95.3936 816.208 95.3936 816.208L86.6299 812.554H86.649Z" fill="#4C7AFF"/>
<path d="M429.225 819.128C429.225 819.128 488.387 780.39 497.15 778.93C505.914 777.47 541.703 777.47 559.965 784.044C578.226 790.618 621.32 797.202 630.818 797.927C640.316 798.652 670.26 800.846 681.217 804.501C692.174 808.155 716.281 818.383 727.238 817.658C738.195 816.933 753.529 814.004 758.65 807.43C763.771 800.856 795.898 741.653 804.671 732.159C813.444 722.665 901.091 586.722 909.12 576.493C917.15 566.265 931.034 542.145 933.952 539.225C936.87 536.306 936.87 525.343 944.175 523.873C951.48 522.404 960.243 520.219 963.896 524.608C967.548 528.997 998.96 539.96 1006.26 540.685C1013.57 541.41 1109.25 565.53 1117.29 567.725C1125.33 569.919 1158.93 580.882 1168.43 582.342C1177.92 583.802 1226.86 596.959 1237.09 598.419C1247.31 599.879 1261.19 600.614 1266.31 597.685C1271.42 594.755 1353.95 559.682 1361.99 556.762C1370.03 553.842 1402.89 538.491 1407.28 534.111C1411.66 529.732 1422.62 523.148 1430.65 509.991C1438.68 496.833 1460.59 444.948 1464.98 439.099C1469.37 433.25 1509.53 350.671 1515.38 346.282C1521.22 341.893 1543.14 304.625 1543.14 297.316C1543.14 290.008 1548.25 242.502 1548.25 234.468C1548.25 226.434 1543.86 197.925 1543.14 188.422C1542.41 178.919 1533.64 129.953 1532.92 118.265C1532.19 106.577 1531.46 68.5646 1531.46 63.4505C1531.46 58.3364 1527.48 48.7569 1527.48 48.7569C1527.48 48.7569 1529.35 -3.2143 1530.4 -12.6315C1531.45 -22.0487 1532.18 37.1452 1532.18 -27.8975C1532.18 -92.9403 1543.87 -45.4344 1543.87 -45.4344L1539.49 -22.0487C1539.49 -22.0487 1539.49 2.79668 1540.95 11.5651C1542.4 20.3335 1550.44 23.9878 1548.25 28.3768C1546.06 32.7658 1539.49 48.8428 1540.21 55.4167C1540.94 61.9906 1541.67 80.9968 1541.67 85.3763C1541.67 89.7557 1541.67 99.2588 1540.21 104.373C1538.75 109.487 1543.13 132.873 1546.06 138.721C1548.98 144.57 1553.36 187.687 1554.1 197.915C1554.83 208.144 1556.29 223.496 1556.29 227.15C1556.29 230.804 1552.64 246.146 1554.83 252.73C1557.02 259.313 1549.88 294.874 1552.8 297.793C1555.72 300.713 1569.84 311.676 1572.03 318.259C1574.23 324.843 1571.06 332.628 1569.6 340.672C1568.14 348.715 1571.31 372.339 1571.31 376.728C1571.31 381.117 1567.98 390.859 1567.98 400.362C1567.98 409.865 1570.17 423.013 1567.25 433.976C1564.32 444.939 1559.13 458.334 1558.4 464.183C1557.66 470.032 1555.17 474.24 1556.29 479.287C1560.1 496.585 1554.26 471.74 1556.45 465.156C1558.64 458.573 1557.42 455.653 1558.88 451.274C1560.34 446.895 1566.19 430.569 1566.19 421.066C1566.19 411.563 1563.76 394.265 1566.67 386.966C1569.59 379.667 1567.25 368.942 1567.25 361.634C1567.25 354.325 1564.33 344.097 1567.98 335.329C1571.63 326.56 1572.53 326.074 1568.14 316.57C1563.76 307.067 1549.88 304.148 1549.88 304.148C1549.88 304.148 1548.98 306.829 1540.96 322.171C1532.93 337.514 1518.32 357.98 1516.85 362.368C1515.38 366.757 1508.81 379.18 1505.16 387.214C1501.5 395.248 1494.2 402.566 1493.47 407.68C1492.73 412.794 1499.31 414.254 1490.55 422.297C1481.78 430.34 1478.13 430.34 1476.67 434.72C1475.21 439.099 1468.63 448.602 1465.72 454.451C1462.8 460.3 1449.65 482.951 1448.19 488.8C1446.73 494.648 1443.8 509.266 1439.42 515.105C1435.05 520.944 1421.9 531.917 1416.79 537.756C1411.67 543.595 1407.29 545.065 1399.98 548.719C1392.68 552.373 1410.21 556.027 1414.59 553.833C1418.98 551.638 1424.09 550.913 1429.94 554.568C1435.78 558.222 1449.66 568.45 1453.31 568.45C1456.96 568.45 1475.22 564.061 1475.22 564.061C1475.22 564.061 1478.88 562.601 1482.53 561.867C1486.18 561.132 1492.03 556.753 1499.33 557.478C1506.63 558.203 1511.02 561.132 1523.44 561.867C1535.85 562.601 1552.66 561.867 1557.03 561.867H1565.8C1565.8 561.867 1578.95 563.326 1581.14 564.061C1583.33 564.796 1585.93 565.521 1592.5 566.981C1599.07 568.441 1602.32 572.095 1602.32 572.095L1582.51 566.981C1582.51 566.981 1571.56 564.3 1567.9 564.3C1564.25 564.3 1544.28 563.326 1540.63 564.052C1536.98 564.777 1530.16 565.511 1522.13 564.052C1514.1 562.592 1509.71 561.857 1499.49 561.857C1489.27 561.857 1489.99 562.83 1482.69 565.759C1475.38 568.689 1461.51 572.095 1455.66 572.095C1449.82 572.095 1442.28 568.927 1437.16 564.548C1432.05 560.168 1430.67 560.407 1418.99 560.407C1407.31 560.407 1399.27 556.753 1391.23 558.212C1383.19 559.672 1383.92 562.601 1370.77 566.981C1357.62 571.36 1353.97 578.678 1335.71 579.403C1317.45 580.129 1307.22 589.632 1301.38 591.826C1295.53 594.021 1291.16 599.135 1280.92 601.329C1270.69 603.524 1269.23 607.903 1258.29 609.373C1247.34 610.842 1242.22 609.373 1234.18 607.178C1226.14 604.984 1161.13 588.181 1151.64 587.447C1142.15 586.712 1127.67 577.743 1122.42 577.219C1115.12 576.484 1077.87 563.336 1072.03 564.061C1066.18 564.786 1047.92 559.672 1042.81 557.487C1037.7 555.302 1020.89 553.098 1017.24 552.373C1013.59 551.648 1004.82 549.453 993.134 545.799C981.442 542.145 960.997 529.722 953.692 534.836C945.558 540.532 942.001 541.41 938.349 546.534C934.696 551.657 922.28 577.963 917.169 582.342C912.057 586.722 887.95 613.036 880.646 629.848C873.341 646.66 814.903 727.78 814.179 735.088C813.454 742.397 801.763 750.44 799.569 753.36C797.376 756.279 779.849 795.017 774.003 803.785C768.157 812.554 755.017 824.976 755.017 824.976L661.524 819.128C661.524 819.128 654.954 808.165 643.263 809.624C631.572 811.084 622.808 810.359 609.667 805.97C596.526 801.581 579.724 794.273 567.298 794.273C554.873 794.273 560.728 793.538 546.118 792.078C531.509 790.618 512.523 789.158 504.484 791.343C496.445 793.528 494.986 800.112 484.763 803.766C474.54 807.42 467.96 808.155 459.931 811.809C451.902 815.464 429.253 819.118 429.253 819.118L429.225 819.128Z" fill="#4C7AFF"/>
<mask id="mask0_787_45" style="mask-type:luminance" maskUnits="userSpaceOnUse" x="3" y="-7" width="1592" height="813">
<path d="M1594.84 -6.71582H3.9707V805.951H1594.84V-6.71582Z" fill="white"/>
</mask>
<g mask="url(#mask0_787_45)">
<path d="M-3.5152 94.5645L63.6859 200.778L14.0122 238.781L-9.36084 236.825L-3.5152 94.5645Z" fill="#DADADA" stroke="#B2B2B2" stroke-linecap="round" stroke-linejoin="round"/>
<path d="M39.3403 447.305L79.268 520.391L65.6314 605.165L1.35791 517.471L3.30328 500.908L40.313 560.35C40.313 560.35 55.895 572.047 61.7406 566.198C67.5863 560.35 74.4046 520.4 74.4046 520.4L35.4495 454.136L39.3498 447.314L39.3403 447.305Z" fill="#DADADA" stroke="#B2B2B2" stroke-linecap="round" stroke-linejoin="round"/>
<path d="M79.2681 609.059L232.17 496.023L247.752 517.463L95.8228 630.498L79.2681 609.059Z" fill="#DADADA" stroke="#B2B2B2" stroke-linecap="round" stroke-linejoin="round"/>
<path d="M263.334 539.873L112.377 653.882L95.8228 630.496L247.752 517.461L263.334 539.873Z" fill="#DADADA" stroke="#B2B2B2" stroke-linecap="round" stroke-linejoin="round"/>
<path d="M296.444 587.619L145.487 700.655L128.932 678.242L281.834 565.207L296.444 587.619Z" fill="#DADADA" stroke="#B2B2B2" stroke-linecap="round" stroke-linejoin="round"/>
<path d="M312.026 614.907L162.051 725.986L145.487 700.654L296.444 587.619L312.026 614.907Z" fill="#DADADA" stroke="#B2B2B2" stroke-linecap="round" stroke-linejoin="round"/>
<path d="M131.86 234.878L216.588 194.929L241.907 242.673L234.116 244.62L210.743 297.24L190.288 303.088L164.969 298.213L131.86 234.878Z" fill="#DADADA" stroke="#B2B2B2" stroke-linecap="round" stroke-linejoin="round"/>
<path d="M160.096 406.383L167.887 398.588L114.323 307.965L107.504 315.76L160.096 406.383Z" fill="#DADADA" stroke="#B2B2B2" stroke-linecap="round" stroke-linejoin="round"/>
<path d="M89.9772 335.243L140.624 418.071L134.778 423.92L85.1138 339.146L89.9772 335.243Z" fill="#DADADA" stroke="#B2B2B2" stroke-linecap="round" stroke-linejoin="round"/>
<path d="M80.2406 347.914L128.932 429.769L124.069 434.635L75.3677 352.79L80.2406 347.914Z" fill="#DADADA" stroke="#B2B2B2" stroke-linecap="round" stroke-linejoin="round"/>
<path d="M61.7311 365.45L109.459 443.402L102.641 448.278L55.895 371.299L61.7311 365.45Z" fill="#DADADA" stroke="#B2B2B2" stroke-linecap="round" stroke-linejoin="round"/>
<path d="M89.0042 460.949L45.1762 382.987L39.3401 390.783L81.2132 468.744L89.0042 460.949Z" fill="#DADADA" stroke="#B2B2B2" stroke-linecap="round" stroke-linejoin="round"/>
<path d="M38.3579 221.234L107.504 304.062L100.696 312.83L30.5669 226.11L38.3579 221.234Z" fill="#DADADA" stroke="#B2B2B2" stroke-linecap="round" stroke-linejoin="round"/>
<path d="M94.8499 318.679L28.6215 231.959H22.7759L90.9496 321.599L94.8499 318.679Z" fill="#DADADA" stroke="#B2B2B2" stroke-linecap="round" stroke-linejoin="round"/>
<path d="M82.1859 331.35L14.9849 244.62L7.19385 250.469L76.3403 335.243L82.1859 331.35Z" fill="#DADADA" stroke="#B2B2B2" stroke-linecap="round" stroke-linejoin="round"/>
<path d="M68.5494 346.94L76.3404 335.243L7.19401 250.469L2.33059 255.344L1.35791 261.193L68.5494 346.94Z" fill="#DADADA" stroke="#B2B2B2" stroke-linecap="round" stroke-linejoin="round"/>
<path d="M-0.597084 271.908L62.7132 350.833L56.8676 358.629L-3.51514 282.623L-0.597084 271.908Z" fill="#DADADA" stroke="#B2B2B2" stroke-linecap="round" stroke-linejoin="round"/>
<path d="M-4.48779 428.785L67.5767 537.928L65.6313 543.776L-4.48779 440.483V428.785Z" fill="#DADADA" stroke="#B2B2B2" stroke-linecap="round" stroke-linejoin="round"/>
<path d="M-1.56971 318.68L41.2856 375.193L35.44 382.988L-5.46045 332.324L-1.56971 318.68Z" fill="#DADADA" stroke="#B2B2B2" stroke-linecap="round" stroke-linejoin="round"/>
<path d="M-4.48791 373.246L16.9398 403.453L17.9124 398.587L-8.38818 363.504L-4.48791 373.246Z" fill="#DADADA" stroke="#B2B2B2" stroke-linecap="round" stroke-linejoin="round"/>
<path d="M-3.51511 396.631L9.14886 413.195L13.0396 408.329L-4.48779 382.987L-3.51511 396.631Z" fill="#DADADA" stroke="#B2B2B2" stroke-linecap="round" stroke-linejoin="round"/>
<path d="M-10.3335 572.027L0.375567 523.31L1.35779 517.461L65.6312 605.164L178.606 764.971L144.514 788.356L58.8129 669.472L65.6312 663.623L-3.51517 573.001L-10.3335 572.027Z" fill="#DADADA" stroke="#B2B2B2" stroke-linecap="round" stroke-linejoin="round"/>
<path d="M1.35791 709.422L29.5944 693.832" stroke="#B2B2B2" stroke-linecap="round" stroke-linejoin="round"/>
<path d="M-0.597112 669.473L24.7308 658.759L13.0395 635.373L-2.54248 642.185" fill="#DADADA"/>
<path d="M-0.597112 669.473L24.7308 658.759L13.0395 635.373L-2.54248 642.185" stroke="#B2B2B2" stroke-linecap="round" stroke-linejoin="round"/>
<path d="M65.6312 748.398L97.7679 760.095L74.3949 738.656L65.6312 748.398L-0.597168 744.505L65.6312 748.398Z" fill="#DADADA"/>
<path d="M65.6312 748.398L97.7679 760.095L74.3949 738.656L65.6312 748.398ZM65.6312 748.398L-0.597168 744.505" stroke="#B2B2B2" stroke-linecap="round" stroke-linejoin="round"/>
<path d="M213.661 726.968L330.535 640.238L355.854 679.214L275.998 739.63L239.961 724.039L213.661 726.968Z" fill="#DADADA" stroke="#B2B2B2" stroke-linecap="round" stroke-linejoin="round"/>
<path d="M220.155 733.38L238.016 730.861L283.789 751.327L384.1 753.274L403.572 747.425L435.709 793.223L426.945 801.018L391.891 808.813L356.826 813.689L345.144 811.743L220.155 733.38Z" fill="#DADADA" stroke="#B2B2B2" stroke-linecap="round" stroke-linejoin="round"/>
<path d="M355.854 679.215L397.898 741.662L383.127 746.452L287.68 744.506L275.998 739.63L355.854 679.215Z" fill="#DADADA" stroke="#B2B2B2" stroke-linecap="round" stroke-linejoin="round"/>
<path d="M474.961 820.284L300.877 545.68L132.06 277.795L-13.5405 24.4834" stroke="#979595" stroke-width="25" stroke-miterlimit="10"/>
<path d="M281.834 565.207L128.932 678.242L112.377 653.883L263.334 539.875L281.834 565.207Z" fill="#DADADA" stroke="#B2B2B2" stroke-linecap="round" stroke-linejoin="round"/>
<path d="M-6.43311 609.059L13.0397 635.373L24.7309 658.759L47.1313 684.091L29.5944 693.833L74.3951 738.658L109.459 740.604L118.223 753.275L108.487 770.812L45.1764 801.019L-2.54237 798.1L-6.43311 609.059Z" fill="#DADADA" stroke="#B2B2B2" stroke-linecap="round" stroke-linejoin="round"/>
<path d="M28.6216 46.8105L111.405 190.053L131.86 171.543L56.8676 50.7129L28.6216 46.8105Z" fill="#DADADA" stroke="#B2B2B2" stroke-linecap="round" stroke-linejoin="round"/>
<path d="M149.387 160.82L131.86 171.544L56.8677 50.7136L81.2134 47.7939L149.387 160.82Z" fill="#DADADA" stroke="#B2B2B2" stroke-linecap="round" stroke-linejoin="round"/>
<path d="M178.606 155.953L149.387 160.819L81.2134 47.7934L110.432 44.8643L178.606 155.953Z" fill="#DADADA" stroke="#B2B2B2" stroke-linecap="round" stroke-linejoin="round"/>
<path d="M201.006 138.407L132.832 33.1768L128.932 40.972L110.432 44.8648L178.606 155.954L201.006 138.407Z" fill="#DADADA" stroke="#B2B2B2" stroke-linecap="round" stroke-linejoin="round"/>
<path d="M221.452 122.817L153.278 14.6572L138.678 20.506L132.833 33.1768L201.006 138.407L221.452 122.817Z" fill="#DADADA" stroke="#B2B2B2" stroke-linecap="round" stroke-linejoin="round"/>
<path d="M250.67 119.897L221.452 122.817L153.278 14.657L176.66 7.83496L250.67 119.897Z" fill="#DADADA" stroke="#B2B2B2" stroke-linecap="round" stroke-linejoin="round"/>
<path d="M286.707 132.568L250.67 119.897L176.66 7.83522L203.924 3.94238L286.707 132.568Z" fill="#DADADA" stroke="#B2B2B2" stroke-linecap="round" stroke-linejoin="round"/>
<path d="M319.817 142.309L286.707 132.567L203.924 3.94153L228.27 1.99512L319.817 142.309Z" fill="#DADADA" stroke="#B2B2B2" stroke-linecap="round" stroke-linejoin="round"/>
<path d="M344.162 140.363L319.817 142.309L228.27 1.99544L250.67 1.0127L344.162 140.363Z" fill="#DADADA" stroke="#B2B2B2" stroke-linecap="round" stroke-linejoin="round"/>
<path d="M358.772 120.87L344.163 140.363L250.67 1.01282L275.016 -0.933594L358.772 120.87Z" fill="#DADADA" stroke="#B2B2B2" stroke-linecap="round" stroke-linejoin="round"/>
<path d="M316.899 13.6836L384.1 107.226L358.772 120.87L275.016 -0.933594L316.899 13.6836Z" fill="#DADADA" stroke="#B2B2B2" stroke-linecap="round" stroke-linejoin="round"/>
<path d="M397.727 3.94238L404.545 66.304C404.545 66.304 402.6 76.0457 398.7 83.8409C394.799 91.6361 384.09 107.226 384.09 107.226L316.889 13.684C316.889 13.684 329.553 13.684 338.317 20.506C347.08 27.328 356.817 39.9988 356.817 39.9988L373.372 11.7376L397.717 3.94238H397.727Z" fill="#DADADA" stroke="#B2B2B2" stroke-linecap="round" stroke-linejoin="round"/>
<path d="M447.486 -13.5187L534.16 94.1544L570.683 159.445L648.593 162.851L686.576 161.878L738.681 153.11L761.568 148.721C761.568 148.721 790.3 129.228 792.732 123.875C795.163 118.523 805.882 110.231 809.773 109.745C813.663 109.258 831.687 107.312 835.577 111.205C839.468 115.097 838.495 117.053 838.495 117.053L910.56 124.362L909.587 103.896L953.415 109.258C953.415 109.258 963.152 100.49 968.997 100.49C974.843 100.49 1033.27 103.409 1033.27 103.409L1072.23 127.768L1097.06 122.893L1132.61 113.638L1245.1 149.207L1322.52 131.671C1322.52 131.671 1331.28 128.264 1332.26 133.13C1333.23 137.997 1329.34 145.801 1323.49 147.748C1317.65 149.694 1258.24 160.905 1258.24 160.905L1252.88 251.528L1260.18 290.504L1296.22 309.997L1329.82 321.694L1345.88 316.819L1370.23 292.46L1421.85 232.045L1469.08 194.528L1506.09 136.06L1519.24 138.493C1519.24 138.493 1539.7 232.035 1539.7 249.581C1539.7 267.128 1516.32 316.819 1516.32 316.819L1444.74 375.288L1478.34 391.365L1406.76 525.839C1406.76 525.839 1275.29 595.996 1263.6 595.996C1251.91 595.996 1199.32 584.298 1199.32 584.298L969.97 522.91C969.97 522.91 956.905 512.109 945.863 516.012C934.82 519.914 909.177 541.668 906.908 546.544C904.638 551.419 860.81 615.889 854.964 623.685C849.119 631.48 833.537 660.714 829.646 660.714C825.755 660.714 810.164 669.483 810.164 669.483C810.164 669.483 812.109 675.331 809.191 680.198C806.273 685.064 743.935 790.304 743.935 790.304L702.062 795.179H652.389L579.342 783.482L503.377 767.891L474.158 778.606L466.513 783.482L480.611 806.779L1610.21 814.662L1602.41 -20.417L447.448 -13.5187H447.486Z" stroke="#B2B2B2" stroke-linecap="round" stroke-linejoin="round"/>
<path d="M707.03 -13.5186C707.03 -13.5186 760.595 23.9977 762.54 31.7929C762.54 31.7929 789.813 26.9173 796.622 30.8197C803.431 34.722 809.772 36.6685 806.359 39.5881C802.945 42.5077 775.194 46.8967 775.194 46.8967C775.194 46.8967 740.617 57.6115 722.603 59.0809L718.703 94.6507L796.613 88.8019C796.613 88.8019 818.04 89.2885 814.14 74.1847C810.24 59.0809 824.363 58.1077 824.363 58.1077L905.687 77.1043L908.118 61.5139L902.273 58.5943L857.472 53.2321L841.89 27.4134L853.581 28.8732L890.105 15.7159L906.659 17.1757L910.064 3.53167L846.277 -11.0855L707.011 -13.5186H707.03Z" fill="#DADADA" stroke="#B2B2B2" stroke-linecap="round" stroke-linejoin="round"/>
<path d="M1494.34 127.692L1482.66 116.977L1449.54 115.994H1404.74L1395 112.102L1380.39 114.048L1375.53 123.799L1353.13 129.638L1339.49 136.46L1323.5 147.748L1258.26 160.905L1252.9 251.528L1260.2 290.504L1296.24 309.987L1329.83 321.685L1345.9 316.809L1370.11 293.405L1421.87 232.035L1469.1 194.519L1506.11 136.06L1494.34 127.692Z" fill="#DADADA" stroke="#B2B2B2" stroke-linecap="round" stroke-linejoin="round"/>
<path d="M1118.42 -11.6484L1150.56 60.4548L1173.93 94.5648L1192.44 -9.70202L1118.42 -11.6484Z" fill="#DADADA" stroke="#B2B2B2" stroke-linecap="round" stroke-linejoin="round"/>
<path d="M1247.95 -9.70215L1229.45 110.155L1173.93 94.5647L1192.44 -9.70215H1247.95Z" fill="#DADADA" stroke="#B2B2B2" stroke-linecap="round" stroke-linejoin="round"/>
<path d="M1300.54 -9.70215L1286.9 98.4575L1229.45 110.155L1247.95 -9.70215H1300.54Z" fill="#DADADA" stroke="#B2B2B2" stroke-linecap="round" stroke-linejoin="round"/>
<path d="M1352.16 -10.6758L1340.47 90.6619L1286.9 98.4571L1300.54 -9.70257L1352.16 -10.6758Z" fill="#DADADA" stroke="#B2B2B2" stroke-linecap="round" stroke-linejoin="round"/>
<path d="M1417.4 -9.70257L1408.64 65.3299C1408.64 65.3299 1396.95 63.3835 1386.24 68.2495C1375.53 73.1155 1340.47 90.6619 1340.47 90.6619L1352.16 -10.6758L1417.41 -9.70257H1417.4Z" fill="#DADADA" stroke="#B2B2B2" stroke-linecap="round" stroke-linejoin="round"/>
<path d="M1530.38 -12.6221L1527.46 48.7664C1527.46 48.7664 1488.51 60.464 1453.44 59.4812C1434.92 58.966 1408.64 65.33 1408.64 65.33L1417.4 -9.70244L1530.38 -12.6221Z" fill="#DADADA" stroke="#B2B2B2" stroke-linecap="round" stroke-linejoin="round"/>
<path d="M1404.74 115.994L1442.18 215.366" stroke="#B2B2B2" stroke-linecap="round" stroke-linejoin="round"/>
<path d="M1395 112.102L1434.23 222.513" stroke="#B2B2B2" stroke-linecap="round" stroke-linejoin="round"/>
<path d="M1375.53 123.799L1421.87 232.035" stroke="#B2B2B2" stroke-linecap="round" stroke-linejoin="round"/>
<path d="M1358.59 128.159L1405.82 249.801" stroke="#B2B2B2" stroke-linecap="round" stroke-linejoin="round"/>
<path d="M1339.49 136.46L1390.32 268.559" stroke="#B2B2B2" stroke-linecap="round" stroke-linejoin="round"/>
<path d="M1327.8 145.229L1375.95 286.344" stroke="#B2B2B2" stroke-linecap="round" stroke-linejoin="round"/>
<path d="M1315.08 149.437L1362.56 299.492" stroke="#B2B2B2" stroke-linecap="round" stroke-linejoin="round"/>
<path d="M1299.75 152.604L1351.12 310.455" stroke="#B2B2B2" stroke-linecap="round" stroke-linejoin="round"/>
<path d="M1285.87 156.011L1278.14 278.73L1326.83 268.006L1337.24 318.985" fill="#DADADA"/>
<path d="M1285.87 156.011L1278.14 278.73L1326.83 268.006L1337.24 318.985" stroke="#B2B2B2" stroke-linecap="round" stroke-linejoin="round"/>
<path d="M835.015 810.769L836.961 773.739C836.961 773.739 839.879 759.122 848.652 760.095C857.425 761.069 900.271 768.864 900.271 768.864L898.325 810.759H835.025L835.015 810.769Z" fill="#DADADA" stroke="#B2B2B2" stroke-linecap="round" stroke-linejoin="round"/>
<path d="M908.052 809.785L912.925 738.655L991.808 642.184L1078.49 756.192L1031.75 770.809L908.052 809.785Z" fill="#DADADA" stroke="#B2B2B2" stroke-linecap="round" stroke-linejoin="round"/>
<path d="M1213.86 693.833L1167.11 636.347L1093.1 627.578L1007.39 629.525L1057.06 703.574L1093.1 750.355L1160.29 718.191L1213.86 693.833Z" fill="#DADADA" stroke="#B2B2B2" stroke-linecap="round" stroke-linejoin="round"/>
<path d="M879.816 705.53L911.953 725.987L985.972 633.417L957.726 594.441L879.816 705.53Z" fill="#DADADA" stroke="#B2B2B2" stroke-linecap="round" stroke-linejoin="round"/>
<path d="M911.953 760.097L929.48 754.248L957.726 746.453L981.099 738.657L1000.58 732.809L1031.75 770.811" fill="#DADADA"/>
<path d="M911.953 760.097L929.48 754.248L957.726 746.453L981.099 738.657L1000.58 732.809L1031.75 770.811" stroke="#B2B2B2" stroke-linecap="round" stroke-linejoin="round"/>
<path d="M962.599 679.215L972.335 689.939L987.918 713.325L1000.58 732.808L1041.48 708.449" fill="#DADADA"/>
<path d="M962.599 679.215L972.335 689.939L987.918 713.325L1000.58 732.808L1041.48 708.449" stroke="#B2B2B2" stroke-linecap="round" stroke-linejoin="round"/>
<path d="M963.81 660.943L928.755 635.611" stroke="#B2B2B2" stroke-linecap="round" stroke-linejoin="round"/>
<path d="M1078.49 628.551L1112.57 677.268L1135.95 702.6L1149.58 722.093" stroke="#B2B2B2" stroke-linecap="round" stroke-linejoin="round"/>
<path d="M1000.58 820.51C1000.58 820.51 996.681 805.893 1001.55 803.947C1006.43 802 1045.38 789.329 1056.09 784.454C1066.8 779.578 1134.97 754.246 1134.97 754.246L1160.29 790.303L1184.64 827.332L1000.57 820.51H1000.58Z" fill="#DADADA" stroke="#B2B2B2" stroke-linecap="round" stroke-linejoin="round"/>
<path d="M1316.12 822.457C1316.12 822.457 1326.83 797.125 1332.68 793.223C1338.52 789.32 1405.72 765.935 1405.72 765.935C1405.72 765.935 1455.4 752.291 1460.26 749.371C1465.12 746.451 1485.58 723.066 1485.58 723.066C1485.58 723.066 1484.61 720.146 1491.42 725.985C1498.24 731.825 1507.01 743.522 1510.91 743.522C1514.81 743.522 1603.43 738.647 1603.43 738.647L1600.51 810.75L1590.77 785.418L1450.53 820.501L1316.13 822.448L1316.12 822.457Z" fill="#DADADA" stroke="#B2B2B2" stroke-linecap="round" stroke-linejoin="round"/>
<path d="M1590.76 469.717L1568.36 459.976L1555.7 499.925L1578.1 512.586L1590.76 469.717Z" fill="#DADADA" stroke="#B2B2B2" stroke-linecap="round" stroke-linejoin="round"/>
<path d="M1601.47 526.23L1578.1 512.586L1590.76 469.717L1601.47 476.539V526.23Z" fill="#DADADA" stroke="#B2B2B2" stroke-linecap="round" stroke-linejoin="round"/>
<path d="M1600.5 355.709L1578.1 344.984L1577.13 381.041L1572.25 393.712L1573.23 419.044L1571.28 440.483L1601.47 453.154L1600.5 355.709Z" fill="#DADADA" stroke="#B2B2B2" stroke-linecap="round" stroke-linejoin="round"/>
<path d="M1500.19 615.879H1493.37L1520.64 668.499C1520.64 668.499 1517.72 675.321 1509.93 675.321C1502.14 675.321 1507.02 684.089 1510.91 685.063C1514.8 686.036 1518.7 687.982 1525.52 684.089C1532.33 680.197 1578.11 649.989 1578.11 649.989L1582.98 639.274L1562.53 609.066L1545.97 616.862L1538.18 605.164L1528.14 607.998L1500.2 615.879H1500.19Z" fill="#DADADA" stroke="#B2B2B2" stroke-linecap="round" stroke-linejoin="round"/>
<path d="M1546.93 641.213L1523.56 655.83L1500.19 615.881L1528.13 608L1546.93 641.213Z" fill="#DADADA" stroke="#B2B2B2" stroke-linecap="round" stroke-linejoin="round"/>
<path d="M1458.32 678.242L1473.9 725.013L1441.75 742.56L1424.22 686.037L1458.32 678.242Z" fill="#DADADA" stroke="#B2B2B2" stroke-linecap="round" stroke-linejoin="round"/>
<path d="M1420.33 674.348L1386.24 685.062L1403.77 745.478L1427.14 740.602L1438.83 731.834L1420.33 674.348Z" fill="#DADADA" stroke="#B2B2B2" stroke-linecap="round" stroke-linejoin="round"/>
<path d="M1513.82 704.556L1531.35 697.734L1552.78 681.17L1584.92 665.57L1599.53 688.965V730.861L1523.56 732.808L1513.82 704.556Z" fill="#DADADA" stroke="#B2B2B2" stroke-linecap="round" stroke-linejoin="round"/>
<path d="M1377.48 651.935L1409.61 642.184L1420.33 674.347L1386.24 685.062L1377.48 651.935Z" fill="#DADADA" stroke="#B2B2B2" stroke-linecap="round" stroke-linejoin="round"/>
<path d="M1335.59 662.651L1362.87 654.855L1380.4 699.68L1352.16 708.449L1335.59 662.651Z" fill="#DADADA" stroke="#B2B2B2" stroke-linecap="round" stroke-linejoin="round"/>
<path d="M1375.53 767.892L1382.35 764.973L1403.77 745.48L1377.48 651.938L1362.87 654.857L1380.4 699.682L1352.16 708.45L1375.53 767.892Z" fill="#DADADA" stroke="#B2B2B2" stroke-linecap="round" stroke-linejoin="round"/>
<path d="M1439.81 592.494L1447.6 615.88L1404.74 629.524L1396.95 599.316L1413.51 597.37L1439.81 592.494Z" fill="#DADADA" stroke="#B2B2B2" stroke-linecap="round" stroke-linejoin="round"/>
<path d="M1353.13 610.031L1367.74 643.168L1404.74 629.524L1396.95 599.316L1353.13 610.031Z" fill="#DADADA" stroke="#B2B2B2" stroke-linecap="round" stroke-linejoin="round"/>
<path d="M1317.09 618.8L1330.73 650.963L1367.74 643.168L1353.13 610.031L1317.09 618.8Z" fill="#DADADA" stroke="#B2B2B2" stroke-linecap="round" stroke-linejoin="round"/>
<path d="M1310.28 670.445L1349.23 769.837H1328.79L1295.67 675.321L1310.28 670.445Z" fill="#DADADA" stroke="#B2B2B2" stroke-linecap="round" stroke-linejoin="round"/>
<path d="M1267.42 717.218L1305.4 706.503L1295.67 675.322L1266.45 686.037L1267.42 717.218Z" fill="#DADADA" stroke="#B2B2B2" stroke-linecap="round" stroke-linejoin="round"/>
<path d="M1302.49 774.714L1328.79 769.839L1305.4 706.504L1267.42 717.219L1302.49 774.714Z" fill="#DADADA" stroke="#B2B2B2" stroke-linecap="round" stroke-linejoin="round"/>
<path d="M1310.28 670.446L1325.86 665.57L1363.84 765.944L1349.23 769.837L1310.28 670.446Z" fill="#DADADA" stroke="#B2B2B2" stroke-linecap="round" stroke-linejoin="round"/>
<path d="M1234.31 697.736L1254.77 691.887L1279.11 747.426L1258.66 753.275L1234.31 697.736Z" fill="#DADADA" stroke="#B2B2B2" stroke-linecap="round" stroke-linejoin="round"/>
<path d="M1215.81 704.556L1234.31 697.734L1258.66 753.274L1237.24 759.123L1215.81 704.556Z" fill="#DADADA" stroke="#B2B2B2" stroke-linecap="round" stroke-linejoin="round"/>
<path d="M1173.93 726.969L1189.51 762.052L1217.76 754.257L1221.66 762.052L1169.07 776.669C1169.07 776.669 1161.27 779.589 1149.58 757.176L1154.46 753.274L1144.72 740.603L1173.94 726.959L1173.93 726.969Z" fill="#DADADA" stroke="#B2B2B2" stroke-linecap="round" stroke-linejoin="round"/>
<path d="M1057.55 729.887L1017.39 753.654" stroke="#B2B2B2" stroke-linecap="round" stroke-linejoin="round"/>
<path d="M949.935 692.857L981.099 738.655L996.681 780.561" stroke="#B2B2B2" stroke-linecap="round" stroke-linejoin="round"/>
<path d="M934.353 713.324L957.726 746.451L970.39 789.33" stroke="#B2B2B2" stroke-linecap="round" stroke-linejoin="round"/>
<path d="M929.48 754.246L942.144 798.098" stroke="#B2B2B2" stroke-linecap="round" stroke-linejoin="round"/>
<path d="M948.009 680.33L911.953 659.73" stroke="#B2B2B2" stroke-linecap="round" stroke-linejoin="round"/>
<path d="M929.499 703.715L897.343 682.143" stroke="#B2B2B2" stroke-linecap="round" stroke-linejoin="round"/>
<path d="M836.96 779.578L863.337 783.042L899.308 787.765" fill="#DADADA"/>
<path d="M836.96 779.578L863.337 783.042L899.308 787.765" stroke="#B2B2B2" stroke-linecap="round" stroke-linejoin="round"/>
<path d="M860.82 810.272L862.441 782.889" stroke="#B2B2B2" stroke-linecap="round" stroke-linejoin="round"/>
<path d="M1025.92 687.4L987.917 713.324" stroke="#B2B2B2" stroke-linecap="round" stroke-linejoin="round"/>
<path d="M1010.32 666.553L972.335 689.938" stroke="#B2B2B2" stroke-linecap="round" stroke-linejoin="round"/>
<path d="M1057.06 703.572L1077.52 695.777L1097.96 684.088L1116.47 676.293L1178.91 651.057" stroke="#B2B2B2" stroke-linecap="round" stroke-linejoin="round"/>
<path d="M1130.1 729.887L1097.96 684.089L1080.44 663.623L1042.47 681.551" stroke="#B2B2B2" stroke-linecap="round" stroke-linejoin="round"/>
<path d="M1057.21 628.568L1065.09 642.432L1026.77 657.917" stroke="#B2B2B2" stroke-linecap="round" stroke-linejoin="round"/>
<path d="M1080.44 663.623L1064.85 642.184" stroke="#B2B2B2" stroke-linecap="round" stroke-linejoin="round"/>
<path d="M1077.52 695.777L1108.68 741.575" stroke="#B2B2B2" stroke-linecap="round" stroke-linejoin="round"/>
<path d="M1170.04 713.324L1135.95 668.499L1107.71 629.523" stroke="#B2B2B2" stroke-linecap="round" stroke-linejoin="round"/>
<path d="M1192.44 702.6L1159.18 659.102" stroke="#B2B2B2" stroke-linecap="round" stroke-linejoin="round"/>
<path d="M869.583 837.398L910.484 812.553C910.484 812.553 994.488 785.513 1006.17 785.513C1017.85 785.513 1058.03 771.63 1066.07 769.436C1074.1 767.241 1134.73 740.201 1142.03 735.087C1149.34 729.973 1212.88 698.544 1218.73 695.625C1224.58 692.705 1256.71 683.927 1264.02 680.273L1271.32 676.618C1271.32 676.618 1314.41 661.267 1321.72 659.807C1329.02 658.347 1333.41 656.887 1333.41 656.887C1333.41 656.887 1385.27 642.27 1395.5 640.075C1405.73 637.881 1452.47 623.998 1465.62 619.609C1478.77 615.22 1502.87 607.187 1517.48 602.798C1532.09 598.409 1576.64 584.526 1585.4 577.218C1594.17 569.909 1605.86 568.449 1605.86 568.449" stroke="#B2B2B2" stroke-width="3" stroke-linecap="round" stroke-linejoin="round"/>
</g>
<path d="M652.663 486.395C649.323 486.699 645.58 485.114 641.208 484.386L653.917 456.633L660.05 419.398L656.693 413.265L626.757 355.003C626.757 355.003 622.232 359.628 618.872 362.011C614.628 365.022 612.107 366.943 607.044 368.144C602.233 369.286 598.993 369.928 594.381 368.144C590.731 366.733 588.773 365.165 586.456 362.011C582.94 357.226 583.485 353.055 583.389 347.117C583.286 340.676 591.115 302.281 591.115 302.281C591.115 302.281 592.293 303.431 594.381 285.583C598.672 248.918 594.381 191.054 594.381 191.054L669.353 204.092L801.368 158.457L881.23 148.678L1037.69 135.64L1169.71 148.678L1243.05 272.545L1269.13 365.974L1171.01 355.663L1019.91 358.904L895.958 355.663L743.224 365.974L722.274 429.734L689.996 434.479L672.107 459.368L652.663 486.395Z" fill="#D9D9D9" stroke="#B2B2B2"/>
<path d="M437.658 390.197C434.689 390.197 426.324 387.781 416.181 381.349L393.611 368.108L294 419.267L268.12 458.088L202.721 346.41L235.615 304.65L255.951 217.206V168.4L373.898 205.005L485.898 292.448L499.256 346.41L485.898 379.807C471.055 383.27 440.627 390.197 437.658 390.197Z" fill="#D9D9D9" stroke="#B2B2B2"/>
<path d="M461.697 766.463L356.436 599.125L449.551 576.184L629.035 504.66L595.297 539.747L639.831 557.291L765.334 539.747V512.757L921.876 520.854L819.314 645.008L795.023 661.202V676.046L724.849 781.307H639.831L511.628 754.317L461.697 766.463Z" fill="#D9D9D9" stroke="#B2B2B2"/>
<path d="M501.961 785.129L500.906 785.173C500.856 784.95 500.772 784.754 500.654 784.588C500.537 784.421 500.395 784.281 500.23 784.169C500.065 784.056 499.882 783.973 499.681 783.921C499.483 783.868 499.273 783.846 499.052 783.856C498.653 783.872 498.3 783.988 497.992 784.202C497.688 784.415 497.452 784.72 497.286 785.115C497.122 785.511 497.051 785.988 497.075 786.547C497.099 787.111 497.209 787.583 497.405 787.963C497.604 788.343 497.866 788.625 498.19 788.811C498.514 788.996 498.873 789.08 499.267 789.063C499.486 789.054 499.692 789.016 499.886 788.949C500.082 788.88 500.257 788.783 500.412 788.66C500.567 788.536 500.697 788.387 500.8 788.213C500.906 788.037 500.975 787.838 501.009 787.615L502.064 787.574C502.022 787.917 501.926 788.235 501.775 788.528C501.627 788.818 501.431 789.073 501.187 789.291C500.946 789.507 500.666 789.678 500.349 789.804C500.031 789.93 499.682 790.001 499.301 790.017C498.701 790.042 498.161 789.923 497.68 789.659C497.199 789.392 496.812 788.998 496.519 788.478C496.228 787.957 496.068 787.328 496.037 786.591C496.006 785.851 496.114 785.211 496.362 784.67C496.611 784.126 496.963 783.703 497.42 783.399C497.877 783.093 498.404 782.928 499.002 782.902C499.369 782.887 499.714 782.926 500.036 783.018C500.361 783.108 500.655 783.25 500.918 783.442C501.181 783.632 501.402 783.869 501.581 784.152C501.76 784.434 501.887 784.759 501.961 785.129ZM502.854 785.444L502.817 784.571L507.2 784.387L507.237 785.26L505.542 785.331L505.724 789.652L504.737 789.694L504.555 785.372L502.854 785.444ZM510.438 789.559C509.951 789.58 509.522 789.486 509.149 789.278C508.777 789.07 508.482 788.77 508.265 788.377C508.047 787.984 507.927 787.519 507.904 786.983C507.882 786.444 507.962 785.969 508.146 785.557C508.33 785.145 508.598 784.819 508.952 784.581C509.305 784.343 509.726 784.213 510.213 784.193C510.7 784.172 511.129 784.266 511.502 784.474C511.874 784.682 512.169 784.983 512.386 785.378C512.604 785.774 512.724 786.24 512.747 786.779C512.769 787.316 512.689 787.789 512.505 788.199C512.321 788.608 512.053 788.932 511.699 789.171C511.345 789.409 510.925 789.539 510.438 789.559ZM510.406 788.71C510.722 788.697 510.98 788.603 511.18 788.427C511.38 788.252 511.524 788.023 511.612 787.742C511.702 787.46 511.739 787.152 511.725 786.819C511.712 786.487 511.648 786.185 511.535 785.912C511.424 785.637 511.261 785.419 511.047 785.259C510.832 785.098 510.567 785.025 510.252 785.038C509.934 785.051 509.673 785.147 509.471 785.325C509.271 785.503 509.126 785.733 509.036 786.017C508.948 786.299 508.912 786.605 508.926 786.936C508.94 787.27 509.002 787.574 509.113 787.847C509.226 788.12 509.39 788.335 509.604 788.493C509.821 788.651 510.088 788.724 510.406 788.71ZM514.359 784.086L515.59 786.06L516.662 783.989L517.767 783.943L516.257 786.608L517.999 789.136L516.893 789.183L515.642 787.291L514.557 789.281L513.448 789.328L514.955 786.663L513.25 784.133L514.359 784.086ZM519.024 789.093L518.805 783.899L519.817 783.857L520.035 789.051L519.024 789.093ZM519.282 783.076C519.107 783.084 518.953 783.031 518.822 782.92C518.693 782.805 518.625 782.666 518.618 782.501C518.611 782.334 518.667 782.19 518.786 782.067C518.907 781.943 519.056 781.877 519.232 781.869C519.407 781.862 519.56 781.915 519.689 782.029C519.82 782.141 519.889 782.281 519.896 782.448C519.903 782.612 519.846 782.757 519.725 782.882C519.606 783.004 519.458 783.069 519.282 783.076ZM520.951 790.513L520.851 788.139L521.274 788.121C521.378 788.018 521.464 787.895 521.533 787.755C521.604 787.614 521.661 787.448 521.705 787.256C521.751 787.065 521.787 786.842 521.812 786.588C521.838 786.332 521.857 786.039 521.87 785.711L521.951 783.767L525.482 783.619L525.663 787.937L526.461 787.903L526.561 790.277L525.573 790.319L525.51 788.821L521.889 788.973L521.952 790.471L520.951 790.513ZM522.356 788.076L524.676 787.978L524.53 784.526L522.894 784.595L522.831 785.671C522.802 786.219 522.756 786.695 522.694 787.1C522.632 787.502 522.519 787.827 522.356 788.076Z" fill="white"/>
<path d="M259.98 488.343L260.165 494.113L265.07 491.068L259.98 488.343ZM262.354 492.166L261.929 492.43L321.167 587.848L321.592 587.584L322.017 587.32L262.779 491.902L262.354 492.166Z" fill="white"/>
<path d="M278.16 512.051L279.796 507.937L279.485 507.424L276.464 509.262L275.552 507.763L282.639 503.453L283.551 504.952L280.72 506.673L280.903 506.974L285.165 507.606L286.299 509.471L281.33 508.705L279.29 513.909L278.16 512.051ZM280.851 516.71C280.524 516.172 280.355 515.638 280.345 515.107C280.339 514.576 280.476 514.08 280.758 513.618C281.042 513.155 281.456 512.758 282 512.427C282.55 512.093 283.094 511.907 283.634 511.87C284.176 511.831 284.679 511.937 285.145 512.188C285.614 512.44 286.012 512.834 286.339 513.372C286.666 513.909 286.833 514.443 286.839 514.973C286.849 515.505 286.712 516.002 286.428 516.465C286.147 516.927 285.732 517.325 285.183 517.659C284.638 517.99 284.095 518.175 283.553 518.214C283.013 518.251 282.509 518.144 282.039 517.892C281.574 517.641 281.178 517.247 280.851 516.71ZM281.997 516.022C282.146 516.267 282.339 516.429 282.577 516.508C282.817 516.587 283.084 516.593 283.377 516.529C283.671 516.467 283.972 516.342 284.282 516.154C284.591 515.966 284.841 515.756 285.031 515.523C285.223 515.293 285.339 515.053 285.38 514.804C285.421 514.554 285.367 514.307 285.219 514.063C285.069 513.816 284.872 513.651 284.629 513.568C284.387 513.488 284.119 513.478 283.825 513.54C283.532 513.605 283.231 513.731 282.922 513.919C282.613 514.107 282.363 514.316 282.171 514.546C281.98 514.779 281.865 515.021 281.826 515.273C281.79 515.525 281.847 515.775 281.997 516.022ZM283.129 520.221L288.444 516.989L289.822 519.255C290.221 519.911 290.411 520.504 290.394 521.036C290.376 521.569 290.138 521.974 289.678 522.253C289.39 522.429 289.085 522.468 288.763 522.369C288.441 522.271 288.131 522.052 287.832 521.712C288.003 522.045 288.095 522.36 288.109 522.658C288.126 522.957 288.075 523.224 287.955 523.458C287.837 523.694 287.661 523.883 287.428 524.025C287.126 524.209 286.817 524.286 286.502 524.256C286.188 524.229 285.88 524.096 285.577 523.857C285.275 523.62 284.989 523.28 284.72 522.837L283.129 520.221ZM285.068 520.924L285.823 522.166C285.948 522.371 286.094 522.502 286.261 522.559C286.432 522.616 286.603 522.593 286.774 522.489C286.963 522.374 287.076 522.225 287.113 522.041C287.151 521.86 287.108 521.666 286.983 521.461L286.227 520.219L285.068 520.924ZM287.092 519.693L287.654 520.617C287.744 520.764 287.841 520.877 287.946 520.956C288.054 521.035 288.166 521.078 288.28 521.084C288.396 521.093 288.509 521.064 288.62 520.996C288.784 520.897 288.872 520.753 288.884 520.565C288.896 520.378 288.833 520.17 288.694 519.941L288.151 519.049L287.092 519.693ZM287.912 528.321C287.58 527.775 287.404 527.237 287.386 526.708C287.371 526.179 287.504 525.685 287.783 525.224C288.064 524.762 288.485 524.361 289.046 524.02C289.593 523.687 290.137 523.502 290.679 523.463C291.221 523.424 291.725 523.527 292.19 523.772C292.656 524.019 293.048 524.404 293.365 524.925C293.578 525.276 293.72 525.636 293.791 526.007C293.866 526.379 293.86 526.746 293.773 527.108C293.688 527.473 293.515 527.822 293.253 528.155C292.993 528.487 292.637 528.79 292.185 529.065L291.78 529.311L289.051 524.823L289.964 524.267L291.85 527.368C292.062 527.239 292.222 527.078 292.33 526.886C292.438 526.695 292.488 526.489 292.481 526.269C292.477 526.05 292.41 525.833 292.279 525.618C292.143 525.395 291.971 525.228 291.762 525.118C291.556 525.009 291.338 524.959 291.106 524.967C290.876 524.974 290.656 525.04 290.444 525.165L289.576 525.694C289.313 525.853 289.115 526.04 288.982 526.253C288.851 526.469 288.788 526.698 288.794 526.942C288.8 527.185 288.877 527.43 289.028 527.676C289.127 527.84 289.241 527.976 289.37 528.084C289.499 528.192 289.639 528.267 289.791 528.307C289.942 528.348 290.1 528.353 290.264 528.323L291.004 529.741C290.634 529.871 290.262 529.903 289.887 529.837C289.515 529.772 289.159 529.613 288.818 529.359C288.481 529.106 288.179 528.76 287.912 528.321ZM289.896 531.349L291.061 530.63L291.168 530.807C291.244 530.931 291.339 531.02 291.454 531.074C291.572 531.128 291.719 531.143 291.894 531.119C292.069 531.095 292.281 531.031 292.531 530.927C292.782 530.821 293.08 530.671 293.424 530.478L295.83 529.133L298.288 533.175L292.972 536.408L292.118 535.003L296.274 532.475L295.476 531.164L293.803 532.068C293.345 532.318 292.929 532.497 292.555 532.604C292.183 532.714 291.847 532.755 291.549 532.727C291.254 532.698 290.992 532.606 290.765 532.451C290.537 532.295 290.338 532.075 290.165 531.792L289.896 531.349ZM297.911 536.236L298.877 537.824C299.305 538.528 299.471 539.179 299.374 539.778C299.279 540.376 298.952 540.846 298.391 541.187C298.026 541.408 297.652 541.515 297.267 541.505C296.884 541.495 296.514 541.369 296.156 541.129C295.8 540.887 295.48 540.531 295.195 540.063L293.667 537.551L298.983 534.318L299.839 535.727L295.683 538.254L296.355 539.358C296.505 539.605 296.69 539.77 296.912 539.854C297.133 539.937 297.341 539.921 297.537 539.805C297.741 539.678 297.859 539.496 297.891 539.258C297.926 539.019 297.868 538.776 297.718 538.529L296.752 536.941L297.911 536.236ZM300.011 548.2C299.697 547.683 299.505 547.169 299.438 546.657C299.373 546.146 299.427 545.679 299.599 545.255C299.775 544.832 300.067 544.492 300.476 544.234L301.394 545.742C301.226 545.857 301.108 546.006 301.04 546.19C300.975 546.374 300.961 546.576 300.996 546.795C301.031 547.014 301.115 547.233 301.248 547.452C301.387 547.68 301.55 547.858 301.738 547.984C301.925 548.11 302.12 548.179 302.324 548.192C302.527 548.204 302.722 548.153 302.909 548.039C303.098 547.924 303.233 547.77 303.314 547.575C303.399 547.382 303.423 547.161 303.387 546.915C303.352 546.67 303.253 546.415 303.09 546.147L302.688 545.486L303.789 544.817L304.191 545.478C304.328 545.704 304.489 545.879 304.673 546.005C304.858 546.132 305.049 546.203 305.246 546.215C305.446 546.227 305.639 546.175 305.826 546.062C306.004 545.954 306.133 545.816 306.215 545.65C306.301 545.484 306.335 545.302 306.319 545.103C306.304 544.907 306.235 544.708 306.113 544.508C305.99 544.305 305.84 544.141 305.664 544.018C305.49 543.893 305.305 543.82 305.109 543.8C304.914 543.78 304.724 543.821 304.54 543.924L303.667 542.488C304.079 542.246 304.51 542.144 304.959 542.181C305.408 542.217 305.836 542.374 306.245 542.65C306.657 542.927 307.01 543.308 307.304 543.793C307.602 544.282 307.773 544.764 307.819 545.239C307.864 545.713 307.798 546.144 307.619 546.531C307.444 546.919 307.169 547.225 306.793 547.45C306.398 547.694 305.992 547.772 305.575 547.684C305.16 547.598 304.796 547.379 304.483 547.026L304.427 547.059C304.678 547.621 304.738 548.128 304.608 548.58C304.482 549.033 304.198 549.392 303.756 549.658C303.354 549.906 302.924 550.007 302.467 549.963C302.012 549.921 301.569 549.749 301.139 549.448C300.71 549.146 300.334 548.73 300.011 548.2ZM302.592 552.225L310.192 551.628L310.24 551.598L308.159 548.176L309.384 547.431L312.408 552.404L311.166 553.159L303.532 553.772L302.592 552.225ZM307.326 560.01L312.641 556.777L313.538 558.251L311.475 559.506L311.728 559.921L314.67 560.113L315.722 561.843L311.942 561.568L310.419 565.097L309.354 563.346L310.443 560.887L310.108 560.337L308.222 561.484L307.326 560.01ZM314.339 567.871L318.9 567.069L319.582 568.19L313.006 569.35L312.41 568.37L316.494 563.113L317.174 564.231L314.339 567.871ZM316.97 563.896L311.655 567.128L310.798 565.72L316.113 562.487L316.97 563.896ZM313.808 570.668L319.123 567.436L319.969 568.827L314.654 572.059L313.808 570.668Z" fill="white"/>
<path d="M388.483 692.519L388.237 686.75L383.365 689.848L388.483 692.519ZM386.069 688.721L386.491 688.453L331.182 601.467L330.76 601.735L330.338 602.004L385.647 688.989L386.069 688.721Z" fill="white"/>
<path d="M340.681 607.683L341.886 606.95L342.025 607.141C342.203 607.386 342.428 607.536 342.7 607.588C342.975 607.639 343.329 607.586 343.765 607.429C344.204 607.273 344.759 607.006 345.431 606.629L348.655 604.83L351.58 609.64L344.493 613.95L343.607 612.493L349.493 608.913L348.3 606.951L345.765 608.341C344.949 608.787 344.243 609.086 343.648 609.24C343.054 609.396 342.536 609.382 342.096 609.198C341.657 609.016 341.264 608.64 340.917 608.07L340.681 607.683ZM343.787 617.28C343.674 617.093 343.582 616.909 343.513 616.727C343.442 616.548 343.396 616.393 343.376 616.26L344.678 615.923C344.73 616.128 344.796 616.301 344.876 616.443C344.957 616.586 345.063 616.688 345.194 616.747C345.326 616.809 345.495 616.821 345.7 616.785L345.978 616.735L350.286 611.503L351.229 613.053L347.994 616.528L348.028 616.583L352.607 615.32L353.556 616.881L346.41 618.397C346.064 618.471 345.732 618.488 345.416 618.446C345.099 618.408 344.805 618.295 344.532 618.107C344.257 617.92 344.009 617.644 343.787 617.28ZM356.841 622.283L352.543 624.896L353.059 625.744L350.332 627.402L349.461 625.97L351.17 624.93L348.7 620.868L354.015 617.635L354.872 619.043L350.715 621.571L351.839 623.419L355.995 620.891L356.841 622.283ZM356.839 625.957L357.804 627.545C358.232 628.249 358.398 628.9 358.301 629.5C358.206 630.098 357.879 630.567 357.318 630.908C356.954 631.13 356.579 631.236 356.194 631.227C355.812 631.216 355.441 631.09 355.083 630.85C354.728 630.608 354.407 630.253 354.122 629.784L352.595 627.272L357.91 624.04L358.767 625.448L354.61 627.976L355.282 629.079C355.432 629.326 355.618 629.491 355.839 629.575C356.06 629.658 356.269 629.642 356.464 629.527C356.668 629.4 356.786 629.217 356.818 628.979C356.853 628.74 356.795 628.497 356.645 628.25L355.679 626.662L356.839 625.957ZM356.079 633.001L361.394 629.769L362.291 631.243L360.228 632.497L360.481 632.912L363.423 633.105L364.475 634.835L360.695 634.559L359.172 638.088L358.107 636.337L359.196 633.879L358.861 633.328L356.975 634.475L356.079 633.001ZM362.41 643.631C362.096 643.114 361.905 642.6 361.837 642.088C361.773 641.577 361.827 641.11 361.999 640.686C362.175 640.263 362.467 639.923 362.876 639.665L363.793 641.174C363.626 641.288 363.508 641.437 363.44 641.621C363.375 641.806 363.36 642.007 363.395 642.226C363.43 642.445 363.515 642.664 363.648 642.883C363.787 643.112 363.95 643.289 364.137 643.415C364.325 643.541 364.52 643.611 364.723 643.623C364.927 643.635 365.122 643.584 365.309 643.471C365.498 643.356 365.633 643.201 365.714 643.006C365.798 642.813 365.822 642.593 365.786 642.346C365.751 642.102 365.653 641.846 365.49 641.578L365.088 640.917L366.188 640.248L366.59 640.909C366.728 641.135 366.888 641.311 367.072 641.436C367.257 641.564 367.448 641.634 367.646 641.647C367.845 641.658 368.039 641.607 368.226 641.493C368.403 641.385 368.533 641.248 368.615 641.081C368.7 640.915 368.735 640.733 368.719 640.534C368.704 640.338 368.635 640.14 368.513 639.939C368.389 639.736 368.24 639.573 368.063 639.449C367.889 639.324 367.705 639.252 367.509 639.232C367.314 639.211 367.124 639.253 366.94 639.355L366.066 637.919C366.479 637.678 366.909 637.575 367.358 637.612C367.807 637.649 368.236 637.805 368.644 638.081C369.056 638.359 369.409 638.739 369.704 639.224C370.002 639.713 370.173 640.195 370.218 640.67C370.264 641.145 370.197 641.576 370.018 641.962C369.843 642.35 369.568 642.656 369.193 642.881C368.798 643.125 368.392 643.203 367.975 643.115C367.559 643.03 367.195 642.81 366.882 642.457L366.827 642.491C367.077 643.053 367.137 643.56 367.008 644.011C366.882 644.464 366.598 644.823 366.156 645.089C365.753 645.337 365.324 645.438 364.867 645.394C364.411 645.352 363.969 645.18 363.539 644.879C363.109 644.578 362.733 644.162 362.41 643.631ZM366.332 650.079C366.008 649.546 365.806 649.019 365.726 648.499C365.65 647.979 365.692 647.51 365.851 647.091C366.01 646.672 366.281 646.346 366.664 646.113C366.96 645.933 367.271 645.835 367.6 645.819C367.932 645.804 368.25 645.863 368.556 645.996C368.864 646.128 369.128 646.324 369.35 646.584L369.398 646.555C369.244 646.13 369.241 645.712 369.389 645.3C369.539 644.886 369.807 644.562 370.195 644.326C370.562 644.103 370.953 644.012 371.37 644.052C371.789 644.091 372.194 644.248 372.585 644.522C372.98 644.797 373.322 645.174 373.613 645.651C373.903 646.129 374.079 646.605 374.14 647.08C374.203 647.557 374.155 647.99 373.997 648.38C373.842 648.769 373.582 649.075 373.219 649.299C372.828 649.534 372.415 649.621 371.979 649.56C371.544 649.499 371.176 649.306 370.874 648.981L370.825 649.01C370.951 649.322 371.002 649.644 370.976 649.976C370.954 650.308 370.86 650.618 370.693 650.906C370.531 651.194 370.302 651.43 370.008 651.612C369.624 651.842 369.209 651.932 368.764 651.88C368.319 651.829 367.882 651.649 367.454 651.34C367.03 651.032 366.656 650.612 366.332 650.079ZM367.432 649.41C367.577 649.647 367.746 649.829 367.939 649.955C368.135 650.079 368.339 650.145 368.551 650.151C368.768 650.159 368.976 650.101 369.177 649.979C369.382 649.854 369.532 649.692 369.626 649.493C369.722 649.293 369.761 649.076 369.743 648.844C369.727 648.61 369.649 648.378 369.508 648.147C369.37 647.919 369.199 647.743 368.998 647.619C368.798 647.493 368.587 647.427 368.365 647.42C368.146 647.414 367.934 647.474 367.729 647.598C367.528 647.721 367.381 647.878 367.287 648.071C367.195 648.263 367.16 648.476 367.181 648.709C367.205 648.941 367.289 649.174 367.432 649.41ZM370.599 647.484C370.719 647.683 370.867 647.834 371.042 647.94C371.216 648.045 371.402 648.098 371.598 648.099C371.795 648.1 371.986 648.043 372.173 647.93C372.358 647.817 372.493 647.675 372.578 647.504C372.665 647.33 372.702 647.144 372.688 646.944C372.676 646.742 372.608 646.54 372.485 646.337C372.362 646.136 372.214 645.983 372.039 645.878C371.867 645.771 371.684 645.717 371.49 645.714C371.299 645.713 371.112 645.769 370.927 645.881C370.74 645.995 370.602 646.139 370.512 646.313C370.423 646.488 370.384 646.677 370.398 646.881C370.411 647.085 370.478 647.286 370.599 647.484ZM370.119 656.088L375.434 652.856L376.331 654.33L374.268 655.584L374.521 655.999L377.463 656.192L378.515 657.922L374.736 657.646L373.212 661.175L372.148 659.424L373.236 656.966L372.901 656.415L371.015 657.562L370.119 656.088ZM377.132 663.949L381.693 663.147L382.375 664.268L375.799 665.428L375.203 664.449L379.288 659.192L379.967 660.31L377.132 663.949ZM379.763 659.974L374.448 663.206L373.591 661.798L378.907 658.565L379.763 659.974ZM376.601 666.747L381.916 663.514L382.762 664.905L377.447 668.138L376.601 666.747Z" fill="white"/>
</g>
<defs>
<clipPath id="clip0_787_45">
<rect width="1600" height="805" fill="white" transform="translate(0.611816 0.535156)"/>
</clipPath>
</defs>
</svg>
